<?xml version="1.0" standalone="no"?>
<!DOCTYPE svg PUBLIC "-//W3C//DTD SVG 1.1//EN" "http://www.w3.org/Graphics/SVG/1.1/DTD/svg11.dtd" >
<svg xmlns="http://www.w3.org/2000/svg" xmlns:xlink="http://www.w3.org/1999/xlink" version="1.1">
<metadata>
Created by FontForge 20141024 at Sun May 10 12:05:55 2015
 By System Administrator
Copyright (c) Mark Simonson, 2005. All rights reserved.
</metadata>
<defs>
<font id="ProximaNovaCond-Regular" horiz-adv-x="327" >
  <font-face 
    font-family="Proxima Nova Cn Rg"
    font-weight="400"
    font-stretch="normal"
    units-per-em="1000"
    panose-1="2 0 5 6 3 0 0 2 0 4"
    ascent="790"
    descent="-210"
    x-height="483"
    cap-height="667"
    bbox="-135 -271 932 886"
    underline-thickness="20"
    underline-position="-113"
    stemh="21"
    stemv="82"
    unicode-range="U+0020-FB04"
  />
<missing-glyph horiz-adv-x="492" 
d="M421 -90h-351v842h351v-842zM389 -60v782h-288v-782h288z" />
    <glyph glyph-name="fi" unicode="fi" horiz-adv-x="456" 
d="M155 0h-72v420h-64v63h64v58c0 86 48 136 118 136c25 0 45 -5 62 -15l-18 -58c-7 6 -18 9 -31 9c-38 0 -59 -27 -59 -72v-58h81v-63h-81v-420zM354 553c-26 0 -49 22 -49 49s23 49 49 49c28 0 49 -22 49 -49s-21 -49 -49 -49zM390 0h-71v483h71v-483z" />
    <glyph glyph-name="fl" unicode="fl" horiz-adv-x="456" 
d="M155 0h-72v420h-64v63h64v58c0 86 48 136 118 136c25 0 45 -5 62 -15l-18 -58c-7 6 -18 9 -31 9c-38 0 -59 -27 -59 -72v-58h81v-63h-81v-420zM390 0h-71v667h71v-667z" />
    <glyph glyph-name="f_b" unicode="fb" horiz-adv-x="734" 
d="M155 0h-72v420h-64v63h64v58c0 86 48 136 118 136c25 0 45 -5 62 -15l-18 -58c-7 6 -18 9 -31 9c-38 0 -59 -27 -59 -72v-58h81v-63h-81v-420zM390 130c19 -42 64 -78 110 -78c79 0 116 85 116 189c0 105 -37 190 -116 190c-46 0 -91 -38 -110 -80v-221zM390 0h-71v667
h71v-254c30 54 78 82 128 82c109 0 173 -103 173 -254c0 -152 -64 -253 -173 -253c-51 0 -100 32 -128 81v-69z" />
    <glyph glyph-name="f_h" unicode="fh" horiz-adv-x="719" 
d="M155 0h-72v420h-64v63h64v58c0 86 48 136 118 136c25 0 45 -5 62 -15l-18 -58c-7 6 -18 9 -31 9c-38 0 -59 -27 -59 -72v-58h81v-63h-81v-420zM653 0h-72v345c0 64 -29 86 -77 86s-92 -38 -114 -77v-354h-71v667h71v-253c28 42 83 81 141 81c82 0 122 -41 122 -130v-365z
" />
    <glyph glyph-name="f_k" unicode="fk" horiz-adv-x="692" 
d="M155 0h-72v420h-64v63h64v58c0 86 48 136 118 136c25 0 45 -5 62 -15l-18 -58c-7 6 -18 9 -31 9c-38 0 -59 -27 -59 -72v-58h81v-63h-81v-420zM677 0h-85l-133 218l-69 -87v-131h-71v667h71v-446l202 262h84l-168 -217z" />
    <glyph glyph-name="f_f_j" unicode="ffj" horiz-adv-x="710" 
d="M155 0h-72v420h-64v63h64v58c0 85 46 136 121 136c32 0 62 -8 86 -32l-28 -53c-13 14 -28 21 -46 21c-41 0 -61 -27 -61 -72v-58h81v-63h-81v-420zM408 0h-72v420h-64v63h64v58c0 86 48 136 118 136c25 0 45 -5 62 -15l-18 -58c-7 6 -18 9 -31 9c-38 0 -59 -27 -59 -72
v-58h81v-63h-81v-420zM608 553c-26 0 -49 22 -49 49s23 49 49 49c28 0 49 -22 49 -49s-21 -49 -49 -49zM523 -196c-37 0 -60 11 -81 34l26 55c11 -15 27 -25 49 -25c32 0 56 20 56 73v542h71v-542c0 -93 -42 -137 -121 -137z" />
    <glyph glyph-name="f_j" unicode="fj" horiz-adv-x="456" 
d="M155 0h-72v420h-64v63h64v58c0 86 48 136 118 136c25 0 45 -5 62 -15l-18 -58c-7 6 -18 9 -31 9c-38 0 -59 -27 -59 -72v-58h81v-63h-81v-420zM354 553c-26 0 -49 22 -49 49s23 49 49 49c28 0 49 -22 49 -49s-21 -49 -49 -49zM269 -196c-37 0 -60 11 -81 34l26 55
c11 -15 27 -25 49 -25c32 0 56 20 56 73v542h71v-542c0 -93 -42 -137 -121 -137z" />
    <glyph glyph-name="f_f" unicode="ff" horiz-adv-x="507" 
d="M155 0h-72v420h-64v63h64v58c0 85 46 136 121 136c32 0 62 -8 86 -32l-28 -53c-13 14 -28 21 -46 21c-41 0 -61 -27 -61 -72v-58h81v-63h-81v-420zM408 0h-72v420h-64v63h64v58c0 85 46 136 121 136c32 0 62 -8 86 -32l-28 -53c-13 14 -28 21 -46 21
c-41 0 -61 -27 -61 -72v-58h81v-63h-81v-420z" />
    <glyph glyph-name="f_f_i" unicode="ffi" horiz-adv-x="710" 
d="M155 0h-72v420h-64v63h64v58c0 85 46 136 121 136c32 0 62 -8 86 -32l-28 -53c-13 14 -28 21 -46 21c-41 0 -61 -27 -61 -72v-58h81v-63h-81v-420zM408 0h-72v420h-64v63h64v58c0 86 48 136 118 136c25 0 45 -5 62 -15l-18 -58c-7 6 -18 9 -31 9c-38 0 -59 -27 -59 -72
v-58h81v-63h-81v-420zM608 553c-26 0 -49 22 -49 49s23 49 49 49c28 0 49 -22 49 -49s-21 -49 -49 -49zM644 0h-71v483h71v-483z" />
    <glyph glyph-name="f_f_l" unicode="ffl" horiz-adv-x="710" 
d="M155 0h-72v420h-64v63h64v58c0 85 46 136 121 136c32 0 62 -8 86 -32l-28 -53c-13 14 -28 21 -46 21c-41 0 -61 -27 -61 -72v-58h81v-63h-81v-420zM408 0h-72v420h-64v63h64v58c0 86 48 136 118 136c25 0 45 -5 62 -15l-18 -58c-7 6 -18 9 -31 9c-38 0 -59 -27 -59 -72
v-58h81v-63h-81v-420zM644 0h-71v667h71v-667z" />
    <glyph glyph-name=".notdef" horiz-adv-x="492" 
d="M421 -90h-351v842h351v-842zM389 -60v782h-288v-782h288z" />
    <glyph glyph-name="space" unicode=" " horiz-adv-x="215" 
 />
    <glyph glyph-name="exclam" unicode="!" horiz-adv-x="228" 
d="M144 185h-59l-16 482h90zM114 -10c-29 0 -53 25 -53 54c0 28 24 53 53 53s54 -25 54 -53c0 -29 -25 -54 -54 -54z" />
    <glyph glyph-name="quotedbl" unicode="&#x22;" horiz-adv-x="340" 
d="M117 414h-37s-26 204 -26 219c0 24 20 44 45 44c24 0 44 -20 44 -44c0 -15 -26 -219 -26 -219zM259 414h-36s-26 204 -26 219c0 24 19 44 44 44s45 -20 45 -44c0 -15 -27 -219 -27 -219z" />
    <glyph glyph-name="numbersign" unicode="#" horiz-adv-x="507" 
d="M263 0h-59l53 182h-92l-51 -182h-59l52 182h-88l14 51h89l56 201h-88l12 51h91l51 182h59l-51 -182h90l51 182h59l-52 -182h88l-13 -51h-89l-57 -201h91l-14 -51h-92zM270 233l57 201h-90l-57 -201h90z" />
    <glyph glyph-name="dollar" unicode="$" horiz-adv-x="469" 
d="M213 -100v89c-79 4 -139 35 -182 83l44 61c31 -37 80 -68 138 -73v250c-79 38 -162 80 -162 193c0 92 66 161 162 173v92h59v-91c61 -6 111 -30 149 -70l-41 -60c-30 33 -67 51 -108 57v-227c79 -39 162 -86 162 -203c0 -88 -52 -168 -162 -183v-91h-59zM353 169
c0 55 -35 86 -81 112v-217c55 14 81 58 81 105zM132 507c0 -48 35 -76 81 -101v198c-48 -10 -81 -47 -81 -97z" />
    <glyph glyph-name="percent" unicode="%" horiz-adv-x="650" 
d="M171 348c-85 0 -141 71 -141 164c0 94 56 165 141 165s140 -71 140 -165c0 -93 -55 -164 -140 -164zM175 0h-47l350 667h48zM480 -12c-85 0 -141 70 -141 163c0 94 56 166 141 166c84 0 141 -72 141 -166c0 -93 -57 -163 -141 -163zM171 397c51 0 84 51 84 115
c0 66 -33 116 -84 116s-85 -50 -85 -116c0 -64 34 -115 85 -115zM480 37c52 0 85 50 85 114c0 66 -33 117 -85 117s-85 -51 -85 -117c0 -64 33 -114 85 -114z" />
    <glyph glyph-name="ampersand" unicode="&#x26;" horiz-adv-x="522" 
d="M505 0h-90c-16 19 -35 42 -54 66c-40 -47 -91 -78 -156 -78c-94 0 -168 64 -168 180c0 102 58 157 120 202c-26 53 -44 105 -44 149c0 93 58 158 138 158c71 0 126 -50 126 -130c0 -98 -69 -144 -136 -191c20 -35 41 -68 59 -93c21 -32 40 -60 60 -86
c26 53 43 110 53 149l61 -27c-18 -59 -41 -122 -72 -176c30 -38 63 -76 103 -123zM214 48c43 0 79 27 109 67c-30 38 -57 75 -74 102c-21 31 -42 65 -62 99c-42 -35 -74 -78 -74 -144c0 -80 47 -124 101 -124zM184 518c0 -33 12 -72 30 -110c53 36 97 74 97 137
c0 51 -26 76 -58 76c-41 0 -69 -36 -69 -103z" />
    <glyph glyph-name="quoteright" unicode="&#x2019;" horiz-adv-x="229" 
d="M173 603c0 -61 -35 -117 -80 -149l-36 30c32 21 60 61 64 93c-2 -1 -8 -2 -13 -2c-27 0 -47 21 -47 50c0 28 22 52 52 52c32 0 60 -27 60 -74z" />
    <glyph glyph-name="parenleft" unicode="(" horiz-adv-x="229" 
d="M211 -171l-47 -28c-77 130 -118 281 -118 442s41 312 118 442l47 -27c-53 -127 -86 -247 -86 -415c0 -167 33 -288 86 -414z" />
    <glyph glyph-name="parenright" unicode=")" horiz-adv-x="229" 
d="M18 -171l47 -28c76 130 118 281 118 442s-42 312 -118 442l-47 -27c53 -127 86 -247 86 -415c0 -167 -33 -288 -86 -414z" />
    <glyph glyph-name="asterisk" unicode="*" horiz-adv-x="322" 
d="M183 391h-44l5 115l-96 -63l-22 38l102 53l-102 52l22 38l96 -62l-5 115h44l-6 -115l97 62l22 -38l-102 -52l102 -53l-22 -38l-97 63z" />
    <glyph glyph-name="plus" unicode="+" horiz-adv-x="438" 
d="M409 312h-162v-184h-55v184h-163v51h163v177h55v-177h162v-51z" />
    <glyph glyph-name="comma" unicode="," horiz-adv-x="229" 
d="M173 22c0 -60 -35 -116 -80 -148l-36 29c32 22 60 61 64 93c-2 0 -8 -1 -13 -1c-27 0 -47 21 -47 49c0 29 22 53 52 53c32 0 60 -27 60 -75z" />
    <glyph glyph-name="hyphen" unicode="-" horiz-adv-x="268" 
d="M238 210h-208v64h208v-64z" />
    <glyph glyph-name="period" unicode="." horiz-adv-x="229" 
d="M114 -10c-29 0 -53 25 -53 54c0 28 24 53 53 53s54 -25 54 -53c0 -29 -25 -54 -54 -54z" />
    <glyph glyph-name="slash" unicode="/" horiz-adv-x="248" 
d="M56 -20h-56l192 707h56z" />
    <glyph glyph-name="zero" unicode="0" horiz-adv-x="514" 
d="M257 -12c-156 0 -210 185 -210 345c0 161 54 344 210 344s210 -183 210 -344c0 -160 -54 -345 -210 -345zM257 59c102 0 128 143 128 274c0 132 -25 273 -128 273s-128 -141 -128 -273c0 -131 25 -274 128 -274z" />
    <glyph glyph-name="one" unicode="1" horiz-adv-x="315" 
d="M245 0h-79v562l-103 -110l-48 50l160 165h70v-667z" />
    <glyph glyph-name="two" unicode="2" horiz-adv-x="491" 
d="M431 0h-379v65c218 249 296 331 296 429c0 72 -52 112 -109 112c-62 0 -109 -31 -141 -84l-53 48c45 68 110 107 195 107c103 0 188 -66 188 -182c0 -113 -86 -214 -263 -424h266v-71z" />
    <glyph glyph-name="three" unicode="3" horiz-adv-x="474" 
d="M227 -12c-94 0 -164 50 -198 111l53 47c30 -51 79 -87 143 -87c81 0 122 50 122 127c0 91 -61 121 -129 121c-20 0 -43 0 -52 -1v73c9 -1 33 -1 51 -1c67 0 121 35 121 111c0 78 -49 117 -115 117c-59 0 -101 -30 -136 -79l-50 45c40 64 108 105 191 105
c108 0 189 -59 189 -177c0 -83 -59 -141 -119 -155c58 -9 128 -69 128 -165c0 -111 -71 -192 -199 -192z" />
    <glyph glyph-name="four" unicode="4" horiz-adv-x="463" 
d="M366 0h-79v171h-264v69l242 427h101v-426h74v-70h-74v-171zM287 241v339l-191 -339h191z" />
    <glyph glyph-name="five" unicode="5" horiz-adv-x="493" 
d="M249 -12c-98 0 -156 42 -197 109l53 48c33 -55 76 -86 141 -86c74 0 121 67 121 146c0 94 -46 146 -116 146c-47 0 -83 -17 -121 -63l-59 21v358h341v-71h-262v-233c26 32 71 58 124 58c96 0 174 -76 174 -215c0 -126 -83 -218 -199 -218z" />
    <glyph glyph-name="six" unicode="6" horiz-adv-x="493" 
d="M259 -12c-160 0 -212 167 -212 345c0 179 65 344 226 344c70 0 123 -33 156 -83l-44 -56c-26 42 -57 68 -111 68c-107 0 -146 -140 -146 -266v-21c23 48 79 99 148 99c97 0 175 -71 175 -213c0 -113 -69 -217 -192 -217zM255 59c80 0 115 75 115 144
c0 105 -51 146 -115 146c-55 0 -100 -48 -126 -102c5 -75 32 -188 126 -188z" />
    <glyph glyph-name="seven" unicode="7" horiz-adv-x="424" 
d="M184 0h-85l210 596h-283v71h373v-55z" />
    <glyph glyph-name="eight" unicode="8" horiz-adv-x="487" 
d="M244 -12c-118 0 -199 67 -199 177c0 88 68 154 133 179c-60 22 -123 78 -123 163c0 116 93 170 189 170c95 0 189 -54 189 -170c0 -85 -63 -141 -124 -163c66 -25 133 -91 133 -179c0 -110 -81 -177 -198 -177zM244 374c26 6 109 40 109 122c0 68 -45 110 -109 110
c-65 0 -109 -42 -109 -110c0 -82 83 -116 109 -122zM244 59c63 0 118 42 118 115c0 89 -91 133 -118 137c-28 -4 -118 -48 -118 -137c0 -73 53 -115 118 -115z" />
    <glyph glyph-name="nine" unicode="9" horiz-adv-x="493" 
d="M220 -11c-70 0 -122 33 -155 83l44 56c25 -42 56 -68 111 -68c108 0 146 141 146 266c0 9 0 12 -1 21c-23 -48 -78 -99 -147 -99c-97 0 -176 71 -176 213c0 113 69 217 193 217c159 0 211 -167 211 -345c0 -179 -64 -344 -226 -344zM238 317c55 0 101 48 126 102
c-5 75 -31 188 -125 188c-81 0 -116 -75 -116 -144c0 -105 52 -146 115 -146z" />
    <glyph glyph-name="colon" unicode=":" horiz-adv-x="226" 
d="M114 384c-29 0 -53 24 -53 52c0 30 24 54 53 54s54 -24 54 -54c0 -28 -25 -52 -54 -52zM114 -10c-29 0 -53 25 -53 54c0 28 24 53 53 53s54 -25 54 -53c0 -29 -25 -54 -54 -54z" />
    <glyph glyph-name="semicolon" unicode=";" horiz-adv-x="228" 
d="M114 384c-29 0 -53 24 -53 53s24 53 53 53s54 -24 54 -53s-25 -53 -54 -53zM173 24c0 -61 -35 -116 -80 -148l-36 29c32 21 60 61 64 93c-2 0 -8 -2 -13 -2c-27 0 -47 21 -47 50c0 28 22 52 52 52c32 0 60 -27 60 -74z" />
    <glyph glyph-name="less" unicode="&#x3c;" horiz-adv-x="438" 
d="M409 125l-380 184v51l380 184v-60l-318 -150l318 -148v-61z" />
    <glyph glyph-name="equal" unicode="=" horiz-adv-x="438" 
d="M409 405h-380v51h380v-51zM409 212h-380v51h380v-51z" />
    <glyph glyph-name="greater" unicode="&#x3e;" horiz-adv-x="438" 
d="M409 309l-380 -184v61l318 148l-318 150v60l380 -184v-51z" />
    <glyph glyph-name="question" unicode="?" horiz-adv-x="388" 
d="M169 184c-23 23 -33 51 -33 83c0 123 144 141 144 250c0 46 -34 90 -97 90c-52 0 -85 -21 -114 -58l-41 52c40 48 97 76 166 76c102 0 166 -65 166 -148c0 -141 -154 -167 -154 -267c0 -18 9 -39 23 -51zM192 -10c-29 0 -54 25 -54 54c0 28 25 53 54 53s53 -25 53 -53
c0 -29 -24 -54 -53 -54z" />
    <glyph glyph-name="at" unicode="@" horiz-adv-x="693" 
d="M308 -70c-161 0 -273 123 -273 300c0 216 171 408 364 408c154 0 258 -116 258 -281s-81 -272 -160 -272c-50 0 -80 34 -83 76l-1 6c-29 -44 -76 -82 -134 -82c-68 0 -122 47 -122 143c0 138 95 271 210 271c52 0 86 -34 100 -75l12 59h65l-58 -274c-1 -6 -2 -17 -2 -22
c0 -35 15 -50 38 -50c34 0 100 68 100 220s-91 247 -225 247c-177 0 -327 -183 -327 -373c0 -157 98 -268 242 -268c63 0 114 22 162 56l17 -26c-55 -40 -117 -63 -183 -63zM302 139c56 0 95 46 121 85l32 150c-8 32 -33 71 -78 71c-90 0 -151 -117 -151 -211
c0 -57 26 -95 76 -95z" />
    <glyph glyph-name="A" unicode="A" horiz-adv-x="512" 
d="M504 0h-86l-43 151h-238l-43 -151h-86l201 667h95zM358 222l-102 357l-102 -357h204z" />
    <glyph glyph-name="B" unicode="B" horiz-adv-x="517" 
d="M298 0h-228v667h222c105 0 165 -69 165 -170c0 -84 -45 -137 -102 -153c65 -10 113 -84 113 -164c0 -108 -58 -180 -170 -180zM277 377c68 0 98 47 98 109s-30 110 -98 110h-127v-219h127zM281 71c70 0 105 44 105 117c0 63 -33 118 -105 118h-131v-235h131z" />
    <glyph glyph-name="C" unicode="C" horiz-adv-x="534" 
d="M307 -12c-160 0 -260 145 -260 345s100 345 260 345c101 0 159 -61 196 -130l-66 -32c-27 55 -71 91 -130 91c-109 0 -178 -115 -178 -274c0 -158 69 -274 178 -274c61 0 106 42 131 99l66 -31c-37 -74 -94 -139 -197 -139z" />
    <glyph glyph-name="D" unicode="D" horiz-adv-x="565" 
d="M248 0h-178v667h178c174 0 270 -144 270 -334c0 -191 -96 -333 -270 -333zM248 71c124 0 187 112 187 262c0 151 -62 263 -187 263h-98v-525h98z" />
    <glyph glyph-name="E" unicode="E" horiz-adv-x="462" 
d="M413 0h-343v667h343v-71h-263v-219h256v-71h-256v-235h263v-71z" />
    <glyph glyph-name="F" unicode="F" horiz-adv-x="451" 
d="M150 0h-80v667h343v-71h-263v-219h256v-71h-256v-306z" />
    <glyph glyph-name="G" unicode="G" horiz-adv-x="564" 
d="M307 -12c-157 0 -260 139 -260 345s103 345 260 345c98 0 159 -55 199 -126l-64 -33c-29 52 -74 88 -135 88c-107 0 -178 -110 -178 -274c0 -163 71 -274 178 -274c57 0 102 27 126 57v155h-161v70h236v-256c-48 -61 -117 -97 -201 -97z" />
    <glyph glyph-name="H" unicode="H" horiz-adv-x="575" 
d="M505 0h-79v308h-276v-308h-80v667h80v-289h276v289h79v-667z" />
    <glyph glyph-name="I" unicode="I" horiz-adv-x="220" 
d="M150 0h-80v667h80v-667z" />
    <glyph glyph-name="J" unicode="J" horiz-adv-x="399" 
d="M149 -12c-55 0 -102 18 -140 61l36 62c24 -31 57 -52 98 -52c66 0 106 42 106 115v493h80v-495c0 -126 -77 -184 -180 -184z" />
    <glyph glyph-name="K" unicode="K" horiz-adv-x="510" 
d="M496 0h-95l-195 294l-56 -81v-213h-80v667h80v-346l233 346h95l-224 -316z" />
    <glyph glyph-name="L" unicode="L" horiz-adv-x="414" 
d="M386 0h-322v667h80v-596h242v-71z" />
    <glyph glyph-name="M" unicode="M" horiz-adv-x="684" 
d="M614 0h-79v540l-177 -540h-31l-177 540v-540h-80v667h111l161 -491l163 491h109v-667z" />
    <glyph glyph-name="N" unicode="N" horiz-adv-x="573" 
d="M503 0h-76l-277 508v-508h-80v667h80l274 -498v498h79v-667z" />
    <glyph glyph-name="O" unicode="O" horiz-adv-x="601" 
d="M300 -12c-162 0 -253 152 -253 345s91 345 253 345c163 0 254 -152 254 -345s-91 -345 -254 -345zM300 59c111 0 172 122 172 274c0 154 -61 274 -172 274s-171 -120 -171 -274c0 -152 60 -274 171 -274z" />
    <glyph glyph-name="P" unicode="P" horiz-adv-x="488" 
d="M150 0h-80v667h203c123 0 185 -92 185 -200s-63 -200 -185 -200h-123v-267zM265 338c69 0 111 53 111 129s-42 129 -111 129h-115v-258h115z" />
    <glyph glyph-name="Q" unicode="Q" horiz-adv-x="601" 
d="M300 -12c-162 0 -253 152 -253 345s91 345 253 345c163 0 254 -152 254 -345c0 -112 -30 -209 -87 -272l38 -58l-56 -36l-34 52c-33 -20 -71 -31 -115 -31zM300 59c28 0 53 8 74 22l-79 123l58 35l69 -108c33 50 50 122 50 202c0 154 -61 274 -172 274
s-171 -120 -171 -274c0 -152 60 -274 171 -274z" />
    <glyph glyph-name="R" unicode="R" horiz-adv-x="510" 
d="M465 0h-90l-129 267h-96v-267h-80v667h204c107 0 184 -77 184 -199c0 -119 -67 -177 -133 -189zM265 337c69 0 111 54 111 130s-42 129 -111 129h-115v-259h115z" />
    <glyph glyph-name="S" unicode="S" horiz-adv-x="472" 
d="M229 -12c-87 0 -154 33 -200 84l44 61c34 -41 90 -74 156 -74c84 0 122 53 122 110c0 162 -302 119 -302 334c0 102 81 175 192 175c74 0 135 -25 178 -71l-41 -60c-37 41 -86 60 -139 60c-62 0 -109 -40 -109 -100c0 -141 302 -110 302 -333c0 -98 -64 -186 -203 -186z
" />
    <glyph glyph-name="T" unicode="T" horiz-adv-x="447" 
d="M263 0h-79v596h-159v71h397v-71h-159v-596z" />
    <glyph glyph-name="U" unicode="U" horiz-adv-x="569" 
d="M285 -12c-134 0 -215 81 -215 228v451h80v-451c0 -104 49 -157 135 -157c85 0 134 53 134 157v451h80v-451c0 -147 -80 -228 -214 -228z" />
    <glyph glyph-name="V" unicode="V" horiz-adv-x="512" 
d="M304 0h-95l-201 667h86l162 -571l162 571h86z" />
    <glyph glyph-name="W" unicode="W" horiz-adv-x="717" 
d="M552 0h-85l-109 526l-109 -526h-84l-149 667h85l110 -543l114 543h67l114 -543l110 543h85z" />
    <glyph glyph-name="X" unicode="X" horiz-adv-x="512" 
d="M504 0h-92l-156 276l-156 -276h-92l200 341l-189 326h93l144 -262l144 262h93l-189 -326z" />
    <glyph glyph-name="Y" unicode="Y" horiz-adv-x="501" 
d="M290 0h-79v282l-206 385h89l157 -308l157 308h88l-206 -385v-282z" />
    <glyph glyph-name="Z" unicode="Z" horiz-adv-x="463" 
d="M423 0h-383v68l281 528h-281v71h376v-66l-282 -530h289v-71z" />
    <glyph glyph-name="bracketleft" unicode="[" horiz-adv-x="212" 
d="M195 -190h-158v868h158v-53h-102v-762h102v-53z" />
    <glyph glyph-name="backslash" unicode="\" horiz-adv-x="248" 
d="M192 -20l-192 707h57l192 -707h-57z" />
    <glyph glyph-name="bracketright" unicode="]" horiz-adv-x="212" 
d="M175 -190h-158v53h102v762h-102v53h158v-868z" />
    <glyph glyph-name="asciicircum" unicode="^" horiz-adv-x="381" 
d="M362 333h-58l-114 277l-113 -277h-58l144 334h55z" />
    <glyph glyph-name="underscore" unicode="_" horiz-adv-x="422" 
d="M425 -93h-428v53h428v-53z" />
    <glyph glyph-name="quoteleft" unicode="&#x2018;" horiz-adv-x="229" 
d="M53 529c0 60 34 116 79 148l36 -29c-32 -21 -60 -61 -63 -93c1 0 8 2 12 2c28 0 48 -22 48 -50s-23 -52 -52 -52c-32 0 -60 27 -60 74z" />
    <glyph glyph-name="a" unicode="a" horiz-adv-x="452" 
d="M387 0h-72v53c-31 -45 -79 -65 -128 -65c-78 0 -146 60 -146 161s68 159 146 159c50 0 97 -19 128 -63v85c0 66 -36 103 -99 103c-45 0 -84 -17 -122 -59l-32 50c46 49 103 71 165 71c95 0 160 -48 160 -157v-338zM211 40c41 0 81 18 104 60v95c-23 43 -63 61 -104 61
c-61 0 -97 -48 -97 -108s36 -108 97 -108z" />
    <glyph glyph-name="b" unicode="b" horiz-adv-x="481" 
d="M137 130c19 -42 64 -78 110 -78c79 0 116 85 116 189c0 105 -37 190 -116 190c-46 0 -91 -38 -110 -80v-221zM137 0h-71v667h71v-254c30 54 78 82 128 82c109 0 173 -103 173 -254c0 -152 -64 -253 -173 -253c-51 0 -100 32 -128 81v-69z" />
    <glyph glyph-name="c" unicode="c" horiz-adv-x="407" 
d="M243 -12c-125 0 -201 111 -201 254s76 253 201 253c67 0 108 -27 138 -64l-39 -49c-26 35 -56 49 -93 49c-86 0 -132 -86 -132 -189s46 -190 132 -190c37 0 67 15 93 49l39 -49c-30 -38 -71 -64 -138 -64z" />
    <glyph glyph-name="d" unicode="d" horiz-adv-x="481" 
d="M415 0h-72v69c-28 -49 -76 -81 -127 -81c-109 0 -174 101 -174 253c0 151 65 254 174 254c50 0 98 -28 127 -82v254h72v-667zM234 52c46 0 91 36 109 78v222c-18 42 -63 79 -109 79c-79 0 -117 -85 -117 -190c0 -104 38 -189 117 -189z" />
    <glyph glyph-name="e" unicode="e" horiz-adv-x="469" 
d="M250 -12c-129 0 -208 106 -208 254c0 140 74 253 197 253c128 0 191 -114 191 -255v-22h-314c3 -97 53 -170 140 -170c42 0 85 21 115 60l38 -43c-39 -48 -94 -77 -159 -77zM359 272c-1 73 -33 163 -122 163c-85 0 -119 -93 -121 -163h243z" />
    <glyph glyph-name="f" unicode="f" horiz-adv-x="253" 
d="M155 0h-72v420h-64v63h64v58c0 85 46 136 121 136c32 0 62 -8 86 -32l-28 -53c-13 14 -28 21 -46 21c-41 0 -61 -27 -61 -72v-58h81v-63h-81v-420z" />
    <glyph glyph-name="g" unicode="g" horiz-adv-x="481" 
d="M224 -196c-65 0 -115 15 -162 61l33 59c33 -38 74 -56 126 -56c67 0 122 37 122 129v80c-28 -49 -76 -83 -127 -83c-109 0 -174 98 -174 250c0 151 65 251 174 251c50 0 98 -28 127 -82v70h72v-486c0 -145 -90 -193 -191 -193zM234 58c46 0 90 38 109 80v214
c-19 42 -63 79 -109 79c-79 0 -117 -83 -117 -187s38 -186 117 -186z" />
    <glyph glyph-name="h" unicode="h" horiz-adv-x="466" 
d="M400 0h-72v345c0 64 -29 86 -77 86s-92 -38 -114 -77v-354h-71v667h71v-253c28 42 83 81 141 81c82 0 122 -41 122 -130v-365z" />
    <glyph glyph-name="i" unicode="i" horiz-adv-x="203" 
d="M101 553c-26 0 -49 22 -49 49s23 49 49 49c28 0 49 -22 49 -49s-21 -49 -49 -49zM137 0h-71v483h71v-483z" />
    <glyph glyph-name="j" unicode="j" horiz-adv-x="203" 
d="M101 553c-26 0 -49 22 -49 49s23 49 49 49c28 0 49 -22 49 -49s-21 -49 -49 -49zM16 -196c-37 0 -60 11 -81 34l26 55c11 -15 27 -25 49 -25c32 0 56 20 56 73v542h71v-542c0 -93 -42 -137 -121 -137z" />
    <glyph glyph-name="k" unicode="k" horiz-adv-x="439" 
d="M424 0h-85l-133 218l-69 -87v-131h-71v667h71v-446l202 262h84l-168 -217z" />
    <glyph glyph-name="l" unicode="l" horiz-adv-x="203" 
d="M137 0h-71v667h71v-667z" />
    <glyph glyph-name="m" unicode="m" horiz-adv-x="693" 
d="M627 0h-72v349c0 53 -21 82 -67 82c-44 0 -86 -38 -106 -77v-354h-72v349c0 52 -20 82 -67 82c-44 0 -85 -38 -106 -77v-354h-71v483h71v-69c20 36 75 81 133 81c62 0 100 -35 108 -86c24 44 79 86 137 86c71 0 112 -39 112 -126v-369z" />
    <glyph glyph-name="n" unicode="n" horiz-adv-x="466" 
d="M400 0h-72v343c0 65 -29 88 -77 88s-92 -38 -114 -77v-354h-71v483h71v-69c28 42 83 81 141 81c82 0 122 -44 122 -131v-364z" />
    <glyph glyph-name="o" unicode="o" horiz-adv-x="478" 
d="M239 -12c-129 0 -197 118 -197 254s68 253 197 253c130 0 197 -117 197 -253s-67 -254 -197 -254zM239 52c85 0 122 92 122 190c0 97 -37 189 -122 189c-84 0 -121 -92 -121 -189c0 -98 37 -190 121 -190z" />
    <glyph glyph-name="p" unicode="p" horiz-adv-x="479" 
d="M265 -12c-50 0 -98 28 -128 82v-254h-71v667h71v-69c28 49 77 81 128 81c109 0 173 -101 173 -253c0 -151 -64 -254 -173 -254zM247 52c79 0 116 85 116 190c0 104 -37 189 -116 189c-46 0 -91 -36 -110 -78v-221c19 -42 64 -80 110 -80z" />
    <glyph glyph-name="q" unicode="q" horiz-adv-x="479" 
d="M232 52c46 0 91 38 110 80v221c-19 42 -64 78 -110 78c-79 0 -116 -85 -116 -189c0 -105 37 -190 116 -190zM214 -12c-109 0 -173 103 -173 254c0 152 64 253 173 253c52 0 100 -32 128 -81v69h72v-667h-72v254c-30 -54 -78 -82 -128 -82z" />
    <glyph glyph-name="r" unicode="r" horiz-adv-x="291" 
d="M137 0h-71v483h71v-77c31 51 78 87 137 87v-73c-8 1 -16 2 -24 2c-44 0 -93 -38 -113 -79v-343z" />
    <glyph glyph-name="s" unicode="s" horiz-adv-x="388" 
d="M191 -12c-69 0 -124 22 -164 69l36 50c28 -34 74 -61 126 -61c57 0 93 32 93 78c0 113 -241 73 -241 241c0 72 58 130 154 130c65 0 114 -25 148 -62l-34 -49c-24 32 -65 53 -113 53c-53 0 -86 -31 -86 -70c0 -103 242 -67 242 -241c0 -80 -62 -138 -161 -138z" />
    <glyph glyph-name="t" unicode="t" horiz-adv-x="263" 
d="M176 -12c-65 0 -96 38 -96 109v323h-64v63h64v132h72v-132h81v-63h-81v-310c0 -36 11 -58 39 -58c18 0 33 8 42 19l22 -54c-18 -17 -42 -29 -79 -29z" />
    <glyph glyph-name="u" unicode="u" horiz-adv-x="465" 
d="M400 0h-72v67c-29 -42 -81 -79 -140 -79c-83 0 -122 42 -122 130v365h71v-344c0 -65 30 -87 78 -87c47 0 91 36 113 75v356h72v-483z" />
    <glyph glyph-name="v" unicode="v" horiz-adv-x="409" 
d="M244 0h-79l-159 483h78l121 -397l121 397h77z" />
    <glyph glyph-name="w" unicode="w" horiz-adv-x="639" 
d="M497 0h-73l-104 388l-104 -388h-73l-130 483h75l95 -386l102 386h67l104 -386l95 386h76z" />
    <glyph glyph-name="x" unicode="x" horiz-adv-x="407" 
d="M395 0h-80l-111 194l-112 -194h-80l148 246l-140 237h80l104 -184l103 184h80l-140 -237z" />
    <glyph glyph-name="y" unicode="y" horiz-adv-x="409" 
d="M41 -189l12 64c8 -5 23 -7 32 -7c27 0 44 11 57 48l25 74l-161 493h78l121 -396l121 396h77l-194 -584c-23 -71 -62 -95 -120 -95c-14 0 -37 3 -48 7z" />
    <glyph glyph-name="z" unicode="z" horiz-adv-x="388" 
d="M345 0h-302v56l210 364h-210v63h298v-55l-210 -365h214v-63z" />
    <glyph glyph-name="braceleft" unicode="{" horiz-adv-x="231" 
d="M214 -190h-46c-56 0 -110 47 -110 119v221c0 37 -17 70 -52 70v48c35 0 52 33 52 70v221c0 72 54 119 110 119h46v-53h-46c-29 0 -54 -27 -54 -66v-227c0 -42 -12 -74 -45 -88c33 -14 45 -46 45 -88v-227c0 -38 25 -66 54 -66h46v-53z" />
    <glyph glyph-name="bar" unicode="|" horiz-adv-x="194" 
d="M124 -20h-54v707h54v-707z" />
    <glyph glyph-name="braceright" unicode="}" horiz-adv-x="231" 
d="M17 -190v53h46c29 0 54 28 54 66v227c0 42 12 74 45 88c-33 14 -45 46 -45 88v227c0 39 -25 66 -54 66h-46v53h46c56 0 111 -47 111 -119v-221c0 -37 17 -70 52 -70v-48c-35 0 -52 -33 -52 -70v-221c0 -72 -55 -119 -111 -119h-46z" />
    <glyph glyph-name="asciitilde" unicode="~" horiz-adv-x="449" 
d="M368 667l54 -5c-9 -110 -29 -238 -123 -238c-112 0 -82 191 -148 191c-43 0 -59 -69 -69 -192l-55 6c9 110 30 237 124 237c112 0 81 -192 148 -192c42 0 58 68 69 193z" />
    <glyph glyph-name="exclamdown" unicode="&#xa1;" horiz-adv-x="228" 
d="M69 -184l15 482h60l15 -482h-90zM61 439c0 29 24 54 53 54s54 -25 54 -54c0 -28 -25 -53 -54 -53s-53 25 -53 53z" />
    <glyph glyph-name="cent" unicode="&#xa2;" horiz-adv-x="407" 
d="M204 -100v92c-102 20 -162 122 -162 250c0 127 60 229 162 249v74h57v-71c56 -4 93 -30 120 -63l-39 -49c-23 31 -50 45 -81 48v-378c31 3 58 19 81 49l39 -49c-27 -35 -64 -59 -120 -63v-89h-57zM117 242c0 -84 30 -156 87 -181v361c-57 -25 -87 -97 -87 -180z" />
    <glyph glyph-name="sterling" unicode="&#xa3;" horiz-adv-x="450" 
d="M25 270v52h86c-30 43 -63 87 -63 162c0 105 83 193 191 193c81 0 144 -42 170 -113l-63 -34c-15 43 -49 80 -101 80c-59 0 -112 -47 -112 -128c0 -76 38 -114 66 -160h113v-52h-90c4 -14 6 -30 6 -47c0 -56 -32 -107 -71 -138c14 6 31 10 45 10c54 0 78 -37 124 -37
c36 0 68 20 81 37l31 -62c-22 -26 -66 -46 -117 -46c-77 0 -89 44 -149 44c-29 0 -63 -15 -98 -38l-28 59c69 37 110 96 110 156c0 23 -6 43 -14 62h-117z" />
    <glyph glyph-name="fraction" unicode="&#x2044;" horiz-adv-x="127" 
d="M262 667l-350 -667h-47l349 667h48z" />
    <glyph glyph-name="fraction" unicode="&#x2215;" horiz-adv-x="127" 
d="M262 667l-350 -667h-47l349 667h48z" />
    <glyph glyph-name="yen" unicode="&#xa5;" horiz-adv-x="501" 
d="M290 0h-79v123h-189v51h189v108h-189v51h161l-178 334h89l157 -308l157 308h88l-179 -334h161v-51h-188v-108h188v-51h-188v-123z" />
    <glyph glyph-name="florin" unicode="&#x192;" horiz-adv-x="398" 
d="M104 -161h-80l92 416h-58v65h72l50 227c18 79 78 130 151 130c30 0 57 -7 79 -30l-33 -59c-10 13 -22 18 -40 18c-40 0 -69 -28 -79 -74l-47 -212h115v-65h-129z" />
    <glyph glyph-name="section" unicode="&#xa7;" horiz-adv-x="390" 
d="M352 307c0 -50 -27 -96 -83 -121c53 -31 83 -68 83 -128c0 -83 -67 -139 -161 -139c-79 0 -126 28 -163 69l35 48c23 -28 67 -62 125 -62c56 0 94 34 94 81c0 118 -241 79 -241 244c0 59 42 105 100 119c-67 34 -100 74 -100 132c0 73 61 127 151 127
c73 0 119 -27 151 -63l-34 -44c-32 38 -71 53 -113 53c-51 0 -86 -29 -86 -73c0 -109 242 -71 242 -243zM284 297c0 57 -47 82 -85 97c-72 -16 -91 -51 -91 -86c0 -50 45 -73 108 -100c45 21 68 50 68 89z" />
    <glyph glyph-name="currency" unicode="&#xa4;" horiz-adv-x="522" 
d="M486 137l-29 -29l-56 57c-39 -33 -90 -51 -140 -51c-51 0 -101 18 -140 51l-57 -57l-28 29l56 56c-32 40 -50 90 -50 140c0 51 18 101 50 140l-56 57l28 28l57 -56c39 33 89 50 140 50c50 0 101 -18 140 -50l56 56l29 -28l-56 -57c32 -39 50 -89 50 -140
c0 -50 -18 -100 -50 -140zM432 333c0 95 -77 171 -171 171s-171 -76 -171 -171c0 -94 77 -171 171 -171s171 77 171 171z" />
    <glyph glyph-name="quotesingle" unicode="'" horiz-adv-x="197" 
d="M117 414h-37s-26 204 -26 219c0 24 20 44 45 44c24 0 44 -20 44 -44c0 -15 -26 -219 -26 -219z" />
    <glyph glyph-name="quotedblleft" unicode="&#x201c;" horiz-adv-x="386" 
d="M56 529c0 60 35 116 79 148l37 -29c-32 -21 -60 -61 -64 -93c1 0 8 2 13 2c27 0 47 -22 47 -50s-23 -52 -52 -52c-32 0 -60 27 -60 74zM213 529c0 60 35 116 80 148l36 -29c-32 -21 -60 -61 -63 -93c1 0 8 2 12 2c27 0 47 -22 47 -50s-22 -52 -52 -52
c-32 0 -60 27 -60 74z" />
    <glyph glyph-name="guillemotleft" unicode="&#xab;" horiz-adv-x="382" 
d="M352 63h-67l-125 180l125 177h67l-125 -177zM222 63h-67l-125 180l125 177h67l-125 -177z" />
    <glyph glyph-name="guilsinglleft" unicode="&#x2039;" horiz-adv-x="252" 
d="M222 63h-67l-125 180l125 177h67l-125 -177z" />
    <glyph glyph-name="guilsinglright" unicode="&#x203a;" horiz-adv-x="252" 
d="M222 243l-125 -180h-67l125 180l-125 177h67z" />
    <glyph glyph-name="endash" unicode="&#x2013;" horiz-adv-x="527" 
d="M497 210h-467v64h467v-64z" />
    <glyph glyph-name="dagger" unicode="&#x2020;" horiz-adv-x="262" 
d="M239 532l-89 4l4 -209h-47l5 209l-89 -4v42l89 -3l-5 106h47l-4 -106l89 3v-42z" />
    <glyph glyph-name="daggerdbl" unicode="&#x2021;" horiz-adv-x="262" 
d="M239 574v-42l-89 4v-214l89 4v-42l-89 3l4 -107h-47l4 107l-88 -3v42l88 -4v214l-88 -4v42l88 -3l-4 106h47l-4 -106z" />
    <glyph glyph-name="periodcentered" unicode="&#xb7;" horiz-adv-x="229" 
d="M168 245c0 -29 -25 -54 -54 -54s-53 25 -53 54c0 28 24 53 53 53s54 -25 54 -53z" />
    <glyph glyph-name="periodcentered" unicode="&#x2219;" horiz-adv-x="229" 
d="M168 245c0 -29 -25 -54 -54 -54s-53 25 -53 54c0 28 24 53 53 53s54 -25 54 -53z" />
    <glyph glyph-name="paragraph" unicode="&#xb6;" horiz-adv-x="449" 
d="M376 -100h-43v723h-90v-723h-44v423c-95 0 -172 77 -172 172s77 172 172 172h177v-767z" />
    <glyph glyph-name="bullet" unicode="&#x2022;" horiz-adv-x="358" 
d="M287 242c0 -58 -48 -106 -107 -106s-107 48 -107 106c0 59 48 107 107 107s107 -48 107 -107z" />
    <glyph glyph-name="quotesinglbase" unicode="&#x201a;" horiz-adv-x="229" 
d="M173 22c0 -60 -35 -116 -80 -148l-36 29c32 22 60 61 64 93c-2 0 -8 -1 -13 -1c-27 0 -47 21 -47 49c0 29 22 53 52 53c32 0 60 -27 60 -75z" />
    <glyph glyph-name="quotedblbase" unicode="&#x201e;" horiz-adv-x="386" 
d="M173 22c0 -60 -35 -116 -80 -148l-36 29c32 22 60 61 64 93c-2 0 -8 -1 -13 -1c-27 0 -47 21 -47 49c0 29 22 53 52 53c32 0 60 -27 60 -75zM330 22c0 -60 -34 -116 -79 -148l-36 29c32 22 60 61 63 93c-1 0 -8 -1 -13 -1c-27 0 -47 21 -47 49c0 29 23 53 52 53
c32 0 60 -27 60 -75z" />
    <glyph glyph-name="quotedblright" unicode="&#x201d;" horiz-adv-x="386" 
d="M330 603c0 -61 -34 -117 -79 -149l-36 30c32 21 60 61 63 93c-1 -1 -8 -2 -13 -2c-27 0 -47 21 -47 50c0 28 23 52 52 52c32 0 60 -27 60 -74zM173 603c0 -61 -35 -117 -80 -149l-36 30c32 21 60 61 64 93c-2 -1 -8 -2 -13 -2c-27 0 -47 21 -47 50c0 28 22 52 52 52
c32 0 60 -27 60 -74z" />
    <glyph glyph-name="guillemotright" unicode="&#xbb;" horiz-adv-x="382" 
d="M222 243l-125 -180h-67l125 180l-125 177h67zM352 243l-125 -180h-67l125 180l-125 177h67z" />
    <glyph glyph-name="ellipsis" unicode="&#x2026;" horiz-adv-x="685" 
d="M168 44c0 -29 -25 -54 -54 -54s-53 25 -53 54c0 28 24 53 53 53s54 -25 54 -53zM396 44c0 -29 -24 -54 -53 -54c-30 0 -54 25 -54 54c0 28 24 53 54 53c29 0 53 -25 53 -53zM625 44c0 -29 -25 -54 -54 -54s-53 25 -53 54c0 28 24 53 53 53s54 -25 54 -53z" />
    <glyph glyph-name="perthousand" unicode="&#x2030;" horiz-adv-x="962" 
d="M311 512c0 -93 -55 -164 -140 -164s-141 71 -141 164c0 94 56 165 141 165s140 -71 140 -165zM526 667l-351 -667h-47l350 667h48zM621 151c0 -93 -57 -163 -141 -163c-85 0 -141 70 -141 163c0 94 56 166 141 166c84 0 141 -72 141 -166zM255 512c0 67 -33 118 -84 118
s-85 -51 -85 -118c0 -66 34 -116 85 -116s84 50 84 116zM565 151c0 68 -33 118 -85 118s-85 -50 -85 -118c0 -65 33 -116 85 -116s85 51 85 116zM932 151c0 -93 -57 -163 -141 -163s-141 70 -141 163c0 94 57 166 141 166s141 -72 141 -166zM876 151c0 68 -33 118 -85 118
s-85 -50 -85 -118c0 -65 33 -116 85 -116s85 51 85 116z" />
    <glyph glyph-name="questiondown" unicode="&#xbf;" horiz-adv-x="333" 
d="M219 297c23 -23 33 -51 33 -83c0 -123 -144 -141 -144 -250c0 -46 34 -90 97 -90c52 0 85 21 114 58l41 -52c-40 -49 -97 -77 -166 -77c-102 0 -166 66 -166 149c0 141 154 167 154 267c0 18 -9 39 -23 51zM196 493c29 0 54 -25 54 -54c0 -28 -25 -53 -54 -53
s-53 25 -53 53c0 29 24 54 53 54z" />
    <glyph glyph-name="grave" unicode="`" horiz-adv-x="186" 
d="M186 556h-51l-135 144h73z" />
    <glyph glyph-name="grave" unicode="&#x2cb;" horiz-adv-x="186" 
d="M186 556h-51l-135 144h73z" />
    <glyph glyph-name="acute" unicode="&#xb4;" horiz-adv-x="186" 
d="M186 700l-135 -144h-51l114 144h72z" />
    <glyph glyph-name="circumflex" unicode="&#x2c6;" horiz-adv-x="233" 
d="M233 556h-46l-72 105l-69 -105h-46l80 144h70z" />
    <glyph glyph-name="tilde" unicode="&#x2dc;" horiz-adv-x="270" 
d="M185 554c-64 0 -60 94 -102 94c-23 0 -41 -27 -41 -88h-42c0 76 28 134 85 134c64 0 61 -94 102 -94c24 0 41 27 41 88h42c0 -76 -28 -134 -85 -134z" />
    <glyph glyph-name="macron" unicode="&#xaf;" horiz-adv-x="306" 
d="M306 591h-306v46h306v-46z" />
    <glyph glyph-name="macron" unicode="&#x203e;" horiz-adv-x="306" 
d="M306 591h-306v46h306v-46z" />
    <glyph glyph-name="breve" unicode="&#x2d8;" horiz-adv-x="295" 
d="M295 638c-33 -46 -87 -75 -147 -75s-114 29 -148 75l37 30c24 -36 66 -58 111 -58s86 22 111 58z" />
    <glyph glyph-name="dotaccent" unicode="&#x2d9;" horiz-adv-x="108" 
d="M54 574c-24 0 -46 21 -46 46s22 45 46 45c25 0 45 -20 45 -45s-20 -46 -45 -46z" />
    <glyph glyph-name="dieresis" unicode="&#xa8;" horiz-adv-x="268" 
d="M266 604c0 -25 -20 -45 -45 -45s-45 20 -45 45c0 24 20 45 45 45s45 -21 45 -45zM92 604c0 -25 -21 -45 -45 -45c-25 0 -45 20 -45 45c0 24 20 45 45 45c24 0 45 -21 45 -45z" />
    <glyph glyph-name="ring" unicode="&#x2da;" horiz-adv-x="181" 
d="M91 555c-50 0 -91 41 -91 91s41 90 91 90s90 -40 90 -90s-40 -91 -90 -91zM91 593c29 0 52 23 52 53c0 29 -23 53 -52 53s-53 -24 -53 -53c0 -30 24 -53 53 -53z" />
    <glyph glyph-name="cedilla" unicode="&#xb8;" horiz-adv-x="185" 
d="M89 -191c-37 0 -69 14 -89 30l18 37c22 -19 45 -28 70 -28c28 0 54 15 54 42c0 21 -12 35 -33 35c-14 0 -25 -7 -33 -16l-32 18l30 84h44l-26 -66c9 7 20 10 33 10c34 0 60 -26 60 -66c0 -48 -42 -80 -96 -80z" />
    <glyph glyph-name="hungarumlaut" unicode="&#x2dd;" horiz-adv-x="269" 
d="M139 700l-96 -144h-43l75 144h64zM269 700l-97 -144h-43l75 144h65z" />
    <glyph glyph-name="ogonek" unicode="&#x2db;" horiz-adv-x="158" 
d="M122 -110l36 -19c-11 -31 -35 -57 -78 -57c-44 0 -80 25 -80 82c0 50 33 96 82 127l32 -23c-43 -25 -71 -58 -71 -102c0 -32 16 -46 37 -46c23 0 35 14 42 38z" />
    <glyph glyph-name="caron" unicode="&#x2c7;" horiz-adv-x="233" 
d="M153 556h-70l-83 144h46l72 -105l69 105h46z" />
    <glyph glyph-name="emdash" unicode="&#x2014;" horiz-adv-x="737" 
d="M707 210h-677v64h677v-64z" />
    <glyph glyph-name="AE" unicode="&#xc6;" horiz-adv-x="752" 
d="M704 0h-343v151h-195l-69 -151h-86l317 667h376v-71h-264v-219h257v-71h-257v-235h264v-71zM361 222v357l-166 -357h166z" />
    <glyph glyph-name="ordfeminine" unicode="&#xaa;" horiz-adv-x="329" 
d="M277 326h-56v34c-19 -26 -50 -42 -88 -42c-53 0 -99 39 -99 104c0 66 46 103 99 103c38 0 69 -15 88 -40v53c0 44 -28 65 -66 65c-28 0 -57 -10 -83 -41l-24 38c32 33 73 48 115 48c68 0 114 -33 114 -112v-210zM153 356c27 0 53 11 68 38v57c-15 27 -41 38 -68 38
c-39 0 -63 -28 -63 -66c0 -39 24 -67 63 -67z" />
    <glyph glyph-name="Lslash" unicode="&#x141;" horiz-adv-x="436" 
d="M16 234v69l70 40v324h80v-277l79 46v-69l-79 -46v-250h242v-71h-322v274z" />
    <glyph glyph-name="Oslash" unicode="&#xd8;" horiz-adv-x="601" 
d="M300 -12c-53 0 -98 16 -135 44l-18 -32h-59l38 70c-51 63 -79 157 -79 263c0 193 91 345 253 345c52 0 96 -16 133 -43l18 32h59l-38 -69c53 -63 82 -158 82 -265c0 -193 -91 -345 -254 -345zM300 59c111 0 172 122 172 274c0 74 -14 140 -41 188l-229 -421
c26 -26 59 -41 98 -41zM129 333c0 -72 13 -138 39 -186l228 420c-26 25 -58 40 -96 40c-111 0 -171 -120 -171 -274z" />
    <glyph glyph-name="OE" unicode="&#x152;" horiz-adv-x="852" 
d="M803 0h-343v94c-38 -76 -107 -106 -169 -106c-157 0 -244 152 -244 345c0 194 87 344 244 344c62 0 131 -29 169 -104v94h343v-71h-264v-219h257v-71h-257v-235h264v-71zM460 201v265c-27 91 -86 140 -158 140c-114 0 -173 -119 -173 -273c0 -153 59 -274 173 -274
c72 0 131 51 158 142z" />
    <glyph glyph-name="ordmasculine" unicode="&#xba;" horiz-adv-x="348" 
d="M173 318c-88 0 -138 76 -138 165s50 165 138 165c90 0 139 -76 139 -165s-49 -165 -139 -165zM173 365c56 0 82 54 82 118s-26 117 -82 117c-54 0 -80 -53 -80 -117s26 -118 80 -118z" />
    <glyph glyph-name="ae" unicode="&#xe6;" horiz-adv-x="739" 
d="M700 218h-314c3 -97 53 -170 140 -170c42 0 85 22 115 60l38 -43c-40 -48 -94 -77 -159 -77c-83 0 -136 44 -168 94c-27 -43 -77 -94 -162 -94c-81 0 -149 59 -149 160c0 100 66 160 146 160c49 0 97 -19 128 -63v85c0 66 -36 103 -99 103c-45 0 -84 -17 -122 -59l-32 50
c46 49 103 71 165 71c79 0 122 -34 136 -91c26 50 73 91 148 91c126 0 189 -115 189 -256v-21zM386 272h243c-1 73 -34 163 -122 163c-85 0 -119 -93 -121 -163zM328 120c-6 17 -13 52 -13 74c-23 43 -63 62 -104 62c-58 0 -97 -43 -97 -108c0 -66 39 -108 97 -108
c46 0 91 25 117 80z" />
    <glyph glyph-name="dotlessi" unicode="&#x131;" horiz-adv-x="203" 
d="M137 0h-71v483h71v-483z" />
    <glyph glyph-name="lslash" unicode="&#x142;" horiz-adv-x="255" 
d="M16 244v58l76 43v322h71v-281l76 44v-58l-76 -44v-328h-71v287z" />
    <glyph glyph-name="oslash" unicode="&#xf8;" horiz-adv-x="478" 
d="M105 0h-50l39 60c-35 47 -52 112 -52 182c0 136 68 253 197 253c45 0 83 -14 113 -39l17 27h50l-38 -58c36 -46 55 -112 55 -183c0 -136 -67 -254 -197 -254c-47 0 -85 15 -115 41zM239 52c85 0 122 92 122 190c0 42 -8 84 -23 117l-176 -271c19 -23 44 -36 77 -36z
M118 242c0 -41 6 -82 20 -114l176 270c-19 20 -44 33 -75 33c-84 0 -121 -92 -121 -189z" />
    <glyph glyph-name="oe" unicode="&#x153;" horiz-adv-x="787" 
d="M748 218h-313c3 -97 52 -170 139 -170c43 0 85 21 115 60l39 -43c-40 -48 -95 -77 -160 -77c-97 0 -146 62 -169 124c-23 -60 -69 -124 -160 -124c-129 0 -197 118 -197 254s68 253 197 253c91 0 137 -63 159 -122c23 60 73 122 159 122c128 0 191 -115 191 -256v-21z
M434 272h243c0 73 -33 163 -121 163c-86 0 -120 -93 -122 -163zM361 242c0 98 -38 189 -122 189c-83 0 -121 -91 -121 -189c0 -99 38 -191 121 -191c84 0 122 92 122 191z" />
    <glyph glyph-name="germandbls" unicode="&#xdf;" horiz-adv-x="525" 
d="M508 127c0 -74 -57 -139 -157 -139c-78 0 -120 29 -157 69l34 51c22 -29 62 -61 117 -61c56 0 91 34 91 78c0 112 -230 76 -230 237c0 99 123 114 123 183c0 41 -42 68 -89 68c-54 0 -98 -35 -98 -105v-508h-72v508c0 95 67 169 171 169c87 0 160 -51 160 -125
c0 -106 -125 -114 -125 -187c0 -103 232 -65 232 -238z" />
    <glyph glyph-name="onesuperior" unicode="&#xb9;" horiz-adv-x="225" 
d="M169 421h-59v325l-62 -66l-34 36l104 105h51v-400z" />
    <glyph glyph-name="logicalnot" unicode="&#xac;" horiz-adv-x="441" 
d="M409 456v-244h-53v193h-327v51h380z" />
    <glyph glyph-name="mu" unicode="&#xb5;" horiz-adv-x="465" 
d="M137 -184h-71v667h71v-344c0 -65 30 -89 78 -89c47 0 91 38 113 77v356h72v-483h-72v67c-29 -42 -81 -79 -140 -79c-20 0 -37 3 -51 7v-179z" />
    <glyph glyph-name="mu" unicode="&#x3bc;" horiz-adv-x="465" 
d="M137 -184h-71v667h71v-344c0 -65 30 -89 78 -89c47 0 91 38 113 77v356h72v-483h-72v67c-29 -42 -81 -79 -140 -79c-20 0 -37 3 -51 7v-179z" />
    <glyph glyph-name="trademark" unicode="&#x2122;" horiz-adv-x="414" 
d="M379 447h-28v182l-65 -182h-8l-65 182v-182h-28v220h43l54 -158l54 158h43v-220zM149 641h-52v-194h-28v194h-52v26h132v-26z" />
    <glyph glyph-name="Eth" unicode="&#xd0;" horiz-adv-x="589" 
d="M272 0h-178v300h-78v58h78v309h178c174 0 270 -144 270 -334c0 -191 -96 -333 -270 -333zM298 300h-124v-229h98c124 0 187 112 187 262c0 151 -62 263 -187 263h-98v-238h124v-58z" />
    <glyph glyph-name="onehalf" unicode="&#xbd;" horiz-adv-x="708" 
d="M516 667l-350 -667h-47l349 667h48zM673 0h-251v44c139 137 191 189 191 248c0 44 -32 66 -69 66c-40 0 -73 -20 -91 -51l-35 35c29 42 75 64 128 64c68 0 125 -38 125 -112c0 -70 -59 -132 -171 -246h173v-48zM169 267h-59v325l-62 -66l-34 36l104 105h51v-400z" />
    <glyph glyph-name="plusminus" unicode="&#xb1;" horiz-adv-x="438" 
d="M409 318h-162v-184h-55v184h-163v51h163v177h55v-177h162v-51zM409 22h-380v51h380v-51z" />
    <glyph glyph-name="Thorn" unicode="&#xde;" horiz-adv-x="488" 
d="M150 0h-80v667h80v-120h123c123 0 185 -93 185 -201s-63 -199 -185 -199h-123v-147zM265 218c69 0 111 52 111 128s-42 131 -111 131h-115v-259h115z" />
    <glyph glyph-name="onequarter" unicode="&#xbc;" horiz-adv-x="673" 
d="M516 667l-350 -667h-47l349 667h48zM647 101h-47v-101h-57v101h-169v45l151 254h75v-252h47v-47zM543 148v193l-115 -193h115zM169 267h-59v325l-62 -66l-34 36l104 105h51v-400z" />
    <glyph glyph-name="divide" unicode="&#xf7;" horiz-adv-x="443" 
d="M267 503c0 -25 -20 -46 -45 -46s-45 21 -45 46s20 44 45 44s45 -19 45 -44zM414 312h-385v51h385v-51zM267 168c0 -25 -20 -45 -45 -45s-45 20 -45 45c0 24 20 45 45 45s45 -21 45 -45z" />
    <glyph glyph-name="brokenbar" unicode="&#xa6;" horiz-adv-x="194" 
d="M124 -20h-54v316h54v-316zM124 371h-54v316h54v-316z" />
    <glyph glyph-name="degree" unicode="&#xb0;" horiz-adv-x="289" 
d="M266 555c0 -66 -55 -120 -122 -120s-121 54 -121 120c0 67 54 122 121 122s122 -55 122 -122zM219 555c0 41 -34 75 -75 75s-74 -34 -74 -75c0 -40 33 -73 74 -73s75 33 75 73z" />
    <glyph glyph-name="thorn" unicode="&#xfe;" horiz-adv-x="479" 
d="M265 -12c-50 0 -98 26 -128 80v-252h-71v851h71v-251c28 49 75 79 128 79c109 0 173 -101 173 -253c0 -151 -64 -254 -173 -254zM247 52c79 0 116 85 116 190c0 104 -37 189 -116 189c-46 0 -91 -36 -110 -78v-221c19 -42 64 -80 110 -80z" />
    <glyph glyph-name="threequarters" unicode="&#xbe;" horiz-adv-x="746" 
d="M589 667l-350 -667h-47l349 667h48zM720 101h-47v-101h-57v101h-169v45l151 254h75v-252h47v-47zM616 148v193l-115 -193h115zM293 376c0 -68 -48 -116 -131 -116c-62 0 -108 29 -131 66l36 35c20 -32 54 -53 93 -53c50 0 76 28 76 71c0 53 -40 70 -83 70
c-14 0 -28 0 -33 -1v48c6 -1 19 -1 31 -1c46 0 79 20 79 65c0 44 -31 65 -72 65c-37 0 -65 -17 -88 -47l-34 32c27 38 71 63 126 63c73 0 125 -37 125 -107c0 -51 -38 -84 -76 -92c37 -5 82 -40 82 -98z" />
    <glyph glyph-name="twosuperior" unicode="&#xb2;" 
d="M292 421h-251v44c139 137 191 189 191 248c0 44 -32 66 -69 66c-40 0 -73 -20 -91 -51l-35 35c29 42 75 64 128 64c68 0 125 -38 125 -112c0 -70 -59 -132 -171 -246h173v-48z" />
    <glyph glyph-name="registered" unicode="&#xae;" horiz-adv-x="494" 
d="M459 465c0 -117 -94 -212 -212 -212c-117 0 -212 95 -212 212c0 118 95 212 212 212c118 0 212 -94 212 -212zM430 465c0 103 -81 183 -183 183s-183 -80 -183 -183c0 -101 81 -183 183 -183s183 82 183 183zM345 343h-40l-63 96h-44v-96h-32v243h99c41 0 77 -29 77 -74
c0 -54 -48 -72 -62 -72zM309 512c0 27 -23 46 -44 46h-67v-90h67c21 0 44 19 44 44z" />
    <glyph glyph-name="minus" unicode="&#x2212;" horiz-adv-x="438" 
d="M409 309h-380v51h380v-51z" />
    <glyph glyph-name="eth" unicode="&#xf0;" horiz-adv-x="478" 
d="M121 506l-17 39l111 49c-19 20 -39 38 -59 56l52 45c25 -23 49 -47 71 -73l91 41l17 -39l-80 -35c77 -97 129 -211 129 -338c0 -149 -67 -263 -197 -263c-128 0 -197 112 -197 247c0 134 66 245 180 245c52 0 91 -25 121 -75c-23 54 -57 107 -99 156zM239 52
c85 0 122 89 122 182s-37 183 -122 183c-84 0 -121 -90 -121 -183s37 -182 121 -182z" />
    <glyph glyph-name="multiply" unicode="&#xd7;" horiz-adv-x="438" 
d="M347 170l-128 128l-127 -128l-37 36l128 128l-128 128l37 36l127 -128l128 128l36 -36l-128 -128l128 -128z" />
    <glyph glyph-name="threesuperior" unicode="&#xb3;" 
d="M293 530c0 -68 -48 -116 -131 -116c-62 0 -108 29 -131 66l36 35c20 -32 54 -53 93 -53c50 0 76 28 76 71c0 53 -40 70 -83 70c-14 0 -28 0 -33 -1v48c6 -1 19 -1 31 -1c46 0 79 20 79 65c0 44 -31 65 -72 65c-37 0 -65 -17 -88 -47l-34 32c27 38 71 63 126 63
c73 0 125 -37 125 -107c0 -51 -38 -84 -76 -92c37 -5 82 -40 82 -98z" />
    <glyph glyph-name="copyright" unicode="&#xa9;" horiz-adv-x="778" 
d="M734 334c0 -190 -154 -345 -345 -345c-190 0 -345 155 -345 345c0 191 155 345 345 345c191 0 345 -154 345 -345zM704 334c0 173 -142 315 -315 315c-172 0 -315 -142 -315 -315c0 -172 143 -315 315 -315c173 0 315 143 315 315zM512 212l25 -25
c-36 -42 -83 -66 -145 -66c-116 0 -209 93 -209 214c0 123 93 213 209 213c62 0 110 -24 145 -65l-25 -25c-26 35 -73 57 -120 57c-92 0 -173 -71 -173 -180c0 -105 81 -182 173 -182c48 0 94 24 120 59z" />
    <glyph glyph-name="Aacute" unicode="&#xc1;" horiz-adv-x="512" 
d="M385 872l-135 -144h-51l114 144h72zM504 0h-86l-43 151h-238l-43 -151h-86l201 667h95zM358 222l-102 357l-102 -357h204z" />
    <glyph glyph-name="Acircumflex" unicode="&#xc2;" horiz-adv-x="512" 
d="M374 728h-46l-72 105l-69 -105h-46l80 144h70zM504 0h-86l-43 151h-238l-43 -151h-86l201 667h95zM358 222l-102 357l-102 -357h204z" />
    <glyph glyph-name="Adieresis" unicode="&#xc4;" horiz-adv-x="512" 
d="M389 773c0 -25 -20 -45 -45 -45s-45 20 -45 45c0 24 20 45 45 45s45 -21 45 -45zM215 773c0 -25 -21 -45 -45 -45c-25 0 -45 20 -45 45c0 24 20 45 45 45c24 0 45 -21 45 -45zM504 0h-86l-43 151h-238l-43 -151h-86l201 667h95zM358 222l-102 357l-102 -357h204z" />
    <glyph glyph-name="Agrave" unicode="&#xc0;" horiz-adv-x="512" 
d="M315 728h-51l-135 144h73zM504 0h-86l-43 151h-238l-43 -151h-86l201 667h95zM358 222l-102 357l-102 -357h204z" />
    <glyph glyph-name="Aring" unicode="&#xc5;" horiz-adv-x="512" 
d="M257 693c-50 0 -91 41 -91 91s41 90 91 90s90 -40 90 -90s-40 -91 -90 -91zM257 731c29 0 52 23 52 53c0 29 -23 53 -52 53s-53 -24 -53 -53c0 -30 24 -53 53 -53zM504 0h-86l-43 151h-238l-43 -151h-86l201 667h95zM358 222l-102 357l-102 -357h204z" />
    <glyph glyph-name="Atilde" unicode="&#xc3;" horiz-adv-x="512" 
d="M307 726c-64 0 -60 94 -102 94c-23 0 -41 -27 -41 -88h-42c0 76 28 134 85 134c64 0 61 -94 102 -94c24 0 41 27 41 88h42c0 -76 -28 -134 -85 -134zM504 0h-86l-43 151h-238l-43 -151h-86l201 667h95zM358 222l-102 357l-102 -357h204z" />
    <glyph glyph-name="Ccedilla" unicode="&#xc7;" horiz-adv-x="534" 
d="M301 -187c-37 0 -69 14 -89 30l18 37c22 -19 45 -28 70 -28c28 0 54 15 54 42c0 21 -12 35 -33 35c-14 0 -25 -7 -33 -16l-32 18l21 59c-143 17 -230 156 -230 343c0 200 100 345 260 345c101 0 159 -61 196 -130l-66 -32c-27 55 -71 91 -130 91
c-109 0 -178 -115 -178 -274c0 -158 69 -274 178 -274c61 0 106 42 131 99l66 -31c-36 -71 -90 -133 -185 -138l-15 -40c9 7 20 10 33 10c34 0 60 -26 60 -66c0 -48 -42 -80 -96 -80z" />
    <glyph glyph-name="Eacute" unicode="&#xc9;" horiz-adv-x="462" 
d="M371 872l-135 -144h-51l114 144h72zM413 0h-343v667h343v-71h-263v-219h256v-71h-256v-235h263v-71z" />
    <glyph glyph-name="Ecircumflex" unicode="&#xca;" horiz-adv-x="462" 
d="M359 728h-46l-72 105l-69 -105h-46l80 144h70zM413 0h-343v667h343v-71h-263v-219h256v-71h-256v-235h263v-71z" />
    <glyph glyph-name="Edieresis" unicode="&#xcb;" horiz-adv-x="462" 
d="M374 773c0 -25 -20 -45 -45 -45s-45 20 -45 45c0 24 20 45 45 45s45 -21 45 -45zM200 773c0 -25 -21 -45 -45 -45c-25 0 -45 20 -45 45c0 24 20 45 45 45c24 0 45 -21 45 -45zM413 0h-343v667h343v-71h-263v-219h256v-71h-256v-235h263v-71z" />
    <glyph glyph-name="Egrave" unicode="&#xc8;" horiz-adv-x="462" 
d="M302 728h-51l-135 144h73zM413 0h-343v667h343v-71h-263v-219h256v-71h-256v-235h263v-71z" />
    <glyph glyph-name="Iacute" unicode="&#xcd;" horiz-adv-x="220" 
d="M239 872l-135 -144h-51l114 144h72zM150 0h-80v667h80v-667z" />
    <glyph glyph-name="Icircumflex" unicode="&#xce;" horiz-adv-x="220" 
d="M227 728h-46l-72 105l-69 -105h-46l80 144h70zM150 0h-80v667h80v-667z" />
    <glyph glyph-name="Idieresis" unicode="&#xcf;" horiz-adv-x="220" 
d="M243 773c0 -25 -20 -45 -45 -45s-45 20 -45 45c0 24 20 45 45 45s45 -21 45 -45zM69 773c0 -25 -21 -45 -45 -45c-25 0 -45 20 -45 45c0 24 20 45 45 45c24 0 45 -21 45 -45zM150 0h-80v667h80v-667z" />
    <glyph glyph-name="Igrave" unicode="&#xcc;" horiz-adv-x="220" 
d="M168 728h-51l-135 144h73zM150 0h-80v667h80v-667z" />
    <glyph glyph-name="Ntilde" unicode="&#xd1;" horiz-adv-x="573" 
d="M334 726c-64 0 -60 94 -102 94c-23 0 -41 -27 -41 -88h-42c0 76 28 134 85 134c64 0 61 -94 102 -94c24 0 41 27 41 88h42c0 -76 -28 -134 -85 -134zM503 0h-76l-277 508v-508h-80v667h80l274 -498v498h79v-667z" />
    <glyph glyph-name="Oacute" unicode="&#xd3;" horiz-adv-x="601" 
d="M429 872l-135 -144h-51l114 144h72zM300 -12c-162 0 -253 152 -253 345s91 345 253 345c163 0 254 -152 254 -345s-91 -345 -254 -345zM300 59c111 0 172 122 172 274c0 154 -61 274 -172 274s-171 -120 -171 -274c0 -152 60 -274 171 -274z" />
    <glyph glyph-name="Ocircumflex" unicode="&#xd4;" horiz-adv-x="601" 
d="M418 728h-46l-72 105l-69 -105h-46l80 144h70zM300 -12c-162 0 -253 152 -253 345s91 345 253 345c163 0 254 -152 254 -345s-91 -345 -254 -345zM300 59c111 0 172 122 172 274c0 154 -61 274 -172 274s-171 -120 -171 -274c0 -152 60 -274 171 -274z" />
    <glyph glyph-name="Odieresis" unicode="&#xd6;" horiz-adv-x="601" 
d="M432 773c0 -25 -20 -45 -45 -45s-45 20 -45 45c0 24 20 45 45 45s45 -21 45 -45zM258 773c0 -25 -21 -45 -45 -45c-25 0 -45 20 -45 45c0 24 20 45 45 45c24 0 45 -21 45 -45zM300 -12c-162 0 -253 152 -253 345s91 345 253 345c163 0 254 -152 254 -345
s-91 -345 -254 -345zM300 59c111 0 172 122 172 274c0 154 -61 274 -172 274s-171 -120 -171 -274c0 -152 60 -274 171 -274z" />
    <glyph glyph-name="Ograve" unicode="&#xd2;" horiz-adv-x="601" 
d="M360 728h-51l-135 144h73zM300 -12c-162 0 -253 152 -253 345s91 345 253 345c163 0 254 -152 254 -345s-91 -345 -254 -345zM300 59c111 0 172 122 172 274c0 154 -61 274 -172 274s-171 -120 -171 -274c0 -152 60 -274 171 -274z" />
    <glyph glyph-name="Otilde" unicode="&#xd5;" horiz-adv-x="601" 
d="M351 726c-64 0 -60 94 -102 94c-23 0 -41 -27 -41 -88h-42c0 76 28 134 85 134c64 0 61 -94 102 -94c24 0 41 27 41 88h42c0 -76 -28 -134 -85 -134zM300 -12c-162 0 -253 152 -253 345s91 345 253 345c163 0 254 -152 254 -345s-91 -345 -254 -345zM300 59
c111 0 172 122 172 274c0 154 -61 274 -172 274s-171 -120 -171 -274c0 -152 60 -274 171 -274z" />
    <glyph glyph-name="Scaron" unicode="&#x160;" horiz-adv-x="466" 
d="M276 728h-70l-83 144h46l72 -105l69 105h46zM229 -12c-87 0 -154 33 -200 84l44 61c34 -41 90 -74 156 -74c84 0 122 53 122 110c0 162 -302 119 -302 334c0 102 81 175 192 175c74 0 135 -25 178 -71l-41 -60c-37 41 -86 60 -139 60c-62 0 -109 -40 -109 -100
c0 -141 302 -110 302 -333c0 -98 -64 -186 -203 -186z" />
    <glyph glyph-name="Uacute" unicode="&#xda;" horiz-adv-x="569" 
d="M412 872l-135 -144h-51l114 144h72zM285 -12c-134 0 -215 81 -215 228v451h80v-451c0 -104 49 -157 135 -157c85 0 134 53 134 157v451h80v-451c0 -147 -80 -228 -214 -228z" />
    <glyph glyph-name="Ucircumflex" unicode="&#xdb;" horiz-adv-x="569" 
d="M404 728h-46l-72 105l-69 -105h-46l80 144h70zM285 -12c-134 0 -215 81 -215 228v451h80v-451c0 -104 49 -157 135 -157c85 0 134 53 134 157v451h80v-451c0 -147 -80 -228 -214 -228z" />
    <glyph glyph-name="Udieresis" unicode="&#xdc;" horiz-adv-x="569" 
d="M417 773c0 -25 -20 -45 -45 -45s-45 20 -45 45c0 24 20 45 45 45s45 -21 45 -45zM243 773c0 -25 -21 -45 -45 -45c-25 0 -45 20 -45 45c0 24 20 45 45 45c24 0 45 -21 45 -45zM285 -12c-134 0 -215 81 -215 228v451h80v-451c0 -104 49 -157 135 -157c85 0 134 53 134 157
v451h80v-451c0 -147 -80 -228 -214 -228z" />
    <glyph glyph-name="Ugrave" unicode="&#xd9;" horiz-adv-x="569" 
d="M344 728h-51l-135 144h73zM285 -12c-134 0 -215 81 -215 228v451h80v-451c0 -104 49 -157 135 -157c85 0 134 53 134 157v451h80v-451c0 -147 -80 -228 -214 -228z" />
    <glyph glyph-name="Yacute" unicode="&#xdd;" horiz-adv-x="501" 
d="M382 872l-135 -144h-51l114 144h72zM290 0h-79v282l-206 385h89l157 -308l157 308h88l-206 -385v-282z" />
    <glyph glyph-name="Ydieresis" unicode="&#x178;" horiz-adv-x="501" 
d="M386 773c0 -25 -20 -45 -45 -45s-45 20 -45 45c0 24 20 45 45 45s45 -21 45 -45zM212 773c0 -25 -21 -45 -45 -45c-25 0 -45 20 -45 45c0 24 20 45 45 45c24 0 45 -21 45 -45zM290 0h-79v282l-206 385h89l157 -308l157 308h88l-206 -385v-282z" />
    <glyph glyph-name="Zcaron" unicode="&#x17d;" horiz-adv-x="463" 
d="M268 728h-70l-83 144h46l72 -105l69 105h46zM423 0h-383v68l281 528h-281v71h376v-66l-282 -530h289v-71z" />
    <glyph glyph-name="aacute" unicode="&#xe1;" horiz-adv-x="452" 
d="M387 0h-72v53c-31 -45 -79 -65 -128 -65c-78 0 -146 60 -146 161s68 159 146 159c50 0 97 -19 128 -63v85c0 66 -36 103 -99 103c-45 0 -84 -17 -122 -59l-32 50c46 49 103 71 165 71c95 0 160 -48 160 -157v-338zM211 40c41 0 81 18 104 60v95c-23 43 -63 61 -104 61
c-61 0 -97 -48 -97 -108s36 -108 97 -108zM356 700l-135 -144h-51l114 144h72z" />
    <glyph glyph-name="acircumflex" unicode="&#xe2;" horiz-adv-x="452" 
d="M387 0h-72v53c-31 -45 -79 -65 -128 -65c-78 0 -146 60 -146 161s68 159 146 159c50 0 97 -19 128 -63v85c0 66 -36 103 -99 103c-45 0 -84 -17 -122 -59l-32 50c46 49 103 71 165 71c95 0 160 -48 160 -157v-338zM211 40c41 0 81 18 104 60v95c-23 43 -63 61 -104 61
c-61 0 -97 -48 -97 -108s36 -108 97 -108zM346 556h-46l-72 105l-69 -105h-46l80 144h70z" />
    <glyph glyph-name="adieresis" unicode="&#xe4;" horiz-adv-x="452" 
d="M387 0h-72v53c-31 -45 -79 -65 -128 -65c-78 0 -146 60 -146 161s68 159 146 159c50 0 97 -19 128 -63v85c0 66 -36 103 -99 103c-45 0 -84 -17 -122 -59l-32 50c46 49 103 71 165 71c95 0 160 -48 160 -157v-338zM211 40c41 0 81 18 104 60v95c-23 43 -63 61 -104 61
c-61 0 -97 -48 -97 -108s36 -108 97 -108zM359 604c0 -25 -20 -45 -45 -45s-45 20 -45 45c0 24 20 45 45 45s45 -21 45 -45zM185 604c0 -25 -21 -45 -45 -45c-25 0 -45 20 -45 45c0 24 20 45 45 45c24 0 45 -21 45 -45z" />
    <glyph glyph-name="agrave" unicode="&#xe0;" horiz-adv-x="452" 
d="M387 0h-72v53c-31 -45 -79 -65 -128 -65c-78 0 -146 60 -146 161s68 159 146 159c50 0 97 -19 128 -63v85c0 66 -36 103 -99 103c-45 0 -84 -17 -122 -59l-32 50c46 49 103 71 165 71c95 0 160 -48 160 -157v-338zM211 40c41 0 81 18 104 60v95c-23 43 -63 61 -104 61
c-61 0 -97 -48 -97 -108s36 -108 97 -108zM285 556h-51l-135 144h73z" />
    <glyph glyph-name="aring" unicode="&#xe5;" horiz-adv-x="452" 
d="M387 0h-72v53c-31 -45 -79 -65 -128 -65c-78 0 -146 60 -146 161s68 159 146 159c50 0 97 -19 128 -63v85c0 66 -36 103 -99 103c-45 0 -84 -17 -122 -59l-32 50c46 49 103 71 165 71c95 0 160 -48 160 -157v-338zM211 40c41 0 81 18 104 60v95c-23 43 -63 61 -104 61
c-61 0 -97 -48 -97 -108s36 -108 97 -108zM227 548c-50 0 -91 41 -91 91s41 90 91 90s90 -40 90 -90s-40 -91 -90 -91zM227 586c29 0 52 23 52 53c0 29 -23 53 -52 53s-53 -24 -53 -53c0 -30 24 -53 53 -53z" />
    <glyph glyph-name="atilde" unicode="&#xe3;" horiz-adv-x="452" 
d="M387 0h-72v53c-31 -45 -79 -65 -128 -65c-78 0 -146 60 -146 161s68 159 146 159c50 0 97 -19 128 -63v85c0 66 -36 103 -99 103c-45 0 -84 -17 -122 -59l-32 50c46 49 103 71 165 71c95 0 160 -48 160 -157v-338zM211 40c41 0 81 18 104 60v95c-23 43 -63 61 -104 61
c-61 0 -97 -48 -97 -108s36 -108 97 -108zM278 554c-64 0 -60 94 -102 94c-23 0 -41 -27 -41 -88h-42c0 76 28 134 85 134c64 0 61 -94 102 -94c24 0 41 27 41 88h42c0 -76 -28 -134 -85 -134z" />
    <glyph glyph-name="ccedilla" unicode="&#xe7;" horiz-adv-x="407" 
d="M242 -189c-37 0 -69 14 -89 30l18 37c22 -19 45 -28 70 -28c28 0 54 15 54 42c0 21 -12 35 -33 35c-14 0 -25 -7 -33 -16l-32 18l21 61c-110 13 -176 118 -176 252c0 143 76 253 201 253c67 0 108 -27 138 -64l-39 -49c-26 35 -56 49 -93 49c-86 0 -132 -86 -132 -189
s46 -190 132 -190c37 0 67 15 93 49l39 -49c-27 -35 -64 -59 -120 -63l-16 -42c9 7 20 10 33 10c34 0 60 -26 60 -66c0 -48 -42 -80 -96 -80z" />
    <glyph glyph-name="eacute" unicode="&#xe9;" horiz-adv-x="469" 
d="M250 -12c-129 0 -208 106 -208 254c0 140 74 253 197 253c128 0 191 -114 191 -255v-22h-314c3 -97 53 -170 140 -170c42 0 85 21 115 60l38 -43c-39 -48 -94 -77 -159 -77zM359 272c-1 73 -33 163 -122 163c-85 0 -119 -93 -121 -163h243zM368 700l-135 -144h-51
l114 144h72z" />
    <glyph glyph-name="ecircumflex" unicode="&#xea;" horiz-adv-x="469" 
d="M250 -12c-129 0 -208 106 -208 254c0 140 74 253 197 253c128 0 191 -114 191 -255v-22h-314c3 -97 53 -170 140 -170c42 0 85 21 115 60l38 -43c-39 -48 -94 -77 -159 -77zM359 272c-1 73 -33 163 -122 163c-85 0 -119 -93 -121 -163h243zM356 556h-46l-72 105l-69 -105
h-46l80 144h70z" />
    <glyph glyph-name="edieresis" unicode="&#xeb;" horiz-adv-x="469" 
d="M250 -12c-129 0 -208 106 -208 254c0 140 74 253 197 253c128 0 191 -114 191 -255v-22h-314c3 -97 53 -170 140 -170c42 0 85 21 115 60l38 -43c-39 -48 -94 -77 -159 -77zM359 272c-1 73 -33 163 -122 163c-85 0 -119 -93 -121 -163h243zM370 604
c0 -25 -20 -45 -45 -45s-45 20 -45 45c0 24 20 45 45 45s45 -21 45 -45zM196 604c0 -25 -21 -45 -45 -45c-25 0 -45 20 -45 45c0 24 20 45 45 45c24 0 45 -21 45 -45z" />
    <glyph glyph-name="egrave" unicode="&#xe8;" horiz-adv-x="469" 
d="M250 -12c-129 0 -208 106 -208 254c0 140 74 253 197 253c128 0 191 -114 191 -255v-22h-314c3 -97 53 -170 140 -170c42 0 85 21 115 60l38 -43c-39 -48 -94 -77 -159 -77zM359 272c-1 73 -33 163 -122 163c-85 0 -119 -93 -121 -163h243zM298 556h-51l-135 144h73z" />
    <glyph glyph-name="iacute" unicode="&#xed;" horiz-adv-x="203" 
d="M230 700l-135 -144h-51l114 144h72zM137 0h-71v483h71v-483z" />
    <glyph glyph-name="icircumflex" unicode="&#xee;" horiz-adv-x="203" 
d="M219 556h-46l-72 105l-69 -105h-46l80 144h70zM137 0h-71v483h71v-483z" />
    <glyph glyph-name="idieresis" unicode="&#xef;" horiz-adv-x="203" 
d="M234 604c0 -25 -20 -45 -45 -45s-45 20 -45 45c0 24 20 45 45 45s45 -21 45 -45zM60 604c0 -25 -21 -45 -45 -45c-25 0 -45 20 -45 45c0 24 20 45 45 45c24 0 45 -21 45 -45zM137 0h-71v483h71v-483z" />
    <glyph glyph-name="igrave" unicode="&#xec;" horiz-adv-x="203" 
d="M159 556h-51l-135 144h73zM137 0h-71v483h71v-483z" />
    <glyph glyph-name="ntilde" unicode="&#xf1;" horiz-adv-x="466" 
d="M401 0h-72v343c0 65 -29 88 -77 88s-92 -38 -114 -77v-354h-71v483h71v-69c28 42 83 81 141 81c82 0 122 -44 122 -131v-364zM284 554c-64 0 -60 94 -102 94c-23 0 -41 -27 -41 -88h-42c0 76 28 134 85 134c64 0 61 -94 102 -94c24 0 41 27 41 88h42
c0 -76 -28 -134 -85 -134z" />
    <glyph glyph-name="oacute" unicode="&#xf3;" horiz-adv-x="478" 
d="M239 -12c-129 0 -197 118 -197 254s68 253 197 253c130 0 197 -117 197 -253s-67 -254 -197 -254zM239 52c85 0 122 92 122 190c0 97 -37 189 -122 189c-84 0 -121 -92 -121 -189c0 -98 37 -190 121 -190zM367 700l-135 -144h-51l114 144h72z" />
    <glyph glyph-name="ocircumflex" unicode="&#xf4;" horiz-adv-x="478" 
d="M239 -12c-129 0 -197 118 -197 254s68 253 197 253c130 0 197 -117 197 -253s-67 -254 -197 -254zM239 52c85 0 122 92 122 190c0 97 -37 189 -122 189c-84 0 -121 -92 -121 -189c0 -98 37 -190 121 -190zM357 556h-46l-72 105l-69 -105h-46l80 144h70z" />
    <glyph glyph-name="odieresis" unicode="&#xf6;" horiz-adv-x="478" 
d="M239 -12c-129 0 -197 118 -197 254s68 253 197 253c130 0 197 -117 197 -253s-67 -254 -197 -254zM239 52c85 0 122 92 122 190c0 97 -37 189 -122 189c-84 0 -121 -92 -121 -189c0 -98 37 -190 121 -190zM372 604c0 -25 -20 -45 -45 -45s-45 20 -45 45c0 24 20 45 45 45
s45 -21 45 -45zM198 604c0 -25 -21 -45 -45 -45c-25 0 -45 20 -45 45c0 24 20 45 45 45c24 0 45 -21 45 -45z" />
    <glyph glyph-name="ograve" unicode="&#xf2;" horiz-adv-x="478" 
d="M239 -12c-129 0 -197 118 -197 254s68 253 197 253c130 0 197 -117 197 -253s-67 -254 -197 -254zM239 52c85 0 122 92 122 190c0 97 -37 189 -122 189c-84 0 -121 -92 -121 -189c0 -98 37 -190 121 -190zM298 556h-51l-135 144h73z" />
    <glyph glyph-name="otilde" unicode="&#xf5;" horiz-adv-x="478" 
d="M239 -12c-129 0 -197 118 -197 254s68 253 197 253c130 0 197 -117 197 -253s-67 -254 -197 -254zM239 52c85 0 122 92 122 190c0 97 -37 189 -122 189c-84 0 -121 -92 -121 -189c0 -98 37 -190 121 -190zM289 554c-64 0 -60 94 -102 94c-23 0 -41 -27 -41 -88h-42
c0 76 28 134 85 134c64 0 61 -94 102 -94c24 0 41 27 41 88h42c0 -76 -28 -134 -85 -134z" />
    <glyph glyph-name="scaron" unicode="&#x161;" horiz-adv-x="388" 
d="M191 -12c-69 0 -124 22 -164 69l36 50c28 -34 74 -61 126 -61c57 0 93 32 93 78c0 113 -241 73 -241 241c0 72 58 130 154 130c65 0 114 -25 148 -62l-34 -49c-24 32 -65 53 -113 53c-53 0 -86 -31 -86 -70c0 -103 242 -67 242 -241c0 -80 -62 -138 -161 -138zM231 556
h-70l-83 144h46l72 -105l69 105h46z" />
    <glyph glyph-name="uacute" unicode="&#xfa;" horiz-adv-x="465" 
d="M400 0h-72v67c-29 -42 -81 -79 -140 -79c-83 0 -122 42 -122 130v365h71v-344c0 -65 30 -87 78 -87c47 0 91 36 113 75v356h72v-483zM362 700l-135 -144h-51l114 144h72z" />
    <glyph glyph-name="ucircumflex" unicode="&#xfb;" horiz-adv-x="465" 
d="M400 0h-72v67c-29 -42 -81 -79 -140 -79c-83 0 -122 42 -122 130v365h71v-344c0 -65 30 -87 78 -87c47 0 91 36 113 75v356h72v-483zM350 556h-46l-72 105l-69 -105h-46l80 144h70z" />
    <glyph glyph-name="udieresis" unicode="&#xfc;" horiz-adv-x="465" 
d="M400 0h-72v67c-29 -42 -81 -79 -140 -79c-83 0 -122 42 -122 130v365h71v-344c0 -65 30 -87 78 -87c47 0 91 36 113 75v356h72v-483zM367 604c0 -25 -20 -45 -45 -45s-45 20 -45 45c0 24 20 45 45 45s45 -21 45 -45zM193 604c0 -25 -21 -45 -45 -45c-25 0 -45 20 -45 45
c0 24 20 45 45 45c24 0 45 -21 45 -45z" />
    <glyph glyph-name="ugrave" unicode="&#xf9;" horiz-adv-x="465" 
d="M400 0h-72v67c-29 -42 -81 -79 -140 -79c-83 0 -122 42 -122 130v365h71v-344c0 -65 30 -87 78 -87c47 0 91 36 113 75v356h72v-483zM292 556h-51l-135 144h73z" />
    <glyph glyph-name="yacute" unicode="&#xfd;" horiz-adv-x="409" 
d="M41 -189l12 64c8 -5 23 -7 32 -7c27 0 44 11 57 48l25 74l-161 493h78l121 -396l121 396h77l-194 -584c-23 -71 -62 -95 -120 -95c-14 0 -37 3 -48 7zM333 700l-135 -144h-51l114 144h72z" />
    <glyph glyph-name="ydieresis" unicode="&#xff;" horiz-adv-x="409" 
d="M41 -189l12 64c8 -5 23 -7 32 -7c27 0 44 11 57 48l25 74l-161 493h78l121 -396l121 396h77l-194 -584c-23 -71 -62 -95 -120 -95c-14 0 -37 3 -48 7zM337 604c0 -25 -20 -45 -45 -45s-45 20 -45 45c0 24 20 45 45 45s45 -21 45 -45zM163 604c0 -25 -21 -45 -45 -45
c-25 0 -45 20 -45 45c0 24 20 45 45 45c24 0 45 -21 45 -45z" />
    <glyph glyph-name="zcaron" unicode="&#x17e;" horiz-adv-x="388" 
d="M345 0h-302v56l210 364h-210v63h298v-55l-210 -365h214v-63zM226 556h-70l-83 144h46l72 -105l69 105h46z" />
    <glyph glyph-name="dollarsuperior" unicode="&#xf6e4;" horiz-adv-x="306" 
d="M138 361v53c-52 2 -92 23 -120 54l31 41c21 -24 52 -44 89 -48v143c-53 21 -110 44 -110 116c0 55 44 99 110 106v56h41v-56c42 -5 75 -22 98 -46l-29 -38c-19 20 -43 32 -69 36v-130c52 -21 108 -47 108 -120c0 -60 -38 -103 -108 -112v-55h-41zM228 525
c0 31 -21 49 -49 62v-123c32 9 49 33 49 61zM88 723c0 -29 21 -44 50 -58v113c-30 -7 -50 -27 -50 -55z" />
    <glyph glyph-name="parenleftsuperior" unicode="&#x207d;" horiz-adv-x="147" 
d="M136 370l-32 -14c-49 75 -77 168 -77 265c0 96 28 189 77 265l32 -14c-36 -78 -56 -149 -56 -251c0 -101 20 -173 56 -251z" />
    <glyph glyph-name="parenrightsuperior" unicode="&#x207e;" horiz-adv-x="147" 
d="M127 621c0 -97 -28 -189 -78 -265l-32 14c36 78 56 150 56 251c0 102 -20 173 -56 251l32 14c50 -76 78 -169 78 -265z" />
    <glyph glyph-name="commasuperior" unicode="&#xf6e2;" horiz-adv-x="140" 
d="M106 445c0 -42 -21 -80 -50 -101c-9 8 -17 14 -26 21c18 11 39 35 40 54c0 0 -2 -1 -3 -1c-17 0 -36 15 -36 35c0 19 17 36 37 36c22 0 38 -18 38 -44z" />
    <glyph glyph-name="periodsuperior" unicode="&#xf6e8;" horiz-adv-x="141" 
d="M107 453c0 -20 -16 -36 -36 -36s-37 16 -37 36s17 36 37 36s36 -16 36 -36z" />
    <glyph glyph-name="asuperior" unicode="&#xf6e9;" horiz-adv-x="329" 
d="M277 326h-56v34c-19 -26 -50 -42 -88 -42c-53 0 -99 39 -99 104c0 66 46 103 99 103c38 0 69 -15 88 -40v53c0 44 -28 65 -66 65c-28 0 -57 -10 -83 -41l-24 38c32 33 73 48 115 48c68 0 114 -33 114 -112v-210zM153 356c27 0 53 11 68 38v57c-15 27 -41 38 -68 38
c-39 0 -63 -28 -63 -66c0 -39 24 -67 63 -67z" />
    <glyph glyph-name="bsuperior" unicode="&#xf6ea;" horiz-adv-x="351" 
d="M181 363c51 0 78 52 78 120s-27 120 -78 120c-30 0 -60 -22 -73 -47v-146c13 -26 43 -47 73 -47zM108 326h-55v434h55v-165c21 35 53 53 88 53c74 0 120 -66 120 -165c0 -101 -47 -165 -120 -165c-35 0 -68 20 -88 52v-44z" />
    <glyph glyph-name="centsuperior" unicode="&#xf6e0;" horiz-adv-x="263" 
d="M131 416v55c-65 12 -105 72 -105 150c0 77 40 137 105 149v45h41v-43c36 -4 60 -21 77 -41l-29 -33c-14 18 -30 28 -48 31v-218c18 3 34 14 48 33l29 -33c-17 -21 -41 -38 -77 -42v-53h-41zM80 621c0 -49 17 -90 51 -104v207c-34 -15 -51 -55 -51 -103z" />
    <glyph glyph-name="dsuperior" unicode="&#xf6eb;" horiz-adv-x="351" 
d="M299 326h-55v44c-20 -32 -53 -52 -88 -52c-73 0 -121 64 -121 165c0 99 47 165 121 165c34 0 67 -18 87 -53v165h56v-434zM171 363c30 0 60 21 73 47v146c-13 25 -43 47 -73 47c-52 0 -78 -52 -78 -120s26 -120 78 -120z" />
    <glyph glyph-name="esuperior" unicode="&#xf6ec;" horiz-adv-x="340" 
d="M180 318c-88 0 -145 68 -145 165c0 91 54 165 138 165c87 0 134 -74 134 -168v-16h-215c3 -58 36 -104 93 -104c28 0 58 14 79 38l26 -31c-27 -31 -66 -49 -110 -49zM253 505c-1 46 -23 102 -81 102c-55 0 -78 -57 -80 -102h161z" />
    <glyph glyph-name="isuperior" unicode="&#xf6ed;" horiz-adv-x="152" 
d="M76 685c-19 0 -36 17 -36 37c0 19 17 36 36 36c20 0 36 -17 36 -36c0 -20 -16 -37 -36 -37zM104 326h-56v314h56v-314z" />
    <glyph glyph-name="lsuperior" unicode="&#xf6ee;" horiz-adv-x="161" 
d="M108 326h-55v434h55v-434z" />
    <glyph glyph-name="msuperior" unicode="&#xf6ef;" horiz-adv-x="498" 
d="M446 326h-55v222c0 33 -14 54 -46 54c-28 0 -56 -24 -68 -48v-228h-55v222c0 33 -13 54 -46 54c-28 0 -55 -25 -68 -48v-228h-55v314h55v-44c13 22 50 52 91 52c43 0 68 -23 75 -56c16 28 53 56 94 56c50 0 78 -27 78 -87v-235z" />
    <glyph glyph-name="nsuperior" unicode="&#x207f;" horiz-adv-x="343" 
d="M291 326h-56v217c0 43 -20 59 -52 59s-60 -25 -75 -48v-228h-55v314h55v-44c19 26 56 52 96 52c68 0 87 -38 87 -92v-230z" />
    <glyph glyph-name="osuperior" unicode="&#xf6f0;" horiz-adv-x="348" 
d="M173 318c-88 0 -138 76 -138 165s50 165 138 165c90 0 139 -76 139 -165s-49 -165 -139 -165zM173 365c56 0 82 54 82 118s-26 117 -82 117c-54 0 -80 -53 -80 -117s26 -118 80 -118z" />
    <glyph glyph-name="rsuperior" unicode="&#xf6f1;" horiz-adv-x="215" 
d="M108 326h-55v314h55v-48c21 31 54 55 92 55v-53l-17 1c-28 0 -62 -23 -75 -48v-221z" />
    <glyph glyph-name="ssuperior" unicode="&#xf6f2;" horiz-adv-x="280" 
d="M136 318c-49 0 -86 16 -114 47l26 36c19 -23 52 -42 87 -42c37 0 61 20 61 50c0 74 -165 43 -165 154c0 46 39 85 106 85c52 0 84 -19 105 -42l-23 -34c-17 20 -46 35 -79 35c-35 0 -56 -19 -56 -44c0 -68 165 -37 165 -152c0 -52 -42 -93 -113 -93z" />
    <glyph glyph-name="tsuperior" unicode="&#xf6f3;" horiz-adv-x="188" 
d="M126 318c-52 0 -69 32 -69 75v206h-44v41h44v86h55v-86h55v-41h-55v-200c0 -23 8 -37 26 -37c11 0 22 5 27 12c5 -12 11 -25 15 -37c-11 -11 -28 -19 -54 -19z" />
    <glyph glyph-name="parenleftinferior" unicode="&#x208d;" horiz-adv-x="147" 
d="M136 -197l-32 -14c-49 75 -77 168 -77 265c0 96 28 189 77 265l32 -14c-36 -78 -56 -149 -56 -251c0 -101 20 -173 56 -251z" />
    <glyph glyph-name="parenrightinferior" unicode="&#x208e;" horiz-adv-x="147" 
d="M127 54c0 -97 -28 -189 -78 -265l-32 14c36 78 56 150 56 251c0 102 -20 173 -56 251l32 14c50 -76 78 -169 78 -265z" />
    <glyph glyph-name="hyphensuperior" unicode="&#xf6e6;" horiz-adv-x="167" 
d="M149 599h-131v45h131v-45z" />
    <glyph glyph-name="colonmonetary" unicode="&#x20a1;" horiz-adv-x="524" 
d="M305 -12c-8 0 -16 1 -24 1l-24 -89h-48l26 98c-21 6 -39 15 -57 27l-34 -125h-47l42 157c-60 61 -94 159 -94 276c0 200 100 345 260 345h2l24 90h48l-26 -96c22 -5 41 -13 59 -23l32 119h48l-41 -151c20 -20 36 -44 50 -69l-66 -32c-3 5 -5 9 -8 14l-127 -471h5
c61 0 106 42 131 99l66 -31c-37 -74 -94 -139 -197 -139zM127 333c0 -71 13 -133 38 -180l122 453c-99 -12 -160 -123 -160 -273zM199 105c16 -17 35 -29 55 -37l137 506c-16 15 -35 25 -57 30z" />
    <glyph glyph-name="rupiah" unicode="&#xf6dd;" horiz-adv-x="945" 
d="M465 0h-90l-129 267h-96v-267h-80v667h204c107 0 184 -77 184 -199c0 -119 -67 -177 -133 -189zM265 337c69 0 111 54 111 130s-42 129 -111 129h-115v-259h115zM729 -12c-50 0 -98 28 -128 82v-254h-71v667h71v-69c28 49 77 81 128 81c109 0 173 -101 173 -253
c0 -151 -64 -254 -173 -254zM711 52c79 0 116 85 116 190c0 104 -37 189 -116 189c-46 0 -91 -36 -110 -78v-221c19 -42 64 -80 110 -80z" />
    <glyph glyph-name="hypheninferior" unicode="&#xf6e5;" horiz-adv-x="167" 
d="M149 31h-131v45h131v-45z" />
    <glyph glyph-name="oneeighth" unicode="&#x215b;" horiz-adv-x="708" 
d="M516 667l-350 -667h-47l349 667h48zM676 100c0 -68 -56 -107 -132 -107c-75 0 -132 38 -132 107c0 52 42 92 87 106c-41 13 -80 46 -80 97c0 72 63 103 125 103c63 0 126 -31 126 -103c0 -51 -39 -84 -80 -97c44 -14 86 -54 86 -106zM613 296c0 41 -29 64 -69 64
s-68 -23 -68 -64c0 -49 54 -67 68 -70c16 3 69 21 69 70zM618 105c0 54 -57 78 -74 80c-16 -2 -74 -26 -74 -80c0 -43 34 -66 74 -66s74 23 74 66zM169 267h-59v325l-62 -66l-34 36l104 105h51v-400z" />
    <glyph glyph-name="threeeighths" unicode="&#x215c;" horiz-adv-x="781" 
d="M589 667l-350 -667h-47l349 667h48zM749 100c0 -68 -56 -107 -132 -107c-75 0 -132 38 -132 107c0 52 42 92 87 106c-41 13 -80 46 -80 97c0 72 63 103 125 103c63 0 126 -31 126 -103c0 -51 -39 -84 -80 -97c44 -14 86 -54 86 -106zM686 296c0 41 -29 64 -69 64
s-68 -23 -68 -64c0 -49 54 -67 68 -70c16 3 69 21 69 70zM691 105c0 54 -57 78 -74 80c-16 -2 -74 -26 -74 -80c0 -43 34 -66 74 -66s74 23 74 66zM293 376c0 -68 -48 -116 -131 -116c-62 0 -108 29 -131 66l36 35c20 -32 54 -53 93 -53c50 0 76 28 76 71
c0 53 -40 70 -83 70c-14 0 -28 0 -33 -1v48c6 -1 19 -1 31 -1c46 0 79 20 79 65c0 44 -31 65 -72 65c-37 0 -65 -17 -88 -47l-34 32c27 38 71 63 126 63c73 0 125 -37 125 -107c0 -51 -38 -84 -76 -92c37 -5 82 -40 82 -98z" />
    <glyph glyph-name="fiveeighths" unicode="&#x215d;" horiz-adv-x="778" 
d="M586 667l-350 -667h-47l349 667h48zM746 100c0 -68 -56 -107 -132 -107c-75 0 -132 38 -132 107c0 52 42 92 87 106c-41 13 -80 46 -80 97c0 72 63 103 125 103c63 0 126 -31 126 -103c0 -51 -39 -84 -80 -97c44 -14 86 -54 86 -106zM683 296c0 41 -29 64 -69 64
s-68 -23 -68 -64c0 -49 54 -67 68 -70c16 3 69 21 69 70zM688 105c0 54 -57 78 -74 80c-16 -2 -74 -26 -74 -80c0 -43 34 -66 74 -66s74 23 74 66zM293 393c0 -78 -54 -133 -132 -133c-62 0 -102 25 -129 66l37 35c21 -34 50 -53 91 -53c46 0 75 38 75 83
c0 53 -29 85 -72 85c-30 0 -54 -12 -77 -40l-42 15v216h227v-48h-169v-134c16 19 45 35 80 35c59 0 111 -43 111 -127z" />
    <glyph glyph-name="seveneighths" unicode="&#x215e;" horiz-adv-x="711" 
d="M519 667l-350 -667h-47l349 667h48zM679 100c0 -68 -56 -107 -132 -107c-75 0 -132 38 -132 107c0 52 42 92 87 106c-41 13 -80 46 -80 97c0 72 63 103 125 103c63 0 126 -31 126 -103c0 -51 -39 -84 -80 -97c44 -14 86 -54 86 -106zM616 296c0 41 -29 64 -69 64
s-68 -23 -68 -64c0 -49 54 -67 68 -70c16 3 69 21 69 70zM621 105c0 54 -57 78 -74 80c-16 -2 -74 -26 -74 -80c0 -43 34 -66 74 -66s74 23 74 66zM273 627l-138 -360h-60l138 352h-188v48h248v-40z" />
    <glyph glyph-name="onethird" unicode="&#x2153;" horiz-adv-x="708" 
d="M516 667l-350 -667h-47l349 667h48zM674 109c0 -68 -48 -116 -131 -116c-62 0 -108 29 -131 66l36 35c20 -32 54 -53 93 -53c50 0 76 28 76 71c0 53 -40 70 -83 70c-14 0 -28 0 -33 -1v48c6 -1 19 -1 31 -1c46 0 79 20 79 65c0 44 -31 65 -72 65c-37 0 -65 -17 -88 -47
l-34 32c27 38 71 63 126 63c73 0 125 -37 125 -107c0 -51 -38 -84 -76 -92c37 -5 82 -40 82 -98zM169 267h-59v325l-62 -66l-34 36l104 105h51v-400z" />
    <glyph glyph-name="twothirds" unicode="&#x2154;" horiz-adv-x="781" 
d="M589 667l-350 -667h-47l349 667h48zM747 109c0 -68 -48 -116 -131 -116c-62 0 -108 29 -131 66l36 35c20 -32 54 -53 93 -53c50 0 76 28 76 71c0 53 -40 70 -83 70c-14 0 -28 0 -33 -1v48c6 -1 19 -1 31 -1c46 0 79 20 79 65c0 44 -31 65 -72 65c-37 0 -65 -17 -88 -47
l-34 32c27 38 71 63 126 63c73 0 125 -37 125 -107c0 -51 -38 -84 -76 -92c37 -5 82 -40 82 -98zM292 267h-251v44c139 137 191 189 191 248c0 44 -32 66 -69 66c-40 0 -73 -20 -91 -51l-35 35c29 42 75 64 128 64c68 0 125 -38 125 -112c0 -70 -59 -132 -171 -246h173v-48z
" />
    <glyph glyph-name="zerosuperior" unicode="&#x2070;" 
d="M302 621c0 -98 -38 -207 -138 -207c-101 0 -139 109 -139 207c0 99 38 206 139 206c100 0 138 -107 138 -206zM242 621c0 79 -16 158 -78 158s-80 -79 -80 -158s18 -159 80 -159s78 80 78 159z" />
    <glyph glyph-name="foursuperior" unicode="&#x2074;" 
d="M301 522h-47v-101h-57v101h-169v45l151 254h75v-252h47v-47zM197 569v193l-115 -193h115z" />
    <glyph glyph-name="fivesuperior" unicode="&#x2075;" 
d="M293 547c0 -78 -54 -133 -132 -133c-62 0 -102 25 -129 66l37 35c21 -34 50 -53 91 -53c46 0 75 38 75 83c0 53 -29 85 -72 85c-30 0 -54 -12 -77 -40l-42 15v216h227v-48h-169v-134c16 19 45 35 80 35c59 0 111 -43 111 -127z" />
    <glyph glyph-name="sixsuperior" unicode="&#x2076;" 
d="M297 546c0 -71 -47 -132 -127 -132c-103 0 -141 98 -141 207c0 111 48 206 151 206c45 0 79 -18 101 -47l-29 -40c-18 25 -37 39 -71 39c-66 0 -93 -75 -93 -148v-14c16 28 51 59 95 59c63 0 114 -45 114 -130zM239 544c0 61 -33 85 -72 85c-33 0 -62 -25 -78 -56
c3 -49 21 -111 79 -111c48 0 71 43 71 82z" />
    <glyph glyph-name="sevensuperior" unicode="&#x2077;" horiz-adv-x="301" 
d="M273 781l-138 -360h-60l138 352h-188v48h248v-40z" />
    <glyph glyph-name="eightsuperior" unicode="&#x2078;" 
d="M295 521c0 -68 -56 -107 -132 -107c-75 0 -132 38 -132 107c0 52 42 92 87 106c-41 13 -80 46 -80 97c0 72 63 103 125 103c63 0 126 -31 126 -103c0 -51 -39 -84 -80 -97c44 -14 86 -54 86 -106zM232 717c0 41 -29 64 -69 64s-68 -23 -68 -64c0 -49 54 -67 68 -70
c16 3 69 21 69 70zM237 526c0 54 -57 78 -74 80c-16 -2 -74 -26 -74 -80c0 -43 34 -66 74 -66s74 23 74 66z" />
    <glyph glyph-name="ninesuperior" unicode="&#x2079;" 
d="M30 695c0 71 48 132 128 132c103 0 141 -98 141 -207c0 -111 -48 -206 -151 -206c-45 0 -79 18 -101 47l29 40c17 -25 37 -39 72 -39c64 0 91 75 92 149v13c-16 -28 -52 -59 -95 -59c-63 0 -115 45 -115 130zM89 697c0 -61 33 -85 72 -85c33 0 61 25 78 57
c-3 48 -21 110 -79 110c-48 0 -71 -43 -71 -82z" />
    <glyph glyph-name="zeroinferior" unicode="&#x2080;" 
d="M302 54c0 -98 -38 -207 -138 -207c-101 0 -139 109 -139 207c0 99 38 206 139 206c100 0 138 -107 138 -206zM242 54c0 79 -16 158 -78 158s-80 -79 -80 -158s18 -159 80 -159s78 80 78 159z" />
    <glyph glyph-name="oneinferior" unicode="&#x2081;" horiz-adv-x="225" 
d="M169 -146h-59v325l-62 -66l-34 36l104 105h51v-400z" />
    <glyph glyph-name="twoinferior" unicode="&#x2082;" 
d="M292 -146h-251v44c139 137 191 189 191 248c0 44 -32 66 -69 66c-40 0 -73 -20 -91 -51l-35 35c29 42 75 64 128 64c68 0 125 -38 125 -112c0 -70 -59 -132 -171 -246h173v-48z" />
    <glyph glyph-name="threeinferior" unicode="&#x2083;" 
d="M293 -37c0 -68 -48 -116 -131 -116c-62 0 -108 29 -131 66l36 35c20 -32 54 -53 93 -53c50 0 76 28 76 71c0 53 -40 70 -83 70c-14 0 -28 0 -33 -1v48c6 -1 19 -1 31 -1c46 0 79 20 79 65c0 44 -31 65 -72 65c-37 0 -65 -17 -88 -47l-34 32c27 38 71 63 126 63
c73 0 125 -37 125 -107c0 -51 -38 -84 -76 -92c37 -5 82 -40 82 -98z" />
    <glyph glyph-name="fourinferior" unicode="&#x2084;" 
d="M301 -45h-47v-101h-57v101h-169v45l151 254h75v-252h47v-47zM197 2v193l-115 -193h115z" />
    <glyph glyph-name="fiveinferior" unicode="&#x2085;" 
d="M293 -20c0 -78 -54 -133 -132 -133c-62 0 -102 25 -129 66l37 35c21 -34 50 -53 91 -53c46 0 75 38 75 83c0 53 -29 85 -72 85c-30 0 -54 -12 -77 -40l-42 15v216h227v-48h-169v-134c16 19 45 35 80 35c59 0 111 -43 111 -127z" />
    <glyph glyph-name="sixinferior" unicode="&#x2086;" 
d="M297 -21c0 -71 -47 -132 -127 -132c-103 0 -141 98 -141 207c0 111 48 206 151 206c45 0 79 -18 101 -47l-29 -40c-18 25 -37 39 -71 39c-66 0 -93 -75 -93 -148v-14c16 28 51 59 95 59c63 0 114 -45 114 -130zM239 -23c0 61 -33 85 -72 85c-33 0 -62 -25 -78 -56
c3 -49 21 -111 79 -111c48 0 71 43 71 82z" />
    <glyph glyph-name="seveninferior" unicode="&#x2087;" horiz-adv-x="301" 
d="M273 214l-138 -360h-60l138 352h-188v48h248v-40z" />
    <glyph glyph-name="eightinferior" unicode="&#x2088;" 
d="M295 -46c0 -68 -56 -107 -132 -107c-75 0 -132 38 -132 107c0 52 42 92 87 106c-41 13 -80 46 -80 97c0 72 63 103 125 103c63 0 126 -31 126 -103c0 -51 -39 -84 -80 -97c44 -14 86 -54 86 -106zM232 150c0 41 -29 64 -69 64s-68 -23 -68 -64c0 -49 54 -67 68 -70
c16 3 69 21 69 70zM237 -41c0 54 -57 78 -74 80c-16 -2 -74 -26 -74 -80c0 -43 34 -66 74 -66s74 23 74 66z" />
    <glyph glyph-name="nineinferior" unicode="&#x2089;" 
d="M30 128c0 71 48 132 128 132c103 0 141 -98 141 -207c0 -111 -48 -206 -151 -206c-45 0 -79 18 -101 47l29 40c17 -25 37 -39 72 -39c64 0 91 75 92 149v13c-16 -28 -52 -59 -95 -59c-63 0 -115 45 -115 130zM89 130c0 -61 33 -85 72 -85c33 0 61 25 78 57
c-3 48 -21 110 -79 110c-48 0 -71 -43 -71 -82z" />
    <glyph glyph-name="centinferior" unicode="&#xf6df;" horiz-adv-x="263" 
d="M131 -151v56c-65 12 -105 72 -105 149s40 137 105 149v45h41v-43c36 -4 60 -21 77 -41l-29 -33c-14 18 -30 28 -48 31v-217c18 3 34 14 48 32l29 -33c-17 -21 -41 -38 -77 -41v-54h-41zM80 54c0 -49 17 -89 51 -104v207c-34 -15 -51 -55 -51 -103z" />
    <glyph glyph-name="dollarinferior" unicode="&#xf6e3;" horiz-adv-x="306" 
d="M138 -206v53c-52 3 -92 24 -120 54l31 41c21 -23 52 -44 89 -47v142c-53 21 -110 44 -110 116c0 55 44 99 110 106v56h41v-56c42 -5 75 -22 98 -46l-29 -38c-19 20 -43 32 -69 36v-130c52 -21 108 -47 108 -120c0 -60 -38 -103 -108 -112v-55h-41zM228 -42
c0 32 -21 49 -49 62v-122c32 9 49 32 49 60zM88 156c0 -29 21 -44 50 -58v113c-30 -7 -50 -27 -50 -55z" />
    <glyph glyph-name="periodinferior" unicode="&#xf6e7;" horiz-adv-x="141" 
d="M107 -114c0 -20 -16 -36 -36 -36s-37 16 -37 36s17 36 37 36s36 -16 36 -36z" />
    <glyph glyph-name="commainferior" unicode="&#xf6e1;" horiz-adv-x="140" 
d="M106 -122c0 -42 -21 -80 -50 -101c-9 8 -17 14 -26 21c18 11 39 35 40 54c0 0 -2 -1 -3 -1c-17 0 -36 15 -36 35c0 19 17 36 37 36c22 0 38 -18 38 -44z" />
    <glyph glyph-name="notequal" unicode="&#x2260;" horiz-adv-x="438" 
d="M116 93h-47l62 119h-102v51h129l74 142h-203v51h230l62 118h48l-62 -118h102v-51h-129l-75 -142h204v-51h-231z" />
    <glyph glyph-name="infinity" unicode="&#x221e;" horiz-adv-x="567" 
d="M160 171c-92 0 -131 85 -131 164c0 80 39 165 131 165c59 0 100 -51 123 -109c23 58 66 109 124 109c92 0 131 -85 131 -165c0 -79 -39 -164 -131 -164c-58 0 -101 50 -124 109c-23 -59 -64 -109 -123 -109zM401 222c54 0 85 48 85 113c0 66 -31 114 -85 114
c-47 0 -77 -58 -94 -114c17 -55 47 -113 94 -113zM167 222c46 0 76 58 94 113c-18 56 -48 114 -94 114c-54 0 -85 -48 -85 -114c0 -65 31 -113 85 -113z" />
    <glyph glyph-name="lessequal" unicode="&#x2264;" horiz-adv-x="438" 
d="M409 130l-380 183v51l380 184v-60l-318 -150l318 -148v-60zM409 22h-380v51h380v-51z" />
    <glyph glyph-name="greaterequal" unicode="&#x2265;" horiz-adv-x="438" 
d="M409 313l-380 -183v60l318 148l-318 150v60l380 -184v-51zM409 22h-380v51h380v-51z" />
    <glyph glyph-name="partialdiff" unicode="&#x2202;" horiz-adv-x="478" 
d="M239 -12c-129 0 -197 114 -197 247c0 132 66 245 180 245c52 0 91 -23 120 -72c-28 81 -91 174 -173 234l57 38c113 -100 210 -252 210 -435c0 -143 -67 -257 -197 -257zM239 52c85 0 122 89 122 182c0 94 -37 183 -122 183c-84 0 -121 -89 -121 -183
c0 -93 37 -182 121 -182z" />
    <glyph glyph-name="summation" unicode="&#x2211;" horiz-adv-x="452" 
d="M311 299l-172 297h269v71h-359v-70l173 -299l-174 -316v-72h360v71h-273z" />
    <glyph glyph-name="product" unicode="&#x220f;" horiz-adv-x="568" 
d="M461 -90h-80v686h-195v-686h-80v686h-81v71h517v-71h-81v-686z" />
    <glyph glyph-name="pi" unicode="&#x3c0;" horiz-adv-x="455" 
d="M372 0h-73v435h-143v-435h-73v435h-58v65h405v-65h-58v-435z" />
    <glyph glyph-name="integral" unicode="&#x222b;" horiz-adv-x="291" 
d="M63 -100h-46v53h46c29 0 54 28 54 66v630c0 72 55 119 111 119h46v-53h-46c-30 0 -54 -27 -54 -66v-630c0 -72 -55 -119 -111 -119z" />
    <glyph glyph-name="Omega" unicode="&#x3a9;" horiz-adv-x="594" 
d="M57 0v71h110c-67 53 -124 145 -124 276c0 196 95 331 254 331s253 -135 253 -331c0 -131 -57 -223 -123 -276h110v-71h-187v71c57 21 118 112 118 262c0 162 -59 273 -171 273s-172 -111 -172 -273c0 -150 62 -242 119 -262v-71h-187z" />
    <glyph glyph-name="Omega" unicode="&#x2126;" horiz-adv-x="594" 
d="M57 0v71h110c-67 53 -124 145 -124 276c0 196 95 331 254 331s253 -135 253 -331c0 -131 -57 -223 -123 -276h110v-71h-187v71c57 21 118 112 118 262c0 162 -59 273 -171 273s-172 -111 -172 -273c0 -150 62 -242 119 -262v-71h-187z" />
    <glyph glyph-name="radical" unicode="&#x221a;" horiz-adv-x="596" 
d="M358 0h-56l-101 323l-133 -43l-14 49l181 56l96 -311l186 593h54z" />
    <glyph glyph-name="approxequal" unicode="&#x2248;" horiz-adv-x="438" 
d="M29 212v55c28 -17 64 -26 95 -26c83 0 96 46 190 46c33 0 68 -7 95 -21v-56c-28 18 -64 26 -95 26c-83 0 -96 -46 -190 -46c-33 0 -68 8 -95 22zM29 402v56c28 -18 64 -26 95 -26c83 0 96 46 190 46c33 0 68 -8 95 -22v-55c-28 17 -64 26 -95 26c-83 0 -96 -46 -190 -46
c-33 0 -68 7 -95 21z" />
    <glyph glyph-name="Delta" unicode="&#x394;" horiz-adv-x="527" 
d="M519 0h-511l208 667h95zM416 71l-153 508l-152 -508h305z" />
    <glyph glyph-name="Delta" unicode="&#x2206;" horiz-adv-x="527" 
d="M519 0h-511l208 667h95zM416 71l-153 508l-152 -508h305z" />
    <glyph glyph-name="nbspace" unicode="&#xa0;" horiz-adv-x="215" 
 />
    <glyph glyph-name="lozenge" unicode="&#x25ca;" horiz-adv-x="375" 
d="M198 0h-21l-158 334l158 333h21l158 -333zM188 41l132 293l-133 292l-132 -292z" />
    <glyph glyph-name="Euro" unicode="&#x20ac;" horiz-adv-x="550" 
d="M324 -12c-134 0 -225 100 -252 250h-48v50h41c-1 14 -1 29 -1 45s0 31 2 47h-42v51h48c28 147 119 247 252 247c101 0 159 -61 196 -130l-66 -32c-27 55 -71 91 -130 91c-85 0 -146 -70 -169 -176h212v-51h-219c-2 -15 -2 -31 -2 -47s0 -31 2 -45h219v-50h-212
c22 -108 83 -179 169 -179c61 0 106 42 131 99l66 -31c-37 -74 -94 -139 -197 -139z" />
    <glyph glyph-name="uni2318" unicode="&#x2318;" horiz-adv-x="667" 
d="M227 154v75h-74c-42 0 -73 -34 -73 -75c0 -42 32 -76 73 -76s74 34 74 76zM227 438v76c0 41 -32 75 -73 75c-42 0 -74 -34 -74 -75s32 -76 74 -76h73zM265 265h137v137h-137v-137zM587 154c0 41 -31 75 -73 75h-74v-75c0 -42 33 -76 74 -76s73 34 73 76zM587 514
c0 41 -32 75 -73 75s-74 -34 -74 -75v-76h74c41 0 73 35 73 76zM625 154c0 -61 -50 -112 -111 -112s-112 51 -112 112v75h-137v-75c0 -61 -51 -112 -112 -112s-111 51 -111 112s50 111 111 111h74v137h-73c-61 0 -112 51 -112 112s51 111 112 111s111 -50 111 -111v-76h137
v76c0 61 51 111 112 111s111 -50 111 -111s-50 -112 -111 -112h-74v-137h74c61 0 111 -50 111 -111z" />
    <glyph glyph-name="uni2318" unicode="&#xf8ff;" horiz-adv-x="667" 
d="M227 154v75h-74c-42 0 -73 -34 -73 -75c0 -42 32 -76 73 -76s74 34 74 76zM227 438v76c0 41 -32 75 -73 75c-42 0 -74 -34 -74 -75s32 -76 74 -76h73zM265 265h137v137h-137v-137zM587 154c0 41 -31 75 -73 75h-74v-75c0 -42 33 -76 74 -76s73 34 73 76zM587 514
c0 41 -32 75 -73 75s-74 -34 -74 -75v-76h74c41 0 73 35 73 76zM625 154c0 -61 -50 -112 -111 -112s-112 51 -112 112v75h-137v-75c0 -61 -51 -112 -112 -112s-111 51 -111 112s50 111 111 111h74v137h-73c-61 0 -112 51 -112 112s51 111 112 111s111 -50 111 -111v-76h137
v76c0 61 51 111 112 111s111 -50 111 -111s-50 -112 -111 -112h-74v-137h74c61 0 111 -50 111 -111z" />
    <glyph glyph-name="f.alt1" horiz-adv-x="253" 
d="M155 0h-72v420h-64v63h64v58c0 86 48 136 118 136c25 0 45 -5 62 -15l-18 -58c-7 6 -18 9 -31 9c-38 0 -59 -27 -59 -72v-58h81v-63h-81v-420z" />
    <glyph glyph-name="l.alt1" horiz-adv-x="238" 
d="M162 -12c-66 0 -96 38 -96 109v570h71v-557c0 -36 12 -58 40 -58c17 0 33 8 41 19l22 -54c-17 -17 -41 -29 -78 -29z" />
    <glyph glyph-name="a.alt1" horiz-adv-x="481" 
d="M415 0h-72v69c-28 -49 -76 -81 -127 -81c-109 0 -174 101 -174 253c0 151 65 254 174 254c50 0 98 -28 127 -82v70h72v-483zM234 52c46 0 91 36 109 78v221c-18 42 -63 80 -109 80c-79 0 -117 -85 -117 -190c0 -104 38 -189 117 -189z" />
    <glyph glyph-name="y.alt1" horiz-adv-x="465" 
d="M217 -196c-66 0 -117 21 -156 61l33 59c32 -39 75 -56 120 -56c71 0 114 46 114 129v78c-29 -41 -81 -78 -140 -78c-83 0 -122 41 -122 129v357h71v-336c0 -64 30 -87 78 -87c47 0 91 36 113 76v347h72v-486c0 -127 -76 -193 -183 -193z" />
    <glyph glyph-name="G.alt1" horiz-adv-x="564" 
d="M303 -12c-153 0 -256 139 -256 345s103 345 260 345c98 0 159 -55 199 -126l-64 -33c-29 52 -74 88 -135 88c-107 0 -178 -110 -178 -274c0 -163 71 -274 178 -274c101 0 148 101 156 212h-191v70h272c0 -217 -77 -353 -241 -353z" />
    <glyph glyph-name="G.smcp.alt1" horiz-adv-x="509" 
d="M267 -12c-136 0 -224 118 -224 287c0 170 88 287 227 287c83 0 137 -46 173 -107l-59 -30c-26 42 -63 71 -114 71c-92 0 -150 -91 -150 -221c0 -129 57 -221 150 -221c77 0 126 79 133 168h-148v63h223c0 -175 -72 -297 -211 -297z" />
    <glyph glyph-name="Gbreve.alt1" horiz-adv-x="578" 
d="M456 797c-33 -46 -87 -75 -147 -75s-114 29 -148 75l37 30c24 -36 66 -58 111 -58s86 22 111 58zM303 -12c-153 0 -256 139 -256 345s103 345 260 345c98 0 159 -55 199 -126l-64 -33c-29 52 -74 88 -135 88c-107 0 -178 -110 -178 -274c0 -163 71 -274 178 -274
c101 0 148 101 156 212h-191v70h272c0 -217 -77 -353 -241 -353z" />
    <glyph glyph-name="Gbreve.smcp.alt1" horiz-adv-x="507" 
d="M418 678c-33 -46 -87 -75 -147 -75s-114 29 -148 75l37 30c24 -36 66 -58 111 -58s86 22 111 58zM267 -12c-136 0 -224 118 -224 287c0 170 88 287 227 287c83 0 137 -46 173 -107l-59 -30c-26 42 -63 71 -114 71c-92 0 -150 -91 -150 -221c0 -129 57 -221 150 -221
c77 0 126 79 133 168h-148v63h223c0 -175 -72 -297 -211 -297z" />
    <glyph glyph-name="Gcommaaccent.alt1" horiz-adv-x="578" 
d="M360 -138c0 -54 -32 -105 -71 -133l-31 25c30 21 55 57 57 87c-1 0 -7 -1 -11 -1c-23 0 -41 18 -41 43c0 24 20 45 45 45c28 0 52 -24 52 -66zM303 -12c-153 0 -256 139 -256 345s103 345 260 345c98 0 159 -55 199 -126l-64 -33c-29 52 -74 88 -135 88
c-107 0 -178 -110 -178 -274c0 -163 71 -274 178 -274c101 0 148 101 156 212h-191v70h272c0 -217 -77 -353 -241 -353z" />
    <glyph glyph-name="Gcommaaccent.smcp.alt1" horiz-adv-x="509" 
d="M325 -138c0 -54 -32 -105 -71 -133l-31 25c30 21 55 57 57 87c-1 0 -7 -1 -11 -1c-23 0 -41 18 -41 43c0 24 20 45 45 45c28 0 52 -24 52 -66zM267 -12c-136 0 -224 118 -224 287c0 170 88 287 227 287c83 0 137 -46 173 -107l-59 -30c-26 42 -63 71 -114 71
c-92 0 -150 -91 -150 -221c0 -129 57 -221 150 -221c77 0 126 79 133 168h-148v63h223c0 -175 -72 -297 -211 -297z" />
    <glyph glyph-name="lslash.alt1" horiz-adv-x="269" 
d="M16 244v58l76 43v322h71v-281l76 44v-58l-76 -44v-218c0 -36 12 -58 40 -58c17 0 33 8 41 19l22 -54c-17 -17 -41 -29 -78 -29c-66 0 -96 38 -96 109v190z" />
    <glyph glyph-name="lacute.alt1" horiz-adv-x="238" 
d="M229 872l-135 -144h-51l114 144h72zM162 -12c-66 0 -96 38 -96 109v570h71v-557c0 -36 12 -58 40 -58c17 0 33 8 41 19l22 -54c-17 -17 -41 -29 -78 -29z" />
    <glyph glyph-name="lcommaaccent.alt1" horiz-adv-x="238" 
d="M170 -138c0 -54 -32 -105 -71 -133l-31 25c30 21 55 57 57 87c-1 0 -7 -1 -11 -1c-23 0 -41 18 -41 43c0 24 20 45 45 45c28 0 52 -24 52 -66zM162 -12c-66 0 -96 38 -96 109v570h71v-557c0 -36 12 -58 40 -58c17 0 33 8 41 19l22 -54c-17 -17 -41 -29 -78 -29z" />
    <glyph glyph-name="lcaron.alt1" horiz-adv-x="279" 
d="M299 614c0 -54 -32 -105 -71 -133l-31 25c30 21 55 57 57 87c-1 0 -7 -1 -11 -1c-23 0 -41 18 -41 43c0 24 20 45 45 45c28 0 52 -24 52 -66zM162 -12c-66 0 -96 38 -96 109v570h71v-557c0 -36 12 -58 40 -58c17 0 33 8 41 19l22 -54c-17 -17 -41 -29 -78 -29z" />
    <glyph glyph-name="aacute.alt1" horiz-adv-x="481" 
d="M372 700l-135 -144h-51l114 144h72zM415 0h-72v69c-28 -49 -76 -81 -127 -81c-109 0 -174 101 -174 253c0 151 65 254 174 254c50 0 98 -28 127 -82v70h72v-483zM234 52c46 0 91 36 109 78v221c-18 42 -63 80 -109 80c-79 0 -117 -85 -117 -190c0 -104 38 -189 117 -189z
" />
    <glyph glyph-name="agrave.alt1" horiz-adv-x="481" 
d="M302 556h-51l-135 144h73zM415 0h-72v69c-28 -49 -76 -81 -127 -81c-109 0 -174 101 -174 253c0 151 65 254 174 254c50 0 98 -28 127 -82v70h72v-483zM234 52c46 0 91 36 109 78v221c-18 42 -63 80 -109 80c-79 0 -117 -85 -117 -190c0 -104 38 -189 117 -189z" />
    <glyph glyph-name="acircumflex.alt1" horiz-adv-x="481" 
d="M361 556h-46l-72 105l-69 -105h-46l80 144h70zM415 0h-72v69c-28 -49 -76 -81 -127 -81c-109 0 -174 101 -174 253c0 151 65 254 174 254c50 0 98 -28 127 -82v70h72v-483zM234 52c46 0 91 36 109 78v221c-18 42 -63 80 -109 80c-79 0 -117 -85 -117 -190
c0 -104 38 -189 117 -189z" />
    <glyph glyph-name="adieresis.alt1" horiz-adv-x="481" 
d="M375 604c0 -25 -20 -45 -45 -45s-45 20 -45 45c0 24 20 45 45 45s45 -21 45 -45zM201 604c0 -25 -21 -45 -45 -45c-25 0 -45 20 -45 45c0 24 20 45 45 45c24 0 45 -21 45 -45zM415 0h-72v69c-28 -49 -76 -81 -127 -81c-109 0 -174 101 -174 253c0 151 65 254 174 254
c50 0 98 -28 127 -82v70h72v-483zM234 52c46 0 91 36 109 78v221c-18 42 -63 80 -109 80c-79 0 -117 -85 -117 -190c0 -104 38 -189 117 -189z" />
    <glyph glyph-name="atilde.alt1" horiz-adv-x="481" 
d="M293 554c-64 0 -60 94 -102 94c-23 0 -41 -27 -41 -88h-42c0 76 28 134 85 134c64 0 61 -94 102 -94c24 0 41 27 41 88h42c0 -76 -28 -134 -85 -134zM415 0h-72v69c-28 -49 -76 -81 -127 -81c-109 0 -174 101 -174 253c0 151 65 254 174 254c50 0 98 -28 127 -82v70h72
v-483zM234 52c46 0 91 36 109 78v221c-18 42 -63 80 -109 80c-79 0 -117 -85 -117 -190c0 -104 38 -189 117 -189z" />
    <glyph glyph-name="aring.alt1" horiz-adv-x="481" 
d="M243 555c-50 0 -91 41 -91 91s41 90 91 90s90 -40 90 -90s-40 -91 -90 -91zM243 593c29 0 52 23 52 53c0 29 -23 53 -52 53s-53 -24 -53 -53c0 -30 24 -53 53 -53zM415 0h-72v69c-28 -49 -76 -81 -127 -81c-109 0 -174 101 -174 253c0 151 65 254 174 254
c50 0 98 -28 127 -82v70h72v-483zM234 52c46 0 91 36 109 78v221c-18 42 -63 80 -109 80c-79 0 -117 -85 -117 -190c0 -104 38 -189 117 -189z" />
    <glyph glyph-name="amacron.alt1" horiz-adv-x="481" 
d="M398 591h-306v46h306v-46zM415 0h-72v69c-28 -49 -76 -81 -127 -81c-109 0 -174 101 -174 253c0 151 65 254 174 254c50 0 98 -28 127 -82v70h72v-483zM234 52c46 0 91 36 109 78v221c-18 42 -63 80 -109 80c-79 0 -117 -85 -117 -190c0 -104 38 -189 117 -189z" />
    <glyph glyph-name="abreve.alt1" horiz-adv-x="481" 
d="M392 638c-33 -46 -87 -75 -147 -75s-114 29 -148 75l37 30c24 -36 66 -58 111 -58s86 22 111 58zM415 0h-72v69c-28 -49 -76 -81 -127 -81c-109 0 -174 101 -174 253c0 151 65 254 174 254c50 0 98 -28 127 -82v70h72v-483zM234 52c46 0 91 36 109 78v221
c-18 42 -63 80 -109 80c-79 0 -117 -85 -117 -190c0 -104 38 -189 117 -189z" />
    <glyph glyph-name="aogonek.alt1" horiz-adv-x="481" 
d="M415 0c-43 -25 -71 -58 -71 -102c0 -32 16 -46 37 -46c23 0 35 14 42 38l36 -19c-11 -31 -35 -57 -78 -57c-44 0 -80 25 -80 82c0 39 20 75 51 104h-9v69c-28 -49 -76 -81 -127 -81c-109 0 -174 101 -174 253c0 151 65 254 174 254c50 0 98 -28 127 -82v70h72v-483z
M234 52c46 0 91 36 109 78v221c-18 42 -63 80 -109 80c-79 0 -117 -85 -117 -190c0 -104 38 -189 117 -189z" />
    <glyph glyph-name="yacute.alt1" horiz-adv-x="465" 
d="M360 700l-135 -144h-51l114 144h72zM217 -196c-66 0 -117 21 -156 61l33 59c32 -39 75 -56 120 -56c71 0 114 46 114 129v78c-29 -41 -81 -78 -140 -78c-83 0 -122 41 -122 129v357h71v-336c0 -64 30 -87 78 -87c47 0 91 36 113 76v347h72v-486
c0 -127 -76 -193 -183 -193z" />
    <glyph glyph-name="ydieresis.alt1" horiz-adv-x="465" 
d="M363 604c0 -25 -20 -45 -45 -45s-45 20 -45 45c0 24 20 45 45 45s45 -21 45 -45zM189 604c0 -25 -21 -45 -45 -45c-25 0 -45 20 -45 45c0 24 20 45 45 45c24 0 45 -21 45 -45zM217 -196c-66 0 -117 21 -156 61l33 59c32 -39 75 -56 120 -56c71 0 114 46 114 129v78
c-29 -41 -81 -78 -140 -78c-83 0 -122 41 -122 129v357h71v-336c0 -64 30 -87 78 -87c47 0 91 36 113 76v347h72v-486c0 -127 -76 -193 -183 -193z" />
    <glyph glyph-name="ae.alt1" horiz-adv-x="768" 
d="M415 0h-72v69c-28 -49 -76 -81 -127 -81c-109 0 -174 101 -174 253c0 151 65 254 174 254c50 0 98 -28 127 -82v70h72v-86c25 60 69 98 137 98c119 0 177 -114 177 -255v-22h-314c3 -97 53 -169 140 -169c42 0 85 21 115 60l38 -45c-35 -46 -83 -76 -144 -76
c-74 0 -122 38 -149 102v-90zM234 52c46 0 91 36 109 78v221c-18 42 -63 80 -109 80c-79 0 -117 -85 -117 -190c0 -104 38 -189 117 -189zM658 272c-1 73 -33 163 -122 163c-83 0 -118 -88 -121 -158v-5h243z" />
    <glyph glyph-name="zero.pzero" horiz-adv-x="514" 
d="M257 -12c-52 0 -93 20 -124 53l-21 -41h-58l46 88c-38 67 -53 160 -53 245c0 161 54 344 210 344c51 0 91 -20 122 -52l22 42h58l-46 -88c38 -68 54 -160 54 -246c0 -160 -54 -345 -210 -345zM257 59c102 0 128 143 128 274c0 55 -5 111 -17 159l-198 -380
c20 -33 48 -53 87 -53zM129 333c0 -54 4 -110 16 -158l197 380c-19 31 -47 51 -85 51c-103 0 -128 -141 -128 -273z" />
    <glyph glyph-name="Gcircumflex.alt1" horiz-adv-x="578" 
d="M422 728h-46l-72 105l-69 -105h-46l80 144h70zM303 -12c-153 0 -256 139 -256 345s103 345 260 345c98 0 159 -55 199 -126l-64 -33c-29 52 -74 88 -135 88c-107 0 -178 -110 -178 -274c0 -163 71 -274 178 -274c101 0 148 101 156 212h-191v70h272
c0 -217 -77 -353 -241 -353z" />
    <glyph glyph-name="Gdotaccent.alt1" horiz-adv-x="578" 
d="M303 727c-24 0 -46 21 -46 46s22 45 46 45c25 0 45 -20 45 -45s-20 -46 -45 -46zM303 -12c-153 0 -256 139 -256 345s103 345 260 345c98 0 159 -55 199 -126l-64 -33c-29 52 -74 88 -135 88c-107 0 -178 -110 -178 -274c0 -163 71 -274 178 -274c101 0 148 101 156 212
h-191v70h272c0 -217 -77 -353 -241 -353z" />
    <glyph glyph-name="Gcircumflex.smcp.alt1" horiz-adv-x="500" 
d="M267 -12c-136 0 -224 118 -224 287c0 170 88 287 227 287c83 0 137 -46 173 -107l-59 -30c-26 42 -63 71 -114 71c-92 0 -150 -91 -150 -221c0 -129 57 -221 150 -221c77 0 126 79 133 168h-148v63h223c0 -175 -72 -297 -211 -297zM386 606h-46l-72 105l-69 -105h-46
l80 144h70z" />
    <glyph glyph-name="Gdotaccent.smcp.alt1" horiz-adv-x="500" 
d="M267 -12c-136 0 -224 118 -224 287c0 170 88 287 227 287c83 0 137 -46 173 -107l-59 -30c-26 42 -63 71 -114 71c-92 0 -150 -91 -150 -221c0 -129 57 -221 150 -221c77 0 126 79 133 168h-148v63h223c0 -175 -72 -297 -211 -297zM271 630c-24 0 -46 21 -46 46
s22 45 46 45c25 0 45 -20 45 -45s-20 -46 -45 -46z" />
    <glyph glyph-name="aeacute.alt1" horiz-adv-x="739" 
d="M415 0h-72v69c-28 -49 -76 -81 -127 -81c-109 0 -174 101 -174 253c0 151 65 254 174 254c50 0 98 -28 127 -82v70h72v-86c25 60 69 98 137 98c119 0 177 -114 177 -255v-22h-314c3 -97 53 -169 140 -169c42 0 85 21 115 60l38 -45c-35 -46 -83 -76 -144 -76
c-74 0 -122 38 -149 102v-90zM234 52c46 0 91 36 109 78v221c-18 42 -63 80 -109 80c-79 0 -117 -85 -117 -190c0 -104 38 -189 117 -189zM658 272c-1 73 -33 163 -122 163c-85 0 -119 -93 -121 -163h243zM508 700l-135 -144h-51l114 144h72z" />
    <glyph glyph-name="ycircumflex.alt1" horiz-adv-x="465" 
d="M350 556h-46l-72 105l-69 -105h-46l80 144h70zM217 -196c-66 0 -117 21 -156 61l33 59c32 -39 75 -56 120 -56c71 0 114 46 114 129v78c-29 -41 -81 -78 -140 -78c-83 0 -122 41 -122 129v357h71v-336c0 -64 30 -87 78 -87c47 0 91 36 113 76v347h72v-486
c0 -127 -76 -193 -183 -193z" />
    <glyph glyph-name="ldot.alt1" horiz-adv-x="297" 
d="M162 -12c-66 0 -96 38 -96 109v570h71v-557c0 -36 12 -58 40 -58c17 0 33 8 41 19l22 -54c-17 -17 -41 -29 -78 -29zM304 245c0 -29 -25 -54 -54 -54s-53 25 -53 54c0 28 24 53 53 53s54 -25 54 -53z" />
    <glyph glyph-name="fl.alt1" horiz-adv-x="491" 
d="M155 0h-72v420h-64v63h64v58c0 86 48 136 118 136c25 0 45 -5 62 -15l-18 -58c-7 6 -18 9 -31 9c-38 0 -59 -27 -59 -72v-58h81v-63h-81v-420zM415 -12c-66 0 -96 38 -96 109v570h71v-557c0 -36 12 -58 40 -58c17 0 33 8 41 19l22 -54c-17 -17 -41 -29 -78 -29z" />
    <glyph glyph-name="f_f_l.alt1" horiz-adv-x="745" 
d="M155 0h-72v420h-64v63h64v58c0 85 46 136 121 136c32 0 62 -8 86 -32l-28 -53c-13 14 -28 21 -46 21c-41 0 -61 -27 -61 -72v-58h81v-63h-81v-420zM408 0h-72v420h-64v63h64v58c0 86 48 136 118 136c25 0 45 -5 62 -15l-18 -58c-7 6 -18 9 -31 9c-38 0 -59 -27 -59 -72
v-58h81v-63h-81v-420zM669 -12c-66 0 -96 38 -96 109v570h71v-557c0 -36 12 -58 40 -58c17 0 33 8 41 19l22 -54c-17 -17 -41 -29 -78 -29z" />
    <glyph glyph-name="Amacron" unicode="&#x100;" horiz-adv-x="512" 
d="M504 0h-86l-43 151h-238l-43 -151h-86l201 667h95zM358 222l-102 357l-102 -357h204zM409 749h-306v46h306v-46z" />
    <glyph glyph-name="amacron" unicode="&#x101;" horiz-adv-x="452" 
d="M387 0h-72v53c-31 -45 -79 -65 -128 -65c-78 0 -146 60 -146 161s68 159 146 159c50 0 97 -19 128 -63v85c0 66 -36 103 -99 103c-45 0 -84 -17 -122 -59l-32 50c46 49 103 71 165 71c95 0 160 -48 160 -157v-338zM211 40c41 0 81 18 104 60v95c-23 43 -63 61 -104 61
c-61 0 -97 -48 -97 -108s36 -108 97 -108zM378 578h-306v46h306v-46z" />
    <glyph glyph-name="Abreve" unicode="&#x102;" horiz-adv-x="512" 
d="M504 0h-86l-43 151h-238l-43 -151h-86l201 667h95zM358 222l-102 357l-102 -357h204zM403 797c-33 -46 -87 -75 -147 -75s-114 29 -148 75l37 30c24 -36 66 -58 111 -58s86 22 111 58z" />
    <glyph glyph-name="abreve" unicode="&#x103;" horiz-adv-x="452" 
d="M387 0h-72v53c-31 -45 -79 -65 -128 -65c-78 0 -146 60 -146 161s68 159 146 159c50 0 97 -19 128 -63v85c0 66 -36 103 -99 103c-45 0 -84 -17 -122 -59l-32 50c46 49 103 71 165 71c95 0 160 -48 160 -157v-338zM211 40c41 0 81 18 104 60v95c-23 43 -63 61 -104 61
c-61 0 -97 -48 -97 -108s36 -108 97 -108zM373 638c-33 -46 -87 -75 -147 -75s-114 29 -148 75l37 30c24 -36 66 -58 111 -58s86 22 111 58z" />
    <glyph glyph-name="Aogonek" unicode="&#x104;" horiz-adv-x="512" 
d="M512 -110l36 -19c-11 -31 -35 -57 -78 -57c-44 0 -80 25 -80 82c0 39 20 75 51 104h-23l-43 151h-238l-43 -151h-86l201 667h95l200 -667c-43 -25 -71 -58 -71 -102c0 -32 16 -46 37 -46c23 0 35 14 42 38zM358 222l-102 357l-102 -357h204z" />
    <glyph glyph-name="aogonek" unicode="&#x105;" horiz-adv-x="452" 
d="M395 -110l36 -19c-11 -31 -35 -57 -78 -57c-44 0 -80 25 -80 82c0 39 20 75 51 104h-9v53c-31 -45 -79 -65 -128 -65c-78 0 -146 60 -146 161s68 159 146 159c50 0 97 -19 128 -63v85c0 66 -36 103 -99 103c-45 0 -84 -17 -122 -59l-32 50c46 49 103 71 165 71
c95 0 160 -48 160 -157v-338c-43 -25 -71 -58 -71 -102c0 -32 16 -46 37 -46c23 0 35 14 42 38zM211 40c41 0 81 18 104 60v95c-23 43 -63 61 -104 61c-61 0 -97 -48 -97 -108s36 -108 97 -108z" />
    <glyph glyph-name="Cacute" unicode="&#x106;" horiz-adv-x="534" 
d="M307 -12c-160 0 -260 145 -260 345s100 345 260 345c101 0 159 -61 196 -130l-66 -32c-27 55 -71 91 -130 91c-109 0 -178 -115 -178 -274c0 -158 69 -274 178 -274c61 0 106 42 131 99l66 -31c-37 -74 -94 -139 -197 -139zM434 872l-135 -144h-51l114 144h72z" />
    <glyph glyph-name="cacute" unicode="&#x107;" horiz-adv-x="407" 
d="M243 -12c-125 0 -201 111 -201 254s76 253 201 253c67 0 108 -27 138 -64l-39 -49c-26 35 -56 49 -93 49c-86 0 -132 -86 -132 -189s46 -190 132 -190c37 0 67 15 93 49l39 -49c-30 -38 -71 -64 -138 -64zM373 700l-135 -144h-51l114 144h72z" />
    <glyph glyph-name="Ccircumflex" unicode="&#x108;" horiz-adv-x="534" 
d="M307 -12c-160 0 -260 145 -260 345s100 345 260 345c101 0 159 -61 196 -130l-66 -32c-27 55 -71 91 -130 91c-109 0 -178 -115 -178 -274c0 -158 69 -274 178 -274c61 0 106 42 131 99l66 -31c-37 -74 -94 -139 -197 -139zM424 728h-46l-72 105l-69 -105h-46l80 144h70z
" />
    <glyph glyph-name="ccircumflex" unicode="&#x109;" horiz-adv-x="407" 
d="M243 -12c-125 0 -201 111 -201 254s76 253 201 253c67 0 108 -27 138 -64l-39 -49c-26 35 -56 49 -93 49c-86 0 -132 -86 -132 -189s46 -190 132 -190c37 0 67 15 93 49l39 -49c-30 -38 -71 -64 -138 -64zM362 556h-46l-72 105l-69 -105h-46l80 144h70z" />
    <glyph glyph-name="Cdotaccent" unicode="&#x10a;" horiz-adv-x="534" 
d="M307 -12c-160 0 -260 145 -260 345s100 345 260 345c101 0 159 -61 196 -130l-66 -32c-27 55 -71 91 -130 91c-109 0 -178 -115 -178 -274c0 -158 69 -274 178 -274c61 0 106 42 131 99l66 -31c-37 -74 -94 -139 -197 -139zM307 727c-24 0 -46 21 -46 46s22 45 46 45
c25 0 45 -20 45 -45s-20 -46 -45 -46z" />
    <glyph glyph-name="cdotaccent" unicode="&#x10b;" horiz-adv-x="407" 
d="M243 -12c-125 0 -201 111 -201 254s76 253 201 253c67 0 108 -27 138 -64l-39 -49c-26 35 -56 49 -93 49c-86 0 -132 -86 -132 -189s46 -190 132 -190c37 0 67 15 93 49l39 -49c-30 -38 -71 -64 -138 -64zM244 574c-24 0 -46 21 -46 46s22 45 46 45c25 0 45 -20 45 -45
s-20 -46 -45 -46z" />
    <glyph glyph-name="Ccaron" unicode="&#x10c;" horiz-adv-x="534" 
d="M307 -12c-160 0 -260 145 -260 345s100 345 260 345c101 0 159 -61 196 -130l-66 -32c-27 55 -71 91 -130 91c-109 0 -178 -115 -178 -274c0 -158 69 -274 178 -274c61 0 106 42 131 99l66 -31c-37 -74 -94 -139 -197 -139zM344 728h-70l-83 144h46l72 -105l69 105h46z
" />
    <glyph glyph-name="ccaron" unicode="&#x10d;" horiz-adv-x="407" 
d="M243 -12c-125 0 -201 111 -201 254s76 253 201 253c67 0 108 -27 138 -64l-39 -49c-26 35 -56 49 -93 49c-86 0 -132 -86 -132 -189s46 -190 132 -190c37 0 67 15 93 49l39 -49c-30 -38 -71 -64 -138 -64zM282 556h-70l-83 144h46l72 -105l69 105h46z" />
    <glyph glyph-name="Dcaron" unicode="&#x10e;" horiz-adv-x="565" 
d="M248 0h-178v667h178c174 0 270 -144 270 -334c0 -191 -96 -333 -270 -333zM248 71c124 0 187 112 187 262c0 151 -62 263 -187 263h-98v-525h98zM318 728h-70l-83 144h46l72 -105l69 105h46z" />
    <glyph glyph-name="dcaron" unicode="&#x10f;" horiz-adv-x="557" 
d="M415 0h-72v69c-28 -49 -76 -81 -127 -81c-109 0 -174 101 -174 253c0 151 65 254 174 254c50 0 98 -28 127 -82v254h72v-667zM234 52c46 0 91 36 109 78v222c-18 42 -63 79 -109 79c-79 0 -117 -85 -117 -190c0 -104 38 -189 117 -189zM561 614c0 -54 -32 -105 -71 -133
l-31 25c30 21 55 57 57 87c-1 0 -7 -1 -11 -1c-23 0 -41 18 -41 43c0 24 20 45 45 45c28 0 52 -24 52 -66z" />
    <glyph glyph-name="Dcroat" unicode="&#x110;" horiz-adv-x="589" 
d="M272 0h-178v300h-78v58h78v309h178c174 0 270 -144 270 -334c0 -191 -96 -333 -270 -333zM298 300h-124v-229h98c124 0 187 112 187 262c0 151 -62 263 -187 263h-98v-238h124v-58z" />
    <glyph glyph-name="dcroat" unicode="&#x111;" horiz-adv-x="489" 
d="M415 0h-72v69c-28 -49 -76 -81 -127 -81c-109 0 -174 101 -174 253c0 151 65 254 174 254c50 0 98 -28 127 -82v122h-138v46h138v86h72v-86h60v-46h-60v-535zM234 52c46 0 91 36 109 78v222c-18 42 -63 79 -109 79c-79 0 -117 -85 -117 -190c0 -104 38 -189 117 -189z
" />
    <glyph glyph-name="Emacron" unicode="&#x112;" horiz-adv-x="462" 
d="M413 0h-343v667h343v-71h-263v-219h256v-71h-256v-235h263v-71zM394 749h-306v46h306v-46z" />
    <glyph glyph-name="emacron" unicode="&#x113;" horiz-adv-x="469" 
d="M250 -12c-129 0 -208 106 -208 254c0 140 74 253 197 253c128 0 191 -114 191 -255v-22h-314c3 -97 53 -170 140 -170c42 0 85 21 115 60l38 -43c-39 -48 -94 -77 -159 -77zM359 272c-1 73 -33 163 -122 163c-85 0 -119 -93 -121 -163h243zM388 578h-306v46h306v-46z" />
    <glyph glyph-name="Ebreve" unicode="&#x114;" horiz-adv-x="462" 
d="M413 0h-343v667h343v-71h-263v-219h256v-71h-256v-235h263v-71zM389 797c-33 -46 -87 -75 -147 -75s-114 29 -148 75l37 30c24 -36 66 -58 111 -58s86 22 111 58z" />
    <glyph glyph-name="ebreve" unicode="&#x115;" horiz-adv-x="469" 
d="M250 -12c-129 0 -208 106 -208 254c0 140 74 253 197 253c128 0 191 -114 191 -255v-22h-314c3 -97 53 -170 140 -170c42 0 85 21 115 60l38 -43c-39 -48 -94 -77 -159 -77zM359 272c-1 73 -33 163 -122 163c-85 0 -119 -93 -121 -163h243zM388 638
c-33 -46 -87 -75 -147 -75s-114 29 -148 75l37 30c24 -36 66 -58 111 -58s86 22 111 58z" />
    <glyph glyph-name="Edotaccent" unicode="&#x116;" horiz-adv-x="462" 
d="M413 0h-343v667h343v-71h-263v-219h256v-71h-256v-235h263v-71zM248 727c-24 0 -46 21 -46 46s22 45 46 45c25 0 45 -20 45 -45s-20 -46 -45 -46z" />
    <glyph glyph-name="edotaccent" unicode="&#x117;" horiz-adv-x="469" 
d="M250 -12c-129 0 -208 106 -208 254c0 140 74 253 197 253c128 0 191 -114 191 -255v-22h-314c3 -97 53 -170 140 -170c42 0 85 21 115 60l38 -43c-39 -48 -94 -77 -159 -77zM359 272c-1 73 -33 163 -122 163c-85 0 -119 -93 -121 -163h243zM239 574c-24 0 -46 21 -46 46
s22 45 46 45c25 0 45 -20 45 -45s-20 -46 -45 -46z" />
    <glyph glyph-name="Eogonek" unicode="&#x118;" horiz-adv-x="462" 
d="M421 -110l36 -19c-11 -31 -35 -57 -78 -57c-44 0 -80 25 -80 82c0 39 20 75 51 104h-280v667h343v-71h-263v-219h256v-71h-256v-235h263v-71c-43 -25 -71 -58 -71 -102c0 -32 16 -46 37 -46c23 0 35 14 42 38z" />
    <glyph glyph-name="eogonek" unicode="&#x119;" horiz-adv-x="469" 
d="M327 -110l36 -19c-11 -31 -35 -57 -78 -57c-44 0 -80 25 -80 82c0 34 15 66 39 92c-125 3 -202 108 -202 254c0 140 74 253 197 253c128 0 191 -114 191 -255v-22h-314c3 -97 53 -170 140 -170c42 0 85 21 115 60l38 -43c-25 -31 -56 -54 -92 -66
c-42 -25 -69 -57 -69 -101c0 -32 16 -46 37 -46c23 0 35 14 42 38zM359 272c-1 73 -33 163 -122 163c-85 0 -119 -93 -121 -163h243z" />
    <glyph glyph-name="Ecaron" unicode="&#x11a;" horiz-adv-x="462" 
d="M413 0h-343v667h343v-71h-263v-219h256v-71h-256v-235h263v-71zM278 728h-70l-83 144h46l72 -105l69 105h46z" />
    <glyph glyph-name="ecaron" unicode="&#x11b;" horiz-adv-x="469" 
d="M250 -12c-129 0 -208 106 -208 254c0 140 74 253 197 253c128 0 191 -114 191 -255v-22h-314c3 -97 53 -170 140 -170c42 0 85 21 115 60l38 -43c-39 -48 -94 -77 -159 -77zM359 272c-1 73 -33 163 -122 163c-85 0 -119 -93 -121 -163h243zM275 556h-70l-83 144h46
l72 -105l69 105h46z" />
    <glyph glyph-name="Gcircumflex" unicode="&#x11c;" horiz-adv-x="564" 
d="M307 -12c-157 0 -260 139 -260 345s103 345 260 345c98 0 159 -55 199 -126l-64 -33c-29 52 -74 88 -135 88c-107 0 -178 -110 -178 -274c0 -163 71 -274 178 -274c57 0 102 27 126 57v155h-161v70h236v-256c-48 -61 -117 -97 -201 -97zM426 728h-46l-72 105l-69 -105
h-46l80 144h70z" />
    <glyph glyph-name="gcircumflex" unicode="&#x11d;" horiz-adv-x="481" 
d="M224 -196c-65 0 -115 15 -162 61l33 59c33 -38 74 -56 126 -56c67 0 122 37 122 129v80c-28 -49 -76 -83 -127 -83c-109 0 -174 98 -174 250c0 151 65 251 174 251c50 0 98 -28 127 -82v70h72v-486c0 -145 -90 -193 -191 -193zM234 58c46 0 90 38 109 80v214
c-19 42 -63 79 -109 79c-79 0 -117 -83 -117 -187s38 -186 117 -186zM359 550h-46l-72 105l-69 -105h-46l80 144h70z" />
    <glyph glyph-name="Gbreve" unicode="&#x11e;" horiz-adv-x="564" 
d="M307 -12c-157 0 -260 139 -260 345s103 345 260 345c98 0 159 -55 199 -126l-64 -33c-29 52 -74 88 -135 88c-107 0 -178 -110 -178 -274c0 -163 71 -274 178 -274c57 0 102 27 126 57v155h-161v70h236v-256c-48 -61 -117 -97 -201 -97zM456 797
c-33 -46 -87 -75 -147 -75s-114 29 -148 75l37 30c24 -36 66 -58 111 -58s86 22 111 58z" />
    <glyph glyph-name="gbreve" unicode="&#x11f;" horiz-adv-x="481" 
d="M224 -196c-65 0 -115 15 -162 61l33 59c33 -38 74 -56 126 -56c67 0 122 37 122 129v80c-28 -49 -76 -83 -127 -83c-109 0 -174 98 -174 250c0 151 65 251 174 251c50 0 98 -28 127 -82v70h72v-486c0 -145 -90 -193 -191 -193zM234 58c46 0 90 38 109 80v214
c-19 42 -63 79 -109 79c-79 0 -117 -83 -117 -187s38 -186 117 -186zM386 638c-33 -46 -87 -75 -147 -75s-114 29 -148 75l37 30c24 -36 66 -58 111 -58s86 22 111 58z" />
    <glyph glyph-name="Gdotaccent" unicode="&#x120;" horiz-adv-x="564" 
d="M307 -12c-157 0 -260 139 -260 345s103 345 260 345c98 0 159 -55 199 -126l-64 -33c-29 52 -74 88 -135 88c-107 0 -178 -110 -178 -274c0 -163 71 -274 178 -274c57 0 102 27 126 57v155h-161v70h236v-256c-48 -61 -117 -97 -201 -97zM308 727c-24 0 -46 21 -46 46
s22 45 46 45c25 0 45 -20 45 -45s-20 -46 -45 -46z" />
    <glyph glyph-name="gdotaccent" unicode="&#x121;" horiz-adv-x="481" 
d="M224 -196c-65 0 -115 15 -162 61l33 59c33 -38 74 -56 126 -56c67 0 122 37 122 129v80c-28 -49 -76 -83 -127 -83c-109 0 -174 98 -174 250c0 151 65 251 174 251c50 0 98 -28 127 -82v70h72v-486c0 -145 -90 -193 -191 -193zM234 58c46 0 90 38 109 80v214
c-19 42 -63 79 -109 79c-79 0 -117 -83 -117 -187s38 -186 117 -186zM240 574c-24 0 -46 21 -46 46s22 45 46 45c25 0 45 -20 45 -45s-20 -46 -45 -46z" />
    <glyph glyph-name="Gcommaaccent" unicode="&#x122;" horiz-adv-x="564" 
d="M307 -12c-157 0 -260 139 -260 345s103 345 260 345c98 0 159 -55 199 -126l-64 -33c-29 52 -74 88 -135 88c-107 0 -178 -110 -178 -274c0 -163 71 -274 178 -274c57 0 102 27 126 57v155h-161v70h236v-256c-48 -61 -117 -97 -201 -97zM357 -138
c0 -54 -32 -105 -71 -133l-31 25c30 21 55 57 57 87c-1 0 -7 -1 -11 -1c-23 0 -41 18 -41 43c0 24 20 45 45 45c28 0 52 -24 52 -66z" />
    <glyph glyph-name="gcommaaccent" unicode="&#x123;" horiz-adv-x="481" 
d="M186 619c0 60 32 114 69 140l32 -26c-28 -19 -55 -55 -56 -84c0 0 2 1 4 1c22 0 45 -20 45 -45c0 -23 -20 -45 -46 -45c-23 0 -48 19 -48 59zM224 -196c-65 0 -115 15 -162 61l33 59c33 -38 74 -56 126 -56c67 0 122 37 122 129v80c-28 -49 -76 -83 -127 -83
c-109 0 -174 98 -174 250c0 151 65 251 174 251c50 0 98 -28 127 -82v70h72v-486c0 -145 -90 -193 -191 -193zM234 58c46 0 90 38 109 80v214c-19 42 -63 79 -109 79c-79 0 -117 -83 -117 -187s38 -186 117 -186z" />
    <glyph glyph-name="Hcircumflex" unicode="&#x124;" horiz-adv-x="575" 
d="M505 0h-79v308h-276v-308h-80v667h80v-289h276v289h79v-667zM403 728h-46l-72 105l-69 -105h-46l80 144h70z" />
    <glyph glyph-name="hcircumflex" unicode="&#x125;" horiz-adv-x="466" 
d="M400 0h-72v345c0 64 -29 86 -77 86s-92 -38 -114 -77v-354h-71v667h71v-253c28 42 83 81 141 81c82 0 122 -41 122 -130v-365zM220 728h-46l-72 105l-69 -105h-46l80 144h70z" />
    <glyph glyph-name="Hbar" unicode="&#x126;" horiz-adv-x="605" 
d="M521 0h-79v308h-276v-308h-80v501h-70v46h70v120h80v-120h276v120h79v-120h62v-46h-62v-501zM166 378h276v123h-276v-123z" />
    <glyph glyph-name="hbar" unicode="&#x127;" horiz-adv-x="474" 
d="M286 535h-141v-121c28 42 83 81 141 81c82 0 122 -41 122 -130v-365h-72v345c0 64 -29 86 -77 86s-92 -38 -114 -77v-354h-71v535h-58v46h58v86h71v-86h141v-46z" />
    <glyph glyph-name="Itilde" unicode="&#x128;" horiz-adv-x="220" 
d="M150 0h-80v667h80v-667zM160 726c-64 0 -60 94 -102 94c-23 0 -41 -27 -41 -88h-42c0 76 28 134 85 134c64 0 61 -94 102 -94c24 0 41 27 41 88h42c0 -76 -28 -134 -85 -134z" />
    <glyph glyph-name="itilde" unicode="&#x129;" horiz-adv-x="203" 
d="M137 0h-71v483h71v-483zM152 541c-64 0 -60 94 -102 94c-23 0 -41 -27 -41 -88h-42c0 76 28 134 85 134c64 0 61 -94 102 -94c24 0 41 27 41 88h42c0 -76 -28 -134 -85 -134z" />
    <glyph glyph-name="Imacron" unicode="&#x12a;" horiz-adv-x="220" 
d="M150 0h-80v667h80v-667zM263 749h-306v46h306v-46z" />
    <glyph glyph-name="imacron" unicode="&#x12b;" horiz-adv-x="203" 
d="M137 0h-71v483h71v-483zM255 578h-306v46h306v-46z" />
    <glyph glyph-name="Ibreve" unicode="&#x12c;" horiz-adv-x="220" 
d="M150 0h-80v667h80v-667zM258 797c-33 -46 -87 -75 -147 -75s-114 29 -148 75l37 30c24 -36 66 -58 111 -58s86 22 111 58z" />
    <glyph glyph-name="ibreve" unicode="&#x12d;" horiz-adv-x="203" 
d="M137 0h-71v483h71v-483zM249 638c-33 -46 -87 -75 -147 -75s-114 29 -148 75l37 30c24 -36 66 -58 111 -58s86 22 111 58z" />
    <glyph glyph-name="Iogonek" unicode="&#x12e;" horiz-adv-x="220" 
d="M158 -110l36 -19c-11 -31 -35 -57 -78 -57c-44 0 -80 25 -80 82c0 39 20 75 51 104h-17v667h80v-667c-43 -25 -71 -58 -71 -102c0 -32 16 -46 37 -46c23 0 35 14 42 38z" />
    <glyph glyph-name="iogonek" unicode="&#x12f;" horiz-adv-x="203" 
d="M145 -110l36 -19c-11 -31 -35 -57 -78 -57c-44 0 -80 25 -80 82c0 39 20 75 51 104h-8v483h71v-483c-43 -25 -71 -58 -71 -102c0 -32 16 -46 37 -46c23 0 35 14 42 38zM101 553c-26 0 -49 22 -49 49s23 49 49 49c28 0 49 -22 49 -49s-21 -49 -49 -49z" />
    <glyph glyph-name="Idotaccent" unicode="&#x130;" horiz-adv-x="220" 
d="M150 0h-80v667h80v-667zM110 727c-24 0 -46 21 -46 46s22 45 46 45c25 0 45 -20 45 -45s-20 -46 -45 -46z" />
    <glyph glyph-name="IJ" unicode="&#x132;" horiz-adv-x="619" 
d="M150 0h-80v667h80v-667zM369 -12c-55 0 -102 18 -140 61l36 62c24 -31 57 -52 98 -52c66 0 106 42 106 115v493h80v-495c0 -126 -77 -184 -180 -184z" />
    <glyph glyph-name="ij" unicode="&#x133;" horiz-adv-x="406" 
d="M101 553c-26 0 -49 22 -49 49s23 49 49 49c28 0 49 -22 49 -49s-21 -49 -49 -49zM137 0h-71v483h71v-483zM304 553c-26 0 -49 22 -49 49s23 49 49 49c28 0 49 -22 49 -49s-21 -49 -49 -49zM219 -196c-37 0 -60 11 -81 34l26 55c11 -15 27 -25 49 -25c32 0 56 20 56 73
v542h71v-542c0 -93 -42 -137 -121 -137z" />
    <glyph glyph-name="Jcircumflex" unicode="&#x134;" horiz-adv-x="399" 
d="M149 -12c-55 0 -102 18 -140 61l36 62c24 -31 57 -52 98 -52c66 0 106 42 106 115v493h80v-495c0 -126 -77 -184 -180 -184zM406 728h-46l-72 105l-69 -105h-46l80 144h70z" />
    <glyph glyph-name="jcircumflex" unicode="&#x135;" horiz-adv-x="203" 
d="M16 -196c-37 0 -60 11 -81 34l26 55c11 -15 27 -25 49 -25c32 0 56 20 56 73v542h71v-542c0 -93 -42 -137 -121 -137zM220 556h-46l-72 105l-69 -105h-46l80 144h70z" />
    <glyph glyph-name="Kcommaaccent" unicode="&#x136;" horiz-adv-x="513" 
d="M496 0h-95l-195 294l-56 -81v-213h-80v667h80v-346l233 346h95l-224 -316zM312 -138c0 -54 -32 -105 -71 -133l-31 25c30 21 55 57 57 87c-1 0 -7 -1 -11 -1c-23 0 -41 18 -41 43c0 24 20 45 45 45c28 0 52 -24 52 -66z" />
    <glyph glyph-name="kcommaaccent" unicode="&#x137;" horiz-adv-x="439" 
d="M424 0h-85l-133 218l-69 -87v-131h-71v667h71v-446l202 262h84l-168 -217zM275 -138c0 -54 -32 -105 -71 -133l-31 25c30 21 55 57 57 87c-1 0 -7 -1 -11 -1c-23 0 -41 18 -41 43c0 24 20 45 45 45c28 0 52 -24 52 -66z" />
    <glyph glyph-name="kgreenlandic" unicode="&#x138;" horiz-adv-x="439" 
d="M424 0h-85l-133 218l-69 -87v-131h-71v483h71v-262l202 262h84l-168 -217z" />
    <glyph glyph-name="Lacute" unicode="&#x139;" horiz-adv-x="414" 
d="M386 0h-322v667h80v-596h242v-71zM344 872l-135 -144h-51l114 144h72z" />
    <glyph glyph-name="lacute" unicode="&#x13a;" horiz-adv-x="203" 
d="M137 0h-71v667h71v-667zM229 872l-135 -144h-51l114 144h72z" />
    <glyph glyph-name="Lcommaaccent" unicode="&#x13b;" horiz-adv-x="414" 
d="M386 0h-322v667h80v-596h242v-71zM262 -138c0 -54 -32 -105 -71 -133l-31 25c30 21 55 57 57 87c-1 0 -7 -1 -11 -1c-23 0 -41 18 -41 43c0 24 20 45 45 45c28 0 52 -24 52 -66z" />
    <glyph glyph-name="lcommaaccent" unicode="&#x13c;" horiz-adv-x="203" 
d="M137 0h-71v667h71v-667zM158 -138c0 -54 -32 -105 -71 -133l-31 25c30 21 55 57 57 87c-1 0 -7 -1 -11 -1c-23 0 -41 18 -41 43c0 24 20 45 45 45c28 0 52 -24 52 -66z" />
    <glyph glyph-name="Lcaron" unicode="&#x13d;" horiz-adv-x="414" 
d="M386 0h-322v667h80v-596h242v-71zM316 614c0 -54 -32 -105 -71 -133l-31 25c30 21 55 57 57 87c-1 0 -7 -1 -11 -1c-23 0 -41 18 -41 43c0 24 20 45 45 45c28 0 52 -24 52 -66z" />
    <glyph glyph-name="lcaron" unicode="&#x13e;" horiz-adv-x="276" 
d="M137 0h-71v667h71v-667zM297 614c0 -54 -32 -105 -71 -133l-31 25c30 21 55 57 57 87c-1 0 -7 -1 -11 -1c-23 0 -41 18 -41 43c0 24 20 45 45 45c28 0 52 -24 52 -66z" />
    <glyph glyph-name="Ldot" unicode="&#x13f;" horiz-adv-x="439" 
d="M386 0h-322v667h80v-596h242v-71zM379 342c0 -29 -25 -54 -54 -54s-53 25 -53 54c0 28 24 53 53 53s54 -25 54 -53z" />
    <glyph glyph-name="ldot" unicode="&#x140;" horiz-adv-x="297" 
d="M137 0h-71v667h71v-667zM304 245c0 -29 -25 -54 -54 -54s-53 25 -53 54c0 28 24 53 53 53s54 -25 54 -53z" />
    <glyph glyph-name="Nacute" unicode="&#x143;" horiz-adv-x="573" 
d="M503 0h-76l-277 508v-508h-80v667h80l274 -498v498h79v-667zM414 872l-135 -144h-51l114 144h72z" />
    <glyph glyph-name="nacute" unicode="&#x144;" horiz-adv-x="466" 
d="M401 0h-72v343c0 65 -29 88 -77 88s-92 -38 -114 -77v-354h-71v483h71v-69c28 42 83 81 141 81c82 0 122 -44 122 -131v-364zM360 700l-135 -144h-51l114 144h72z" />
    <glyph glyph-name="Ncommaaccent" unicode="&#x145;" horiz-adv-x="573" 
d="M503 0h-76l-277 508v-508h-80v667h80l274 -498v498h79v-667zM342 -138c0 -54 -32 -105 -71 -133l-31 25c30 21 55 57 57 87c-1 0 -7 -1 -11 -1c-23 0 -41 18 -41 43c0 24 20 45 45 45c28 0 52 -24 52 -66z" />
    <glyph glyph-name="ncommaaccent" unicode="&#x146;" horiz-adv-x="466" 
d="M401 0h-72v343c0 65 -29 88 -77 88s-92 -38 -114 -77v-354h-71v483h71v-69c28 42 83 81 141 81c82 0 122 -44 122 -131v-364zM289 -138c0 -54 -32 -105 -71 -133l-31 25c30 21 55 57 57 87c-1 0 -7 -1 -11 -1c-23 0 -41 18 -41 43c0 24 20 45 45 45c28 0 52 -24 52 -66z
" />
    <glyph glyph-name="Ncaron" unicode="&#x147;" horiz-adv-x="573" 
d="M503 0h-76l-277 508v-508h-80v667h80l274 -498v498h79v-667zM323 728h-70l-83 144h46l72 -105l69 105h46z" />
    <glyph glyph-name="ncaron" unicode="&#x148;" horiz-adv-x="466" 
d="M401 0h-72v343c0 65 -29 88 -77 88s-92 -38 -114 -77v-354h-71v483h71v-69c28 42 83 81 141 81c82 0 122 -44 122 -131v-364zM269 556h-70l-83 144h46l72 -105l69 105h46z" />
    <glyph glyph-name="napostrophe" unicode="&#x149;" horiz-adv-x="466" 
d="M401 0h-72v343c0 65 -29 88 -77 88s-92 -38 -114 -77v-354h-71v483h71v-69c28 42 83 81 141 81c82 0 122 -44 122 -131v-364zM150 676c0 -54 -32 -105 -71 -133l-31 25c30 21 55 57 57 87c-1 0 -7 -1 -11 -1c-23 0 -41 18 -41 43c0 24 20 45 45 45c28 0 52 -24 52 -66z
" />
    <glyph glyph-name="Eng" unicode="&#x14a;" horiz-adv-x="573" 
d="M323 -196c-55 0 -101 18 -140 61l36 61c24 -31 57 -51 98 -51c66 0 107 40 107 113v17l-274 503v-508h-80v667h80l274 -498v498h79v-680c0 -127 -76 -183 -180 -183z" />
    <glyph glyph-name="eng" unicode="&#x14b;" horiz-adv-x="466" 
d="M279 -196c-37 0 -60 11 -81 34l26 55c11 -15 27 -25 48 -25c33 0 56 20 56 73v402c0 65 -29 88 -77 88s-92 -38 -114 -77v-354h-71v483h71v-69c28 42 83 81 141 81c82 0 122 -44 122 -131v-423c0 -93 -42 -137 -121 -137z" />
    <glyph glyph-name="Omacron" unicode="&#x14c;" horiz-adv-x="601" 
d="M300 -12c-162 0 -253 152 -253 345s91 345 253 345c163 0 254 -152 254 -345s-91 -345 -254 -345zM300 59c111 0 172 122 172 274c0 154 -61 274 -172 274s-171 -120 -171 -274c0 -152 60 -274 171 -274zM453 749h-306v46h306v-46z" />
    <glyph glyph-name="omacron" unicode="&#x14d;" horiz-adv-x="478" 
d="M239 -12c-129 0 -197 118 -197 254s68 253 197 253c130 0 197 -117 197 -253s-67 -254 -197 -254zM239 52c85 0 122 92 122 190c0 97 -37 189 -122 189c-84 0 -121 -92 -121 -189c0 -98 37 -190 121 -190zM392 578h-306v46h306v-46z" />
    <glyph glyph-name="Obreve" unicode="&#x14e;" horiz-adv-x="601" 
d="M300 -12c-162 0 -253 152 -253 345s91 345 253 345c163 0 254 -152 254 -345s-91 -345 -254 -345zM300 59c111 0 172 122 172 274c0 154 -61 274 -172 274s-171 -120 -171 -274c0 -152 60 -274 171 -274zM447 797c-33 -46 -87 -75 -147 -75s-114 29 -148 75l37 30
c24 -36 66 -58 111 -58s86 22 111 58z" />
    <glyph glyph-name="obreve" unicode="&#x14f;" horiz-adv-x="478" 
d="M239 -12c-129 0 -197 118 -197 254s68 253 197 253c130 0 197 -117 197 -253s-67 -254 -197 -254zM239 52c85 0 122 92 122 190c0 97 -37 189 -122 189c-84 0 -121 -92 -121 -189c0 -98 37 -190 121 -190zM387 638c-33 -46 -87 -75 -147 -75s-114 29 -148 75l37 30
c24 -36 66 -58 111 -58s86 22 111 58z" />
    <glyph glyph-name="Ohungarumlaut" unicode="&#x150;" horiz-adv-x="601" 
d="M300 -12c-162 0 -253 152 -253 345s91 345 253 345c163 0 254 -152 254 -345s-91 -345 -254 -345zM300 59c111 0 172 122 172 274c0 154 -61 274 -172 274s-171 -120 -171 -274c0 -152 60 -274 171 -274zM341 872l-96 -144h-43l75 144h64zM471 872l-97 -144h-43l75 144
h65z" />
    <glyph glyph-name="ohungarumlaut" unicode="&#x151;" horiz-adv-x="478" 
d="M239 -12c-129 0 -197 118 -197 254s68 253 197 253c130 0 197 -117 197 -253s-67 -254 -197 -254zM239 52c85 0 122 92 122 190c0 97 -37 189 -122 189c-84 0 -121 -92 -121 -189c0 -98 37 -190 121 -190zM280 700l-96 -144h-43l75 144h64zM410 700l-97 -144h-43l75 144
h65z" />
    <glyph glyph-name="Racute" unicode="&#x154;" horiz-adv-x="510" 
d="M465 0h-90l-129 267h-96v-267h-80v667h204c107 0 184 -77 184 -199c0 -119 -67 -177 -133 -189zM265 337c69 0 111 54 111 130s-42 129 -111 129h-115v-259h115zM382 872l-135 -144h-51l114 144h72z" />
    <glyph glyph-name="racute" unicode="&#x155;" horiz-adv-x="291" 
d="M137 0h-71v483h71v-77c31 51 78 87 137 87v-73c-8 1 -16 2 -24 2c-44 0 -93 -38 -113 -79v-343zM296 700l-135 -144h-51l114 144h72z" />
    <glyph glyph-name="Rcommaaccent" unicode="&#x156;" horiz-adv-x="510" 
d="M465 0h-90l-129 267h-96v-267h-80v667h204c107 0 184 -77 184 -199c0 -119 -67 -177 -133 -189zM265 337c69 0 111 54 111 130s-42 129 -111 129h-115v-259h115zM310 -138c0 -54 -32 -105 -71 -133l-31 25c30 21 55 57 57 87c-1 0 -7 -1 -11 -1c-23 0 -41 18 -41 43
c0 24 20 45 45 45c28 0 52 -24 52 -66z" />
    <glyph glyph-name="rcommaaccent" unicode="&#x157;" horiz-adv-x="291" 
d="M137 0h-71v483h71v-77c31 51 78 87 137 87v-73c-8 1 -16 2 -24 2c-44 0 -93 -38 -113 -79v-343zM201 -138c0 -54 -32 -105 -71 -133l-31 25c30 21 55 57 57 87c-1 0 -7 -1 -11 -1c-23 0 -41 18 -41 43c0 24 20 45 45 45c28 0 52 -24 52 -66z" />
    <glyph glyph-name="Rcaron" unicode="&#x158;" horiz-adv-x="510" 
d="M465 0h-90l-129 267h-96v-267h-80v667h204c107 0 184 -77 184 -199c0 -119 -67 -177 -133 -189zM265 337c69 0 111 54 111 130s-42 129 -111 129h-115v-259h115zM291 728h-70l-83 144h46l72 -105l69 105h46z" />
    <glyph glyph-name="rcaron" unicode="&#x159;" horiz-adv-x="291" 
d="M137 0h-71v483h71v-77c31 51 78 87 137 87v-73c-8 1 -16 2 -24 2c-44 0 -93 -38 -113 -79v-343zM204 556h-70l-83 144h46l72 -105l69 105h46z" />
    <glyph glyph-name="Sacute" unicode="&#x15a;" horiz-adv-x="472" 
d="M229 -12c-87 0 -154 33 -200 84l44 61c34 -41 90 -74 156 -74c84 0 122 53 122 110c0 162 -302 119 -302 334c0 102 81 175 192 175c74 0 135 -25 178 -71l-41 -60c-37 41 -86 60 -139 60c-62 0 -109 -40 -109 -100c0 -141 302 -110 302 -333c0 -98 -64 -186 -203 -186z
M361 872l-135 -144h-51l114 144h72z" />
    <glyph glyph-name="sacute" unicode="&#x15b;" horiz-adv-x="388" 
d="M191 -12c-69 0 -124 22 -164 69l36 50c28 -34 74 -61 126 -61c57 0 93 32 93 78c0 113 -241 73 -241 241c0 72 58 130 154 130c65 0 114 -25 148 -62l-34 -49c-24 32 -65 53 -113 53c-53 0 -86 -31 -86 -70c0 -103 242 -67 242 -241c0 -80 -62 -138 -161 -138zM322 700
l-135 -144h-51l114 144h72z" />
    <glyph glyph-name="Scircumflex" unicode="&#x15c;" horiz-adv-x="466" 
d="M356 728h-46l-72 105l-69 -105h-46l80 144h70zM229 -12c-87 0 -154 33 -200 84l44 61c34 -41 90 -74 156 -74c84 0 122 53 122 110c0 162 -302 119 -302 334c0 102 81 175 192 175c74 0 135 -25 178 -71l-41 -60c-37 41 -86 60 -139 60c-62 0 -109 -40 -109 -100
c0 -141 302 -110 302 -333c0 -98 -64 -186 -203 -186z" />
    <glyph glyph-name="scircumflex" unicode="&#x15d;" horiz-adv-x="388" 
d="M191 -12c-69 0 -124 22 -164 69l36 50c28 -34 74 -61 126 -61c57 0 93 32 93 78c0 113 -241 73 -241 241c0 72 58 130 154 130c65 0 114 -25 148 -62l-34 -49c-24 32 -65 53 -113 53c-53 0 -86 -31 -86 -70c0 -103 242 -67 242 -241c0 -80 -62 -138 -161 -138zM311 556
h-46l-72 105l-69 -105h-46l80 144h70z" />
    <glyph glyph-name="Scedilla" unicode="&#x15e;" horiz-adv-x="472" 
d="M224 -191c-37 0 -69 14 -89 30l18 37c22 -19 45 -28 70 -28c28 0 54 15 54 42c0 21 -12 35 -33 35c-14 0 -25 -7 -33 -16l-32 18l22 62c-74 7 -131 37 -172 83l44 61c34 -41 90 -74 156 -74c84 0 122 53 122 110c0 162 -302 119 -302 334c0 102 81 175 192 175
c74 0 135 -25 178 -71l-41 -60c-37 41 -86 60 -139 60c-62 0 -109 -40 -109 -100c0 -141 302 -110 302 -333c0 -95 -60 -180 -188 -186l-17 -43c9 7 20 10 33 10c34 0 60 -26 60 -66c0 -48 -42 -80 -96 -80z" />
    <glyph glyph-name="scedilla" unicode="&#x15f;" horiz-adv-x="388" 
d="M187 -191c-37 0 -69 14 -89 30l18 37c22 -19 45 -28 70 -28c28 0 54 15 54 42c0 21 -12 35 -33 35c-14 0 -25 -7 -33 -16l-32 18l22 62c-57 5 -103 27 -137 68l36 50c28 -34 74 -61 126 -61c57 0 93 32 93 78c0 113 -241 73 -241 241c0 72 58 130 154 130
c65 0 114 -25 148 -62l-34 -49c-24 32 -65 53 -113 53c-53 0 -86 -31 -86 -70c0 -103 242 -67 242 -241c0 -76 -56 -131 -145 -137l-17 -44c9 7 20 10 33 10c34 0 60 -26 60 -66c0 -48 -42 -80 -96 -80z" />
    <glyph glyph-name="Tcommaaccent" unicode="&#x162;" horiz-adv-x="447" 
d="M263 0h-79v596h-159v71h397v-71h-159v-596zM279 -138c0 -54 -32 -105 -71 -133l-31 25c30 21 55 57 57 87c-1 0 -7 -1 -11 -1c-23 0 -41 18 -41 43c0 24 20 45 45 45c28 0 52 -24 52 -66z" />
    <glyph glyph-name="Tcommaaccent" unicode="&#x21a;" horiz-adv-x="447" 
d="M263 0h-79v596h-159v71h397v-71h-159v-596zM279 -138c0 -54 -32 -105 -71 -133l-31 25c30 21 55 57 57 87c-1 0 -7 -1 -11 -1c-23 0 -41 18 -41 43c0 24 20 45 45 45c28 0 52 -24 52 -66z" />
    <glyph glyph-name="tcommaaccent" unicode="&#x163;" horiz-adv-x="263" 
d="M176 -12c-65 0 -96 38 -96 109v323h-64v63h64v132h72v-132h81v-63h-81v-310c0 -36 11 -58 39 -58c18 0 33 8 42 19l22 -54c-18 -17 -42 -29 -79 -29zM187 -138c0 -54 -32 -105 -71 -133l-31 25c30 21 55 57 57 87c-1 0 -7 -1 -11 -1c-23 0 -41 18 -41 43
c0 24 20 45 45 45c28 0 52 -24 52 -66z" />
    <glyph glyph-name="tcommaaccent" unicode="&#x21b;" horiz-adv-x="263" 
d="M176 -12c-65 0 -96 38 -96 109v323h-64v63h64v132h72v-132h81v-63h-81v-310c0 -36 11 -58 39 -58c18 0 33 8 42 19l22 -54c-18 -17 -42 -29 -79 -29zM187 -138c0 -54 -32 -105 -71 -133l-31 25c30 21 55 57 57 87c-1 0 -7 -1 -11 -1c-23 0 -41 18 -41 43
c0 24 20 45 45 45c28 0 52 -24 52 -66z" />
    <glyph glyph-name="Tcaron" unicode="&#x164;" horiz-adv-x="447" 
d="M263 0h-79v596h-159v71h397v-71h-159v-596zM260 728h-70l-83 144h46l72 -105l69 105h46z" />
    <glyph glyph-name="tcaron" unicode="&#x165;" horiz-adv-x="272" 
d="M176 -12c-65 0 -96 38 -96 109v323h-64v63h64v132h72v-132h81v-63h-81v-310c0 -36 11 -58 39 -58c18 0 33 8 42 19l22 -54c-18 -17 -42 -29 -79 -29zM305 676c0 -54 -32 -105 -71 -133l-31 25c30 21 55 57 57 87c-1 0 -7 -1 -11 -1c-23 0 -41 18 -41 43c0 24 20 45 45 45
c28 0 52 -24 52 -66z" />
    <glyph glyph-name="Tbar" unicode="&#x166;" horiz-adv-x="447" 
d="M263 0h-79v296h-113v46h113v254h-159v71h397v-71h-159v-254h109v-46h-109v-296z" />
    <glyph glyph-name="tbar" unicode="&#x167;" horiz-adv-x="263" 
d="M204 228h-52v-118c0 -36 11 -58 39 -58c18 0 33 8 42 19l22 -54c-18 -17 -42 -29 -79 -29c-65 0 -96 38 -96 109v131h-64v46h64v146h-64v63h64v132h72v-132h81v-63h-81v-146h52v-46z" />
    <glyph glyph-name="Utilde" unicode="&#x168;" horiz-adv-x="569" 
d="M285 -12c-134 0 -215 81 -215 228v451h80v-451c0 -104 49 -157 135 -157c85 0 134 53 134 157v451h80v-451c0 -147 -80 -228 -214 -228zM336 726c-64 0 -60 94 -102 94c-23 0 -41 -27 -41 -88h-42c0 76 28 134 85 134c64 0 61 -94 102 -94c24 0 41 27 41 88h42
c0 -76 -28 -134 -85 -134z" />
    <glyph glyph-name="utilde" unicode="&#x169;" horiz-adv-x="465" 
d="M400 0h-72v67c-29 -42 -81 -79 -140 -79c-83 0 -122 42 -122 130v365h71v-344c0 -65 30 -87 78 -87c47 0 91 36 113 75v356h72v-483zM282 554c-64 0 -60 94 -102 94c-23 0 -41 -27 -41 -88h-42c0 76 28 134 85 134c64 0 61 -94 102 -94c24 0 41 27 41 88h42
c0 -76 -28 -134 -85 -134z" />
    <glyph glyph-name="Umacron" unicode="&#x16a;" horiz-adv-x="569" 
d="M285 -12c-134 0 -215 81 -215 228v451h80v-451c0 -104 49 -157 135 -157c85 0 134 53 134 157v451h80v-451c0 -147 -80 -228 -214 -228zM438 749h-306v46h306v-46z" />
    <glyph glyph-name="umacron" unicode="&#x16b;" horiz-adv-x="465" 
d="M400 0h-72v67c-29 -42 -81 -79 -140 -79c-83 0 -122 42 -122 130v365h71v-344c0 -65 30 -87 78 -87c47 0 91 36 113 75v356h72v-483zM385 578h-306v46h306v-46z" />
    <glyph glyph-name="Ubreve" unicode="&#x16c;" horiz-adv-x="569" 
d="M285 -12c-134 0 -215 81 -215 228v451h80v-451c0 -104 49 -157 135 -157c85 0 134 53 134 157v451h80v-451c0 -147 -80 -228 -214 -228zM434 797c-33 -46 -87 -75 -147 -75s-114 29 -148 75l37 30c24 -36 66 -58 111 -58s86 22 111 58z" />
    <glyph glyph-name="ubreve" unicode="&#x16d;" horiz-adv-x="465" 
d="M400 0h-72v67c-29 -42 -81 -79 -140 -79c-83 0 -122 42 -122 130v365h71v-344c0 -65 30 -87 78 -87c47 0 91 36 113 75v356h72v-483zM381 638c-33 -46 -87 -75 -147 -75s-114 29 -148 75l37 30c24 -36 66 -58 111 -58s86 22 111 58z" />
    <glyph glyph-name="Uring" unicode="&#x16e;" horiz-adv-x="569" 
d="M285 -12c-134 0 -215 81 -215 228v451h80v-451c0 -104 49 -157 135 -157c85 0 134 53 134 157v451h80v-451c0 -147 -80 -228 -214 -228zM285 693c-50 0 -91 41 -91 91s41 90 91 90s90 -40 90 -90s-40 -91 -90 -91zM285 731c29 0 52 23 52 53c0 29 -23 53 -52 53
s-53 -24 -53 -53c0 -30 24 -53 53 -53z" />
    <glyph glyph-name="uring" unicode="&#x16f;" horiz-adv-x="465" 
d="M400 0h-72v67c-29 -42 -81 -79 -140 -79c-83 0 -122 42 -122 130v365h71v-344c0 -65 30 -87 78 -87c47 0 91 36 113 75v356h72v-483zM233 551c-50 0 -91 41 -91 91s41 90 91 90s90 -40 90 -90s-40 -91 -90 -91zM233 589c29 0 52 23 52 53c0 29 -23 53 -52 53
s-53 -24 -53 -53c0 -30 24 -53 53 -53z" />
    <glyph glyph-name="Uhungarumlaut" unicode="&#x170;" horiz-adv-x="569" 
d="M285 -12c-134 0 -215 81 -215 228v451h80v-451c0 -104 49 -157 135 -157c85 0 134 53 134 157v451h80v-451c0 -147 -80 -228 -214 -228zM326 872l-96 -144h-43l75 144h64zM456 872l-97 -144h-43l75 144h65z" />
    <glyph glyph-name="uhungarumlaut" unicode="&#x171;" horiz-adv-x="465" 
d="M400 0h-72v67c-29 -42 -81 -79 -140 -79c-83 0 -122 42 -122 130v365h71v-344c0 -65 30 -87 78 -87c47 0 91 36 113 75v356h72v-483zM273 700l-96 -144h-43l75 144h64zM403 700l-97 -144h-43l75 144h65z" />
    <glyph glyph-name="Uogonek" unicode="&#x172;" horiz-adv-x="569" 
d="M285 -12c-134 0 -215 81 -215 228v451h80v-451c0 -104 49 -157 135 -157c85 0 134 53 134 157v451h80v-451c0 -115 -49 -190 -134 -216c-43 -25 -70 -58 -70 -102c0 -32 16 -46 37 -46c23 0 35 14 42 38l36 -19c-11 -31 -35 -57 -78 -57c-44 0 -80 25 -80 82
c0 34 15 66 39 92h-6z" />
    <glyph glyph-name="uogonek" unicode="&#x173;" horiz-adv-x="465" 
d="M408 -110l36 -19c-11 -31 -35 -57 -78 -57c-44 0 -80 25 -80 82c0 39 20 75 51 104h-9v67c-29 -42 -81 -79 -140 -79c-83 0 -122 42 -122 130v365h71v-344c0 -65 30 -87 78 -87c47 0 91 36 113 75v356h72v-483c-43 -25 -71 -58 -71 -102c0 -32 16 -46 37 -46
c23 0 35 14 42 38z" />
    <glyph glyph-name="Wcircumflex" unicode="&#x174;" horiz-adv-x="717" 
d="M552 0h-85l-109 526l-109 -526h-84l-149 667h85l110 -543l114 543h67l114 -543l110 543h85zM476 728h-46l-72 105l-69 -105h-46l80 144h70z" />
    <glyph glyph-name="wcircumflex" unicode="&#x175;" horiz-adv-x="639" 
d="M497 0h-73l-104 388l-104 -388h-73l-130 483h75l95 -386l102 386h67l104 -386l95 386h76zM436 556h-46l-72 105l-69 -105h-46l80 144h70z" />
    <glyph glyph-name="Ycircumflex" unicode="&#x176;" horiz-adv-x="501" 
d="M368 728h-46l-72 105l-69 -105h-46l80 144h70zM290 0h-79v282l-206 385h89l157 -308l157 308h88l-206 -385v-282z" />
    <glyph glyph-name="ycircumflex" unicode="&#x177;" horiz-adv-x="409" 
d="M41 -189l12 64c8 -5 23 -7 32 -7c27 0 44 11 57 48l25 74l-161 493h78l121 -396l121 396h77l-194 -584c-23 -71 -62 -95 -120 -95c-14 0 -37 3 -48 7zM322 556h-46l-72 105l-69 -105h-46l80 144h70z" />
    <glyph glyph-name="Zacute" unicode="&#x179;" horiz-adv-x="463" 
d="M423 0h-383v68l281 528h-281v71h376v-66l-282 -530h289v-71zM359 872l-135 -144h-51l114 144h72z" />
    <glyph glyph-name="zacute" unicode="&#x17a;" horiz-adv-x="388" 
d="M345 0h-302v56l210 364h-210v63h298v-55l-210 -365h214v-63zM322 700l-135 -144h-51l114 144h72z" />
    <glyph glyph-name="Zdotaccent" unicode="&#x17b;" horiz-adv-x="463" 
d="M423 0h-383v68l281 528h-281v71h376v-66l-282 -530h289v-71zM230 727c-24 0 -46 21 -46 46s22 45 46 45c25 0 45 -20 45 -45s-20 -46 -45 -46z" />
    <glyph glyph-name="zdotaccent" unicode="&#x17c;" horiz-adv-x="388" 
d="M345 0h-302v56l210 364h-210v63h298v-55l-210 -365h214v-63zM193 574c-24 0 -46 21 -46 46s22 45 46 45c25 0 45 -20 45 -45s-20 -46 -45 -46z" />
    <glyph glyph-name="longs" unicode="&#x17f;" horiz-adv-x="253" 
d="M155 0h-72v420h-64v63h64v58c0 85 46 136 121 136c32 0 62 -8 86 -32l-28 -53c-13 14 -28 21 -46 21c-41 0 -61 -27 -61 -72v-541z" />
    <glyph glyph-name="AEacute" unicode="&#x1fc;" horiz-adv-x="752" 
d="M704 0h-343v151h-195l-69 -151h-86l317 667h376v-71h-264v-219h257v-71h-257v-235h264v-71zM361 222v357l-166 -357h166zM520 872l-135 -144h-51l114 144h72z" />
    <glyph glyph-name="aeacute" unicode="&#x1fd;" horiz-adv-x="739" 
d="M700 218h-314c3 -97 53 -170 140 -170c42 0 85 22 115 60l38 -43c-40 -48 -94 -77 -159 -77c-83 0 -136 44 -168 94c-27 -43 -77 -94 -162 -94c-81 0 -149 59 -149 160c0 100 66 160 146 160c49 0 97 -19 128 -63v85c0 66 -36 103 -99 103c-45 0 -84 -17 -122 -59l-32 50
c46 49 103 71 165 71c79 0 122 -34 136 -91c26 50 73 91 148 91c126 0 189 -115 189 -256v-21zM386 272h243c-1 73 -34 163 -122 163c-85 0 -119 -93 -121 -163zM328 120c-6 17 -13 52 -13 74c-23 43 -63 62 -104 62c-58 0 -97 -43 -97 -108c0 -66 39 -108 97 -108
c46 0 91 25 117 80zM489 700l-135 -144h-51l114 144h72z" />
    <glyph glyph-name="Oslashacute" unicode="&#x1fe;" horiz-adv-x="601" 
d="M429 872l-135 -144h-51l114 144h72zM300 -12c-53 0 -98 16 -135 44l-18 -32h-59l38 70c-51 63 -79 157 -79 263c0 193 91 345 253 345c52 0 96 -16 133 -43l18 32h59l-38 -69c53 -63 82 -158 82 -265c0 -193 -91 -345 -254 -345zM300 59c111 0 172 122 172 274
c0 74 -14 140 -41 188l-229 -421c26 -26 59 -41 98 -41zM129 333c0 -72 13 -138 39 -186l228 420c-26 25 -58 40 -96 40c-111 0 -171 -120 -171 -274z" />
    <glyph glyph-name="oslashacute" unicode="&#x1ff;" horiz-adv-x="478" 
d="M367 700l-135 -144h-51l114 144h72zM105 0h-50l39 60c-35 47 -52 112 -52 182c0 136 68 253 197 253c45 0 83 -14 113 -39l17 27h50l-38 -58c36 -46 55 -112 55 -183c0 -136 -67 -254 -197 -254c-47 0 -85 15 -115 41zM239 52c85 0 122 92 122 190c0 42 -8 84 -23 117
l-176 -271c19 -23 44 -36 77 -36zM118 242c0 -41 6 -82 20 -114l176 270c-19 20 -44 33 -75 33c-84 0 -121 -92 -121 -189z" />
    <glyph glyph-name="Scommaaccent" unicode="&#x218;" horiz-adv-x="469" 
d="M231 -12c-87 0 -154 33 -200 84l44 61c34 -41 90 -74 156 -74c84 0 122 53 122 110c0 162 -302 119 -302 334c0 102 81 175 192 175c74 0 135 -25 178 -71l-41 -60c-37 41 -86 60 -139 60c-62 0 -109 -40 -109 -100c0 -141 302 -110 302 -333c0 -98 -64 -186 -203 -186z
M288 -138c0 -54 -32 -105 -71 -133l-31 25c30 21 55 57 57 87c-1 0 -7 -1 -11 -1c-23 0 -41 18 -41 43c0 24 20 45 45 45c28 0 52 -24 52 -66z" />
    <glyph glyph-name="scommaaccent" unicode="&#x219;" horiz-adv-x="390" 
d="M191 -12c-69 0 -124 22 -164 69l36 50c28 -34 74 -61 126 -61c57 0 93 32 93 78c0 113 -241 73 -241 241c0 72 58 130 154 130c65 0 114 -25 148 -62l-34 -49c-24 32 -65 53 -113 53c-53 0 -86 -31 -86 -70c0 -103 242 -67 242 -241c0 -80 -62 -138 -161 -138zM250 -138
c0 -54 -32 -105 -71 -133l-31 25c30 21 55 57 57 87c-1 0 -7 -1 -11 -1c-23 0 -41 18 -41 43c0 24 20 45 45 45c28 0 52 -24 52 -66z" />
    <glyph glyph-name="hsuperior" unicode="&#x2b0;" horiz-adv-x="343" 
d="M290 326h-55v217c0 43 -20 58 -53 58c-31 0 -60 -24 -74 -47v-228h-55v434h55v-164c18 26 56 52 96 52c56 0 86 -28 86 -90v-232z" />
    <glyph glyph-name="hsuperior" unicode="&#xf637;" horiz-adv-x="343" 
d="M290 326h-55v217c0 43 -20 58 -53 58c-31 0 -60 -24 -74 -47v-228h-55v434h55v-164c18 26 56 52 96 52c56 0 86 -28 86 -90v-232z" />
    <glyph glyph-name="frenchfranc" unicode="&#x20a3;" horiz-adv-x="465" 
d="M164 0h-80v139h-68v46h68v482h343v-71h-263v-219h256v-71h-256v-121h151v-46h-151v-139z" />
    <glyph glyph-name="lira" unicode="&#x20a4;" horiz-adv-x="450" 
d="M25 327v45h53c-17 30 -30 65 -30 112c0 105 83 193 191 193c81 0 144 -42 170 -113l-63 -34c-15 43 -49 80 -101 80c-59 0 -112 -47 -112 -128c0 -48 15 -81 34 -110h145v-45h-116c13 -21 24 -43 29 -71h87v-45h-85c-4 -52 -34 -97 -70 -126c14 6 31 10 45 10
c54 0 78 -37 124 -37c36 0 68 20 81 37l31 -62c-22 -26 -66 -46 -117 -46c-77 0 -89 44 -149 44c-29 0 -63 -15 -98 -38l-28 59c69 37 110 96 110 156v3h-131v45h123c-9 25 -25 48 -41 71h-82z" />
    <glyph glyph-name="uni20A6" unicode="&#x20a6;" horiz-adv-x="600" 
d="M517 0h-76l-132 242h-145v-242h-80v242h-68v46h68v97h-68v46h68v236h80l129 -236h145v236h79v-236h59v-46h-59v-97h59v-46h-59v-242zM164 385v-97h120l-53 97h-67zM319 385l53 -97h66v97h-119zM164 508v-77h42zM398 242l40 -73v73h-40z" />
    <glyph glyph-name="peseta" unicode="&#x20a7;" horiz-adv-x="541" 
d="M532 442h-61c-9 -97 -72 -175 -184 -175h-123v-267h-80v442h-68v50h68v175h203c113 0 175 -78 184 -175h61v-50zM164 596v-104h224c-8 62 -48 104 -109 104h-115zM279 338c61 0 101 41 109 104h-224v-104h115z" />
    <glyph glyph-name="rupee" unicode="&#x20a8;" horiz-adv-x="852" 
d="M465 0h-90l-129 267h-96v-267h-80v667h204c107 0 184 -77 184 -199c0 -119 -67 -177 -133 -189zM265 337c69 0 111 54 111 130s-42 129 -111 129h-115v-259h115zM655 -12c-69 0 -124 22 -164 69l36 50c28 -34 74 -61 126 -61c57 0 93 32 93 78c0 113 -241 73 -241 241
c0 72 58 130 154 130c65 0 114 -25 148 -62l-34 -49c-24 32 -65 53 -113 53c-53 0 -86 -31 -86 -70c0 -103 242 -67 242 -241c0 -80 -62 -138 -161 -138z" />
    <glyph glyph-name="uni20A9" unicode="&#x20a9;" horiz-adv-x="732" 
d="M559 0h-85l-51 242h-117l-50 -242h-84l-54 242h-93v46h82l-21 97h-61v46h50l-52 236h85l48 -236h126l50 236h67l49 -236h127l48 236h85l-53 -236h44v-46h-54l-22 -97h76v-46h-86zM458 385l20 -97h68l20 97h-108zM165 385l20 -97h67l21 97h-108zM335 385l-20 -97h99
l-20 97h-59zM488 242l25 -118l24 118h-49zM194 242l24 -118l25 118h-49zM365 526l-20 -95h39z" />
    <glyph glyph-name="afii57636" unicode="&#x20aa;" horiz-adv-x="661" 
d="M259 550c127 0 182 -64 182 -208v-185h-64v206c0 89 -38 128 -118 128h-129v-491h-64v550h193zM413 0h-193v392h64v-333h129c80 0 118 39 118 128v363h64v-342c0 -144 -55 -208 -182 -208z" />
    <glyph glyph-name="afii61289" unicode="&#x2113;" horiz-adv-x="426" 
d="M70 514v-417c0 -79 38 -109 97 -109c30 0 58 9 78 29l-22 48c-10 -12 -25 -19 -41 -19c-27 0 -40 19 -40 58v173l158 125c64 52 100 94 100 150c0 77 -75 125 -159 125c-102 0 -171 -70 -171 -163zM260 446l-118 -92v159c0 69 42 109 98 109c48 0 92 -29 92 -72
c0 -38 -24 -64 -72 -104z" />
    <glyph glyph-name="afii61352" unicode="&#x2116;" horiz-adv-x="921" 
d="M503 0h-76l-277 508v-508h-80v667h80l274 -498v498h79v-667zM746 350c-88 0 -138 76 -138 165s50 165 138 165c90 0 139 -76 139 -165s-49 -165 -139 -165zM746 397c56 0 82 54 82 118s-26 117 -82 117c-54 0 -80 -53 -80 -117s26 -118 80 -118z" />
    <glyph glyph-name="published" unicode="&#x2117;" horiz-adv-x="778" 
d="M734 334c0 -190 -155 -345 -345 -345s-345 155 -345 345s155 345 345 345s345 -155 345 -345zM704 334c0 172 -143 315 -315 315s-314 -143 -314 -315s142 -315 314 -315s315 143 315 315zM549 419c0 -71 -58 -114 -126 -114h-112v-174h-36v405h148
c68 0 126 -43 126 -117zM512 419c0 52 -37 83 -89 83h-112v-163h112c52 0 89 31 89 80z" />
    <glyph glyph-name="servicemark" unicode="&#x2120;" horiz-adv-x="425" 
d="M388 447h-28v182l-65 -182h-8l-65 182v-182h-28v220h43l54 -158l54 158h43v-220zM155 504c0 -38 -26 -64 -71 -64c-30 0 -53 11 -69 29l16 23c12 -14 31 -26 50 -26c28 0 43 15 43 36c0 55 -104 39 -104 111c0 35 28 60 67 60c28 0 49 -9 63 -24l-15 -21
c-12 13 -29 20 -46 20c-21 0 -37 -13 -37 -33c0 -48 103 -35 103 -111z" />
    <glyph glyph-name="estimated" unicode="&#x212e;" horiz-adv-x="842" 
d="M811 324h-632c-3 0 -5 -2 -5 -5v-190c0 -9 3 -17 9 -23c60 -63 146 -103 240 -103c101 0 189 44 250 115h57c-71 -83 -183 -136 -309 -136c-215 0 -390 157 -390 351s175 351 390 351s390 -157 390 -351v-9zM668 349v191c0 9 -4 18 -10 24c-60 61 -143 99 -235 99
c-94 0 -179 -40 -239 -102c-6 -6 -10 -15 -10 -24v-188c0 -3 2 -6 5 -6h485c3 0 4 3 4 6z" />
    <glyph glyph-name="arrowleft" unicode="&#x2190;" horiz-adv-x="582" 
d="M538 211h-269l12 -130l-281 205l281 204l-12 -129h269v-150z" />
    <glyph glyph-name="arrowup" unicode="&#x2191;" horiz-adv-x="582" 
d="M216 17v269l-130 -12l205 281l204 -281l-129 12v-269h-150z" />
    <glyph glyph-name="arrowright" unicode="&#x2192;" horiz-adv-x="582" 
d="M584 286l-281 -205l12 130h-268v150h268l-12 129z" />
    <glyph glyph-name="arrowdown" unicode="&#x2193;" horiz-adv-x="582" 
d="M366 555v-269l130 12l-205 -281l-204 281l129 -12v269h150z" />
    <glyph glyph-name="triangleright" unicode="&#x22b2;" horiz-adv-x="587" 
d="M589 286l-535 -309v618z" />
    <glyph glyph-name="triangleleft" unicode="&#x22b3;" horiz-adv-x="587" 
d="M535 595v-618l-535 309z" />
    <glyph glyph-name="blacksquare" unicode="&#x25a0;" horiz-adv-x="661" 
d="M618 0h-571v572h571v-572z" />
    <glyph glyph-name="triagup" unicode="&#x25b2;" horiz-adv-x="616" 
d="M617 29l-619 1l309 535z" />
    <glyph glyph-name="triagdn" unicode="&#x25bc;" horiz-adv-x="616" 
d="M617 510l-310 -535l-309 535h619z" />
    <glyph glyph-name="circlesolid" unicode="&#x25cf;" horiz-adv-x="695" 
d="M644 285c0 -164 -133 -297 -297 -297s-297 133 -297 297s133 297 297 297s297 -133 297 -297z" />
    <glyph glyph-name="blackstar" unicode="&#x2605;" horiz-adv-x="759" 
d="M759 421l-235 -171l90 -275l-235 170l-234 -170l89 275l-234 171h290l89 276l90 -276h290z" />
    <glyph glyph-name="ballotbox" unicode="&#x2610;" horiz-adv-x="661" 
d="M616 0h-571v572h571v-572zM561 51v470h-461v-470h461z" />
    <glyph glyph-name="boxchecked" unicode="&#x2611;" horiz-adv-x="661" 
d="M676 698l-69 -126h9v-572h-571v572h503l83 155zM561 51v435l-214 -395l-202 246l41 38l154 -190l180 336h-420v-470h461z" />
    <glyph glyph-name="diamond" unicode="&#x2666;" horiz-adv-x="501" 
d="M501 285l-251 -250l-250 250l250 251z" />
    <glyph glyph-name="checkmark" unicode="&#x2713;" horiz-adv-x="531" 
d="M531 698l-329 -607l-202 246l41 38l154 -190l291 542z" />
    <glyph glyph-name="perthousand.onum" unicode="&#xf628;" horiz-adv-x="785" 
d="M257 425c0 -77 -47 -136 -117 -136s-116 59 -116 136s46 137 116 137s117 -60 117 -137zM504 125c0 -77 -47 -136 -117 -136c-69 0 -116 59 -116 136c0 78 47 137 116 137c70 0 117 -59 117 -137zM445 550l-314 -550h-46l313 550h47zM206 425c0 53 -25 94 -66 94
s-67 -41 -67 -94s26 -93 67 -93s66 40 66 93zM454 125c0 53 -26 94 -67 94s-67 -41 -67 -94c0 -52 26 -93 67 -93s67 41 67 93zM761 125c0 -77 -47 -136 -116 -136c-70 0 -117 61 -117 136c0 78 47 137 117 137c69 0 116 -59 116 -137zM711 125c0 53 -26 94 -66 94
c-41 0 -67 -41 -67 -94c0 -52 26 -93 67 -93c40 0 66 41 66 93z" />
    <glyph glyph-name="zero.tzero" unicode="&#xf638;" horiz-adv-x="503" 
d="M252 -12c-52 0 -93 20 -124 53l-21 -41h-58l46 88c-38 68 -53 160 -53 245c0 161 54 344 210 344c50 0 90 -20 121 -51l22 41h59l-46 -88c38 -68 54 -160 54 -246c0 -160 -54 -345 -210 -345zM252 59c102 0 128 143 128 274c0 55 -5 111 -17 159l-198 -380
c20 -33 48 -53 87 -53zM124 333c0 -54 4 -110 16 -157l197 379c-19 31 -47 51 -85 51c-103 0 -128 -141 -128 -273z" />
    <glyph glyph-name="zero.tnum" unicode="&#xf639;" horiz-adv-x="496" 
d="M248 -12c-156 0 -210 185 -210 345c0 161 54 344 210 344s210 -183 210 -344c0 -160 -54 -345 -210 -345zM248 59c102 0 128 143 128 274c0 132 -25 273 -128 273s-128 -141 -128 -273c0 -131 25 -274 128 -274z" />
    <glyph glyph-name="two.tnum" unicode="&#xf63a;" horiz-adv-x="496" 
d="M439 0h-379v65c218 249 296 331 296 429c0 72 -52 112 -109 112c-62 0 -109 -31 -141 -84l-53 48c45 68 110 107 195 107c103 0 188 -66 188 -182c0 -113 -86 -214 -263 -424h266v-71z" />
    <glyph glyph-name="three.tnum" unicode="&#xf63b;" horiz-adv-x="496" 
d="M244 -12c-94 0 -164 50 -198 111l53 47c30 -51 79 -87 143 -87c81 0 122 50 122 127c0 91 -61 121 -129 121c-20 0 -43 0 -52 -1v73c9 -1 33 -1 51 -1c67 0 121 35 121 111c0 78 -49 117 -115 117c-59 0 -101 -30 -136 -79l-50 45c40 64 108 105 191 105
c108 0 189 -59 189 -177c0 -83 -59 -141 -119 -155c58 -9 128 -69 128 -165c0 -111 -71 -192 -199 -192z" />
    <glyph glyph-name="four.tnum" unicode="&#xf63c;" horiz-adv-x="496" 
d="M382 0h-79v171h-264v69l242 427h101v-426h74v-70h-74v-171zM303 241v339l-191 -339h191z" />
    <glyph glyph-name="five.tnum" unicode="&#xf63d;" horiz-adv-x="496" 
d="M250 -12c-98 0 -156 42 -197 109l53 48c33 -55 76 -86 141 -86c74 0 121 67 121 146c0 94 -46 146 -116 146c-47 0 -83 -17 -121 -63l-59 21v358h341v-71h-262v-233c26 32 71 58 124 58c96 0 174 -76 174 -215c0 -126 -83 -218 -199 -218z" />
    <glyph glyph-name="six.tnum" unicode="&#xf63e;" horiz-adv-x="496" 
d="M262 -12c-160 0 -212 167 -212 345c0 179 65 344 226 344c70 0 123 -33 156 -83l-44 -56c-26 42 -57 68 -111 68c-107 0 -146 -140 -146 -266v-21c23 48 79 99 148 99c97 0 175 -71 175 -213c0 -113 -69 -217 -192 -217zM258 59c80 0 115 75 115 144
c0 105 -51 146 -115 146c-55 0 -100 -48 -126 -102c5 -75 32 -188 126 -188z" />
    <glyph glyph-name="seven.tnum" unicode="&#xf63f;" horiz-adv-x="496" 
d="M220 0h-85l210 596h-283v71h373v-55z" />
    <glyph glyph-name="eight.tnum" unicode="&#xf640;" horiz-adv-x="496" 
d="M248 -12c-118 0 -199 67 -199 177c0 88 68 154 133 179c-60 22 -123 78 -123 163c0 116 93 170 189 170c95 0 189 -54 189 -170c0 -85 -63 -141 -124 -163c66 -25 133 -91 133 -179c0 -110 -81 -177 -198 -177zM248 374c26 6 109 40 109 122c0 68 -45 110 -109 110
c-65 0 -109 -42 -109 -110c0 -82 83 -116 109 -122zM248 59c63 0 118 42 118 115c0 89 -91 133 -118 137c-28 -4 -118 -48 -118 -137c0 -73 53 -115 118 -115z" />
    <glyph glyph-name="nine.tnum" unicode="&#xf641;" horiz-adv-x="496" 
d="M220 -11c-70 0 -122 33 -155 83l44 56c25 -42 56 -68 111 -68c108 0 146 141 146 266c0 9 0 12 -1 21c-23 -48 -78 -99 -147 -99c-97 0 -176 71 -176 213c0 113 69 217 193 217c159 0 211 -167 211 -345c0 -179 -64 -344 -226 -344zM238 317c55 0 101 48 126 102
c-5 75 -31 188 -125 188c-81 0 -116 -75 -116 -144c0 -105 52 -146 115 -146z" />
    <glyph glyph-name="percent.onum" unicode="&#xf642;" horiz-adv-x="527" 
d="M257 425c0 -77 -47 -136 -117 -136s-116 59 -116 136s46 137 116 137s117 -60 117 -137zM504 125c0 -77 -47 -136 -117 -136c-69 0 -116 59 -116 136c0 78 47 137 116 137c70 0 117 -59 117 -137zM444 550l-314 -550h-46l313 550h47zM206 425c0 53 -25 94 -66 94
s-67 -41 -67 -94s26 -93 67 -93s66 40 66 93zM454 125c0 53 -26 94 -67 94s-67 -41 -67 -94c0 -52 26 -93 67 -93s67 41 67 93z" />
    <glyph glyph-name="zero.tonum" unicode="&#xf643;" horiz-adv-x="496" 
d="M458 275c0 -134 -56 -287 -210 -287s-210 153 -210 287c0 135 56 287 210 287c153 0 210 -152 210 -287zM376 275c0 99 -29 216 -128 216s-128 -117 -128 -216c0 -98 28 -216 128 -216c99 0 128 118 128 216z" />
    <glyph glyph-name="one.tonum" unicode="&#xf644;" horiz-adv-x="496" 
d="M344 0h-79v445l-103 -110l-48 50l160 165h70v-550z" />
    <glyph glyph-name="two.tonum" unicode="&#xf645;" horiz-adv-x="496" 
d="M423 0h-357v66c210 134 286 232 286 314c0 65 -46 111 -106 111s-109 -29 -142 -82l-52 46c43 69 112 107 197 107c107 0 183 -69 183 -171c0 -96 -79 -206 -240 -320h231v-71z" />
    <glyph glyph-name="three.tonum" unicode="&#xf646;" horiz-adv-x="496" 
d="M244 -131c-94 0 -164 50 -198 111l53 47c30 -51 79 -87 143 -87c81 0 122 50 122 127c0 91 -61 121 -129 121c-20 0 -43 0 -52 -1v73c9 -1 33 -1 51 -1c67 0 121 35 121 111c0 78 -49 117 -115 117c-59 0 -101 -30 -136 -79l-50 45c40 64 108 105 191 105
c108 0 189 -59 189 -177c0 -83 -59 -141 -119 -155c58 -9 128 -69 128 -165c0 -111 -71 -192 -199 -192z" />
    <glyph glyph-name="four.tonum" unicode="&#xf647;" horiz-adv-x="496" 
d="M456 56h-74v-173h-79v173h-264v70l242 424h101v-423h74v-71zM303 127v336l-191 -336h191z" />
    <glyph glyph-name="five.tonum" unicode="&#xf648;" horiz-adv-x="496" 
d="M250 -129c-98 0 -156 42 -197 109l53 48c33 -55 76 -86 141 -86c74 0 121 67 121 146c0 94 -46 146 -116 146c-47 0 -83 -17 -121 -63l-59 21v358h341v-71h-262v-233c26 32 71 58 124 58c96 0 174 -76 174 -215c0 -126 -83 -218 -199 -218z" />
    <glyph glyph-name="six.tonum" unicode="&#xf649;" horiz-adv-x="496" 
d="M262 -12c-160 0 -212 167 -212 345c0 179 65 344 226 344c70 0 123 -33 156 -83l-44 -56c-26 42 -57 68 -111 68c-107 0 -146 -140 -146 -266v-21c23 48 79 99 148 99c97 0 175 -71 175 -213c0 -113 -69 -217 -192 -217zM258 59c80 0 115 75 115 144
c0 105 -51 146 -115 146c-55 0 -100 -48 -126 -102c5 -75 32 -188 126 -188z" />
    <glyph glyph-name="seven.tonum" unicode="&#xf64a;" horiz-adv-x="496" 
d="M220 -117h-85l210 596h-283v71h373v-55z" />
    <glyph glyph-name="eight.tonum" unicode="&#xf64b;" horiz-adv-x="496" 
d="M248 -12c-118 0 -199 67 -199 177c0 88 68 154 133 179c-60 22 -123 78 -123 163c0 116 93 170 189 170c95 0 189 -54 189 -170c0 -85 -63 -141 -124 -163c66 -25 133 -91 133 -179c0 -110 -81 -177 -198 -177zM248 374c26 6 109 40 109 122c0 68 -45 110 -109 110
c-65 0 -109 -42 -109 -110c0 -82 83 -116 109 -122zM248 59c63 0 118 42 118 115c0 89 -91 133 -118 137c-28 -4 -118 -48 -118 -137c0 -73 53 -115 118 -115z" />
    <glyph glyph-name="nine.tonum" unicode="&#xf64c;" horiz-adv-x="496" 
d="M220 -127c-70 0 -122 33 -155 83l44 56c25 -42 56 -68 111 -68c108 0 146 141 146 266c0 9 0 12 -1 21c-23 -48 -78 -99 -147 -99c-97 0 -176 71 -176 213c0 113 69 217 193 217c159 0 211 -167 211 -345c0 -179 -64 -344 -226 -344zM238 201c55 0 101 48 126 102
c-5 75 -31 188 -125 188c-81 0 -116 -75 -116 -144c0 -105 52 -146 115 -146z" />
    <glyph glyph-name="colonmonetary.onum" unicode="&#xf64d;" horiz-adv-x="468" 
d="M186 -53l14 52c-15 5 -29 12 -42 20l-19 -72h-40l27 98c-53 51 -83 133 -83 230c0 164 85 286 225 287l10 37h39l-11 -40c15 -3 30 -8 43 -14l15 54h40l-21 -76c25 -19 43 -45 59 -73l-61 -28c-5 10 -11 19 -18 28l-108 -396h14c50 0 90 29 112 76l62 -27
c-35 -65 -87 -115 -174 -115c-11 0 -21 1 -31 2l-12 -43h-40zM120 275c0 -55 11 -103 30 -141l99 360c-80 -12 -129 -102 -129 -219zM179 94c11 -12 24 -22 39 -29l113 413c-13 8 -27 14 -43 16z" />
    <glyph glyph-name="Euro.onum" unicode="&#xf64e;" horiz-adv-x="487" 
d="M317 314h-177c-1 -13 -1 -26 -1 -39c0 -14 0 -27 2 -40h176v-43h-169c20 -82 70 -138 140 -138c50 0 90 29 112 76l62 -27c-35 -65 -87 -115 -174 -115c-115 0 -195 83 -219 204h-45v43h40c-1 13 -2 26 -2 40c0 13 0 26 1 39h-39v43h45c24 122 103 205 219 205
c86 0 139 -49 173 -112l-61 -28c-24 47 -63 74 -112 74c-71 0 -121 -56 -140 -139h169v-43z" />
    <glyph glyph-name="florin.onum" unicode="&#xf64f;" horiz-adv-x="345" 
d="M105 -119h-80l74 334h-44v55h56l34 152c22 96 66 139 136 139c29 0 55 -9 74 -29l-33 -57c-7 11 -19 15 -34 15c-35 0 -53 -28 -64 -77l-32 -143h89v-55h-101z" />
    <glyph glyph-name="numbersign.onum" unicode="&#xf650;" horiz-adv-x="432" 
d="M413 393l-12 -45h-72l-40 -142h73l-13 -47h-73l-45 -159h-55l46 159h-79l-45 -159h-55l46 159h-70l13 47h71l40 142h-71l11 45h73l44 157h56l-46 -157h78l45 157h55l-46 -157h71zM275 348h-78l-40 -142h77z" />
    <glyph glyph-name="sterling.onum" unicode="&#xf651;" horiz-adv-x="370" 
d="M19 225v47h60c-21 38 -41 79 -41 133c0 92 71 156 157 156c65 0 120 -34 142 -91l-57 -27c-15 40 -45 62 -81 62c-47 0 -88 -39 -88 -101c0 -50 24 -91 46 -132h101v-47h-80c6 -17 10 -34 10 -52c0 -41 -25 -81 -49 -101c7 3 14 5 22 5c45 0 67 -26 103 -26
c27 0 54 14 66 30l31 -53c-20 -22 -58 -38 -101 -38c-63 0 -70 32 -120 32c-23 0 -52 -13 -80 -30l-25 51c56 29 88 72 88 116c0 23 -7 44 -18 66h-86z" />
    <glyph glyph-name="yen.onum" unicode="&#xf652;" horiz-adv-x="439" 
d="M258 0h-75v114h-162v46h162v72h-162v46h136l-154 272h84l133 -246l133 246h82l-152 -272h134v-46h-159v-72h159v-46h-159v-114z" />
    <glyph glyph-name="cent.onum" unicode="&#xf654;" horiz-adv-x="468" 
d="M241 -93v83c-124 15 -198 132 -198 285s74 270 198 285v59h57v-59c69 -10 114 -55 144 -110l-61 -28c-19 37 -48 62 -83 70v-435c36 9 65 35 83 73l62 -27c-31 -58 -75 -103 -145 -113v-83h-57zM120 275c0 -112 45 -200 121 -218v435c-76 -17 -121 -104 -121 -217z" />
    <glyph glyph-name="zero.dnom" unicode="&#xf655;" 
d="M302 200c0 -98 -38 -207 -138 -207c-101 0 -139 109 -139 207c0 99 38 206 139 206c100 0 138 -107 138 -206zM242 200c0 79 -16 158 -78 158s-80 -79 -80 -158s18 -159 80 -159s78 80 78 159z" />
    <glyph glyph-name="one.dnom" unicode="&#xf656;" horiz-adv-x="225" 
d="M169 0h-59v325l-62 -66l-34 36l104 105h51v-400z" />
    <glyph glyph-name="two.dnom" unicode="&#xf657;" 
d="M292 0h-251v44c139 137 191 189 191 248c0 44 -32 66 -69 66c-40 0 -73 -20 -91 -51l-35 35c29 42 75 64 128 64c68 0 125 -38 125 -112c0 -70 -59 -132 -171 -246h173v-48z" />
    <glyph glyph-name="three.dnom" unicode="&#xf658;" 
d="M293 109c0 -68 -48 -116 -131 -116c-62 0 -108 29 -131 66l36 35c20 -32 54 -53 93 -53c50 0 76 28 76 71c0 53 -40 70 -83 70c-14 0 -28 0 -33 -1v48c6 -1 19 -1 31 -1c46 0 79 20 79 65c0 44 -31 65 -72 65c-37 0 -65 -17 -88 -47l-34 32c27 38 71 63 126 63
c73 0 125 -37 125 -107c0 -51 -38 -84 -76 -92c37 -5 82 -40 82 -98z" />
    <glyph glyph-name="four.dnom" unicode="&#xf659;" 
d="M301 101h-47v-101h-57v101h-169v45l151 254h75v-252h47v-47zM197 148v193l-115 -193h115z" />
    <glyph glyph-name="five.dnom" unicode="&#xf65a;" 
d="M293 126c0 -78 -54 -133 -132 -133c-62 0 -102 25 -129 66l37 35c21 -34 50 -53 91 -53c46 0 75 38 75 83c0 53 -29 85 -72 85c-30 0 -54 -12 -77 -40l-42 15v216h227v-48h-169v-134c16 19 45 35 80 35c59 0 111 -43 111 -127z" />
    <glyph glyph-name="six.dnom" unicode="&#xf65b;" 
d="M297 125c0 -71 -47 -132 -127 -132c-103 0 -141 98 -141 207c0 111 48 206 151 206c45 0 79 -18 101 -47l-29 -40c-18 25 -37 39 -71 39c-66 0 -93 -75 -93 -148v-14c16 28 51 59 95 59c63 0 114 -45 114 -130zM239 123c0 61 -33 85 -72 85c-33 0 -62 -25 -78 -56
c3 -49 21 -111 79 -111c48 0 71 43 71 82z" />
    <glyph glyph-name="seven.dnom" unicode="&#xf65c;" horiz-adv-x="301" 
d="M273 360l-138 -360h-60l138 352h-188v48h248v-40z" />
    <glyph glyph-name="eight.dnom" unicode="&#xf65d;" 
d="M295 100c0 -68 -56 -107 -132 -107c-75 0 -132 38 -132 107c0 52 42 92 87 106c-41 13 -80 46 -80 97c0 72 63 103 125 103c63 0 126 -31 126 -103c0 -51 -39 -84 -80 -97c44 -14 86 -54 86 -106zM232 296c0 41 -29 64 -69 64s-68 -23 -68 -64c0 -49 54 -67 68 -70
c16 3 69 21 69 70zM237 105c0 54 -57 78 -74 80c-16 -2 -74 -26 -74 -80c0 -43 34 -66 74 -66s74 23 74 66z" />
    <glyph glyph-name="nine.dnom" unicode="&#xf65e;" 
d="M30 274c0 71 48 132 128 132c103 0 141 -98 141 -207c0 -111 -48 -206 -151 -206c-45 0 -79 18 -101 47l29 40c17 -25 37 -39 72 -39c64 0 91 75 92 149v13c-16 -28 -52 -59 -95 -59c-63 0 -115 45 -115 130zM89 276c0 -61 33 -85 72 -85c33 0 61 25 78 57
c-3 48 -21 110 -79 110c-48 0 -71 -43 -71 -82z" />
    <glyph glyph-name="zero.numr" unicode="&#xf661;" 
d="M302 467c0 -98 -38 -207 -138 -207c-101 0 -139 109 -139 207c0 99 38 206 139 206c100 0 138 -107 138 -206zM242 467c0 79 -16 158 -78 158s-80 -79 -80 -158s18 -159 80 -159s78 80 78 159z" />
    <glyph glyph-name="one.numr" unicode="&#xf662;" horiz-adv-x="225" 
d="M169 267h-59v325l-62 -66l-34 36l104 105h51v-400z" />
    <glyph glyph-name="two.numr" unicode="&#xf663;" 
d="M292 267h-251v44c139 137 191 189 191 248c0 44 -32 66 -69 66c-40 0 -73 -20 -91 -51l-35 35c29 42 75 64 128 64c68 0 125 -38 125 -112c0 -70 -59 -132 -171 -246h173v-48z" />
    <glyph glyph-name="three.numr" unicode="&#xf664;" 
d="M293 376c0 -68 -48 -116 -131 -116c-62 0 -108 29 -131 66l36 35c20 -32 54 -53 93 -53c50 0 76 28 76 71c0 53 -40 70 -83 70c-14 0 -28 0 -33 -1v48c6 -1 19 -1 31 -1c46 0 79 20 79 65c0 44 -31 65 -72 65c-37 0 -65 -17 -88 -47l-34 32c27 38 71 63 126 63
c73 0 125 -37 125 -107c0 -51 -38 -84 -76 -92c37 -5 82 -40 82 -98z" />
    <glyph glyph-name="four.numr" unicode="&#xf665;" 
d="M301 368h-47v-101h-57v101h-169v45l151 254h75v-252h47v-47zM197 415v193l-115 -193h115z" />
    <glyph glyph-name="five.numr" unicode="&#xf666;" 
d="M293 393c0 -78 -54 -133 -132 -133c-62 0 -102 25 -129 66l37 35c21 -34 50 -53 91 -53c46 0 75 38 75 83c0 53 -29 85 -72 85c-30 0 -54 -12 -77 -40l-42 15v216h227v-48h-169v-134c16 19 45 35 80 35c59 0 111 -43 111 -127z" />
    <glyph glyph-name="six.numr" unicode="&#xf667;" 
d="M297 392c0 -71 -47 -132 -127 -132c-103 0 -141 98 -141 207c0 111 48 206 151 206c45 0 79 -18 101 -47l-29 -40c-18 25 -37 39 -71 39c-66 0 -93 -75 -93 -148v-14c16 28 51 59 95 59c63 0 114 -45 114 -130zM239 390c0 61 -33 85 -72 85c-33 0 -62 -25 -78 -56
c3 -49 21 -111 79 -111c48 0 71 43 71 82z" />
    <glyph glyph-name="seven.numr" unicode="&#xf668;" horiz-adv-x="301" 
d="M273 627l-138 -360h-60l138 352h-188v48h248v-40z" />
    <glyph glyph-name="eight.numr" unicode="&#xf669;" 
d="M295 367c0 -68 -56 -107 -132 -107c-75 0 -132 38 -132 107c0 52 42 92 87 106c-41 13 -80 46 -80 97c0 72 63 103 125 103c63 0 126 -31 126 -103c0 -51 -39 -84 -80 -97c44 -14 86 -54 86 -106zM232 563c0 41 -29 64 -69 64s-68 -23 -68 -64c0 -49 54 -67 68 -70
c16 3 69 21 69 70zM237 372c0 54 -57 78 -74 80c-16 -2 -74 -26 -74 -80c0 -43 34 -66 74 -66s74 23 74 66z" />
    <glyph glyph-name="nine.numr" unicode="&#xf66a;" 
d="M30 541c0 71 48 132 128 132c103 0 141 -98 141 -207c0 -111 -48 -206 -151 -206c-45 0 -79 18 -101 47l29 40c17 -25 37 -39 72 -39c64 0 91 75 92 149v13c-16 -28 -52 -59 -95 -59c-63 0 -115 45 -115 130zM89 543c0 -61 33 -85 72 -85c33 0 61 25 78 57
c-3 48 -21 110 -79 110c-48 0 -71 -43 -71 -82z" />
    <glyph glyph-name="Abreve.smcp" unicode="&#xf66d;" horiz-adv-x="445" 
d="M179 550h87l172 -550h-80l-36 122h-199l-36 -122h-81zM305 188l-82 277l-84 -277h166zM370 678c-33 -46 -87 -75 -147 -75s-114 29 -148 75l37 30c24 -36 66 -58 111 -58s86 22 111 58z" />
    <glyph glyph-name="Amacron.smcp" unicode="&#xf66e;" horiz-adv-x="445" 
d="M179 550h87l172 -550h-80l-36 122h-199l-36 -122h-81zM305 188l-82 277l-84 -277h166zM376 628h-306v46h306v-46z" />
    <glyph glyph-name="Aogonek.smcp" unicode="&#xf66f;" horiz-adv-x="445" 
d="M179 550h87l172 -550c-43 -25 -71 -58 -71 -102c0 -32 16 -46 37 -46c23 0 35 14 42 38l36 -19c-11 -31 -35 -57 -78 -57c-44 0 -80 25 -80 82c0 39 20 75 51 104h-17l-36 122h-199l-36 -122h-81zM305 188l-82 277l-84 -277h166z" />
    <glyph glyph-name="AEacute.smcp" unicode="&#xf670;" horiz-adv-x="648" 
d="M460 750l-135 -144h-51l114 144h72zM603 0h-301v122h-160l-58 -122h-81l269 550h331v-66h-226v-169h220v-66h-220v-183h226v-66zM302 188v277l-133 -277h133z" />
    <glyph glyph-name="Cacute.smcp" unicode="&#xf671;" horiz-adv-x="468" 
d="M269 -12c-140 0 -226 123 -226 287c0 165 86 287 226 287c86 0 139 -49 173 -112l-61 -28c-24 47 -63 74 -112 74c-92 0 -149 -94 -149 -221c0 -125 57 -221 149 -221c50 0 90 29 112 76l62 -27c-35 -65 -87 -115 -174 -115zM397 750l-135 -144h-51l114 144h72z" />
    <glyph glyph-name="Ccaron.smcp" unicode="&#xf672;" horiz-adv-x="468" 
d="M269 -12c-140 0 -226 123 -226 287c0 165 86 287 226 287c86 0 139 -49 173 -112l-61 -28c-24 47 -63 74 -112 74c-92 0 -149 -94 -149 -221c0 -125 57 -221 149 -221c50 0 90 29 112 76l62 -27c-35 -65 -87 -115 -174 -115zM307 606h-70l-83 144h46l72 -105l69 105h46z
" />
    <glyph glyph-name="Ccircumflex.smcp" unicode="&#xf673;" horiz-adv-x="468" 
d="M269 -12c-140 0 -226 123 -226 287c0 165 86 287 226 287c86 0 139 -49 173 -112l-61 -28c-24 47 -63 74 -112 74c-92 0 -149 -94 -149 -221c0 -125 57 -221 149 -221c50 0 90 29 112 76l62 -27c-35 -65 -87 -115 -174 -115zM387 606h-46l-72 105l-69 -105h-46l80 144h70
z" />
    <glyph glyph-name="Cdotaccent.smcp" unicode="&#xf674;" horiz-adv-x="468" 
d="M269 -12c-140 0 -226 123 -226 287c0 165 86 287 226 287c86 0 139 -49 173 -112l-61 -28c-24 47 -63 74 -112 74c-92 0 -149 -94 -149 -221c0 -125 57 -221 149 -221c50 0 90 29 112 76l62 -27c-35 -65 -87 -115 -174 -115zM271 630c-24 0 -46 21 -46 46s22 45 46 45
c25 0 45 -20 45 -45s-20 -46 -45 -46z" />
    <glyph glyph-name="Dcaron.smcp" unicode="&#xf675;" horiz-adv-x="502" 
d="M215 0h-158v550h158c151 0 235 -119 235 -276s-83 -274 -235 -274zM215 66c104 0 158 89 158 208c0 120 -53 210 -158 210h-83v-418h83zM279 606h-70l-83 144h46l72 -105l69 105h46z" />
    <glyph glyph-name="Dcroat.smcp" unicode="&#xf676;" horiz-adv-x="521" 
d="M234 0h-158v252h-60v50h60v248h158c151 0 235 -119 235 -276s-83 -274 -235 -274zM253 252h-102v-186h83c104 0 158 89 158 208c0 120 -53 210 -158 210h-83v-182h102v-50z" />
    <glyph glyph-name="Ebreve.smcp" unicode="&#xf677;" horiz-adv-x="411" 
d="M367 0h-301v550h301v-66h-226v-169h220v-66h-220v-183h226v-66zM364 678c-33 -46 -87 -75 -147 -75s-114 29 -148 75l37 30c24 -36 66 -58 111 -58s86 22 111 58z" />
    <glyph glyph-name="Ecaron.smcp" unicode="&#xf678;" horiz-adv-x="411" 
d="M367 0h-301v550h301v-66h-226v-169h220v-66h-220v-183h226v-66zM253 606h-70l-83 144h46l72 -105l69 105h46z" />
    <glyph glyph-name="Edotaccent.smcp" unicode="&#xf679;" horiz-adv-x="411" 
d="M367 0h-301v550h301v-66h-226v-169h220v-66h-220v-183h226v-66zM220 630c-24 0 -46 21 -46 46s22 45 46 45c25 0 45 -20 45 -45s-20 -46 -45 -46z" />
    <glyph glyph-name="Emacron.smcp" unicode="&#xf67a;" horiz-adv-x="411" 
d="M367 0h-301v550h301v-66h-226v-169h220v-66h-220v-183h226v-66zM369 628h-306v46h306v-46z" />
    <glyph glyph-name="Eng.smcp" unicode="&#xf67b;" horiz-adv-x="510" 
d="M286 -196c-49 0 -90 17 -122 54l31 57c21 -27 49 -45 85 -45c55 0 89 34 89 93v35l-229 415v-413h-74v550h78l225 -404v404h75v-593c0 -105 -67 -153 -158 -153z" />
    <glyph glyph-name="Eogonek.smcp" unicode="&#xf67c;" horiz-adv-x="411" 
d="M375 -110l36 -19c-11 -31 -35 -57 -78 -57c-44 0 -80 25 -80 82c0 39 20 75 51 104h-238v550h301v-66h-226v-169h220v-66h-220v-183h226v-66c-43 -25 -71 -58 -71 -102c0 -32 16 -46 37 -46c23 0 35 14 42 38z" />
    <glyph glyph-name="Gbreve.smcp" unicode="&#xf67d;" horiz-adv-x="500" 
d="M270 -12c-139 0 -227 118 -227 287c0 170 88 287 227 287c83 0 137 -46 173 -107l-59 -30c-26 41 -63 71 -114 71c-92 0 -150 -91 -150 -221c0 -129 58 -221 150 -221c48 0 85 22 105 45v123h-120v63h192v-215c-45 -53 -104 -82 -177 -82zM418 678
c-33 -46 -87 -75 -147 -75s-114 29 -148 75l37 30c24 -36 66 -58 111 -58s86 22 111 58z" />
    <glyph glyph-name="Gcircumflex.smcp" unicode="&#xf67e;" horiz-adv-x="500" 
d="M270 -12c-139 0 -227 118 -227 287c0 170 88 287 227 287c83 0 137 -46 173 -107l-59 -30c-26 41 -63 71 -114 71c-92 0 -150 -91 -150 -221c0 -129 58 -221 150 -221c48 0 85 22 105 45v123h-120v63h192v-215c-45 -53 -104 -82 -177 -82zM387 606h-46l-72 105l-69 -105
h-46l80 144h70z" />
    <glyph glyph-name="Gcommaaccent.smcp" unicode="&#xf67f;" horiz-adv-x="500" 
d="M270 -12c-139 0 -227 118 -227 287c0 170 88 287 227 287c83 0 137 -46 173 -107l-59 -30c-26 41 -63 71 -114 71c-92 0 -150 -91 -150 -221c0 -129 58 -221 150 -221c48 0 85 22 105 45v123h-120v63h192v-215c-45 -53 -104 -82 -177 -82zM325 -138
c0 -54 -32 -105 -71 -133l-31 25c30 21 55 57 57 87c-1 0 -7 -1 -11 -1c-23 0 -41 18 -41 43c0 24 20 45 45 45c28 0 52 -24 52 -66z" />
    <glyph glyph-name="Gdotaccent.smcp" unicode="&#xf680;" horiz-adv-x="500" 
d="M270 -12c-139 0 -227 118 -227 287c0 170 88 287 227 287c83 0 137 -46 173 -107l-59 -30c-26 41 -63 71 -114 71c-92 0 -150 -91 -150 -221c0 -129 58 -221 150 -221c48 0 85 22 105 45v123h-120v63h192v-215c-45 -53 -104 -82 -177 -82zM271 630c-24 0 -46 21 -46 46
s22 45 46 45c25 0 45 -20 45 -45s-20 -46 -45 -46z" />
    <glyph glyph-name="Hcircumflex.smcp" unicode="&#xf681;" horiz-adv-x="513" 
d="M448 0h-75v250h-232v-250h-75v550h75v-234h232v234h75v-550zM372 606h-46l-72 105l-69 -105h-46l80 144h70z" />
    <glyph glyph-name="Hbar.smcp" unicode="&#xf682;" horiz-adv-x="544" 
d="M464 0h-75v250h-232v-250h-75v411h-66v46h66v93h75v-93h232v93h75v-93h58v-46h-58v-411zM157 316h232v95h-232v-95z" />
    <glyph glyph-name="Ibreve.smcp" unicode="&#xf683;" horiz-adv-x="204" 
d="M140 0h-75v550h75v-550zM248 678c-33 -46 -87 -75 -147 -75s-114 29 -148 75l37 30c24 -36 66 -58 111 -58s86 22 111 58z" />
    <glyph glyph-name="IJ.smcp" unicode="&#xf684;" horiz-adv-x="559" 
d="M141 0h-75v550h75v-550zM334 -12c-48 0 -89 17 -121 54l31 57c21 -27 49 -45 84 -45c56 0 90 34 90 93v403h75v-409c0 -105 -67 -153 -159 -153z" />
    <glyph glyph-name="Imacron.smcp" unicode="&#xf685;" horiz-adv-x="204" 
d="M140 0h-75v550h75v-550zM256 628h-306v46h306v-46z" />
    <glyph glyph-name="Iogonek.smcp" unicode="&#xf686;" horiz-adv-x="204" 
d="M148 -110l36 -19c-11 -31 -35 -57 -78 -57c-44 0 -80 25 -80 82c0 39 20 75 51 104h-12v550h75v-550c-43 -25 -71 -58 -71 -102c0 -32 16 -46 37 -46c23 0 35 14 42 38z" />
    <glyph glyph-name="Itilde.smcp" unicode="&#xf687;" horiz-adv-x="204" 
d="M140 0h-75v550h75v-550zM154 591c-64 0 -60 94 -102 94c-23 0 -41 -27 -41 -88h-42c0 76 28 134 85 134c64 0 61 -94 102 -94c24 0 41 27 41 88h42c0 -76 -28 -134 -85 -134z" />
    <glyph glyph-name="Jcircumflex.smcp" unicode="&#xf688;" horiz-adv-x="353" 
d="M128 -12c-48 0 -89 17 -121 54l31 57c21 -27 49 -45 84 -45c56 0 90 34 90 93v403h75v-409c0 -105 -67 -153 -159 -153zM367 606h-46l-72 105l-69 -105h-46l80 144h70z" />
    <glyph glyph-name="Kcommaaccent.smcp" unicode="&#xf689;" horiz-adv-x="453" 
d="M441 0h-90l-166 237l-44 -61v-176h-75v550h75v-273l195 273h89l-194 -261zM285 -138c0 -54 -32 -105 -71 -133l-31 25c30 21 55 57 57 87c-1 0 -7 -1 -11 -1c-23 0 -41 18 -41 43c0 24 20 45 45 45c28 0 52 -24 52 -66z" />
    <glyph glyph-name="Lacute.smcp" unicode="&#xf68a;" horiz-adv-x="378" 
d="M349 0h-283v550h75v-484h208v-66zM338 750l-135 -144h-51l114 144h72z" />
    <glyph glyph-name="Lcaron.smcp" unicode="&#xf68b;" horiz-adv-x="382" 
d="M349 0h-283v550h75v-484h208v-66zM300 494c0 -54 -32 -105 -71 -133l-31 25c30 21 55 57 57 87c-1 0 -7 -1 -11 -1c-23 0 -41 18 -41 43c0 24 20 45 45 45c28 0 52 -24 52 -66z" />
    <glyph glyph-name="Lcommaaccent.smcp" unicode="&#xf68c;" horiz-adv-x="378" 
d="M349 0h-283v550h75v-484h208v-66zM259 -138c0 -54 -32 -105 -71 -133l-31 25c30 21 55 57 57 87c-1 0 -7 -1 -11 -1c-23 0 -41 18 -41 43c0 24 20 45 45 45c28 0 52 -24 52 -66z" />
    <glyph glyph-name="Ldot.smcp" unicode="&#xf68d;" horiz-adv-x="411" 
d="M349 0h-283v550h75v-484h208v-66zM366 293c0 -29 -25 -54 -54 -54s-53 25 -53 54c0 28 24 53 53 53s54 -25 54 -53z" />
    <glyph glyph-name="Nacute.smcp" unicode="&#xf68e;" horiz-adv-x="510" 
d="M444 0h-75l-229 413v-413h-74v550h78l225 -404v404h75v-550zM382 750l-135 -144h-51l114 144h72z" />
    <glyph glyph-name="Ncaron.smcp" unicode="&#xf68f;" horiz-adv-x="510" 
d="M444 0h-75l-229 413v-413h-74v550h78l225 -404v404h75v-550zM291 606h-70l-83 144h46l72 -105l69 105h46z" />
    <glyph glyph-name="Ncommaaccent.smcp" unicode="&#xf690;" horiz-adv-x="510" 
d="M444 0h-75l-229 413v-413h-74v550h78l225 -404v404h75v-550zM308 -138c0 -54 -32 -105 -71 -133l-31 25c30 21 55 57 57 87c-1 0 -7 -1 -11 -1c-23 0 -41 18 -41 43c0 24 20 45 45 45c28 0 52 -24 52 -66z" />
    <glyph glyph-name="Obreve.smcp" unicode="&#xf691;" horiz-adv-x="529" 
d="M265 -12c-145 0 -222 127 -222 287s77 287 222 287c143 0 221 -127 221 -287s-78 -287 -221 -287zM265 54c94 0 144 100 144 221c0 123 -50 221 -144 221c-96 0 -145 -98 -145 -221c0 -121 49 -221 145 -221zM413 678c-33 -46 -87 -75 -147 -75s-114 29 -148 75l37 30
c24 -36 66 -58 111 -58s86 22 111 58z" />
    <glyph glyph-name="Ohungarumlaut.smcp" unicode="&#xf692;" horiz-adv-x="529" 
d="M265 -12c-145 0 -222 127 -222 287s77 287 222 287c143 0 221 -127 221 -287s-78 -287 -221 -287zM265 54c94 0 144 100 144 221c0 123 -50 221 -144 221c-96 0 -145 -98 -145 -221c0 -121 49 -221 145 -221zM307 750l-96 -144h-43l75 144h64zM437 750l-97 -144h-43
l75 144h65z" />
    <glyph glyph-name="Omacron.smcp" unicode="&#xf693;" horiz-adv-x="529" 
d="M265 -12c-145 0 -222 127 -222 287s77 287 222 287c143 0 221 -127 221 -287s-78 -287 -221 -287zM265 54c94 0 144 100 144 221c0 123 -50 221 -144 221c-96 0 -145 -98 -145 -221c0 -121 49 -221 145 -221zM418 632h-306v46h306v-46z" />
    <glyph glyph-name="Oslashacute.smcp" unicode="&#xf694;" horiz-adv-x="529" 
d="M265 -12c-49 0 -90 14 -123 39l-16 -27h-56l37 62c-42 52 -64 128 -64 213c0 160 77 287 222 287c48 0 88 -14 121 -39l16 27h56l-37 -61c42 -53 65 -129 65 -214c0 -160 -78 -287 -221 -287zM265 54c94 0 144 100 144 221c0 55 -11 105 -30 144l-199 -330
c22 -22 50 -35 85 -35zM120 275c0 -55 10 -105 29 -144l200 330c-22 22 -51 35 -84 35c-96 0 -145 -98 -145 -221zM394 750l-135 -144h-51l114 144h72z" />
    <glyph glyph-name="Racute.smcp" unicode="&#xf695;" horiz-adv-x="449" 
d="M410 0h-85l-108 215h-76v-215h-75v550h176c103 0 160 -73 160 -167c0 -91 -50 -147 -113 -157zM235 281c61 0 90 43 90 102s-31 101 -90 101h-94v-203h94zM348 750l-135 -144h-51l114 144h72z" />
    <glyph glyph-name="Rcaron.smcp" unicode="&#xf696;" horiz-adv-x="449" 
d="M410 0h-85l-108 215h-76v-215h-75v550h176c103 0 160 -73 160 -167c0 -91 -50 -147 -113 -157zM235 281c61 0 90 43 90 102s-31 101 -90 101h-94v-203h94zM257 606h-70l-83 144h46l72 -105l69 105h46z" />
    <glyph glyph-name="Rcommaaccent.smcp" unicode="&#xf697;" horiz-adv-x="449" 
d="M410 0h-85l-108 215h-76v-215h-75v550h176c103 0 160 -73 160 -167c0 -91 -50 -147 -113 -157zM235 281c61 0 90 43 90 102s-31 101 -90 101h-94v-203h94zM276 -138c0 -54 -32 -105 -71 -133l-31 25c30 21 55 57 57 87c-1 0 -7 -1 -11 -1c-23 0 -41 18 -41 43
c0 24 20 45 45 45c28 0 52 -24 52 -66z" />
    <glyph glyph-name="Sacute.smcp" unicode="&#xf698;" horiz-adv-x="408" 
d="M200 -12c-75 0 -132 26 -174 71l38 56c30 -35 79 -62 135 -62c66 0 101 38 101 88c0 131 -256 95 -256 275c0 85 70 146 166 146c67 0 117 -21 157 -61l-36 -54c-33 35 -76 50 -120 50c-51 0 -90 -32 -90 -80c0 -114 256 -87 256 -274c0 -88 -62 -155 -177 -155zM334 750
l-135 -144h-51l114 144h72z" />
    <glyph glyph-name="Scedilla.smcp" unicode="&#xf699;" horiz-adv-x="408" 
d="M199 -191c-37 0 -69 14 -89 30l18 37c22 -19 45 -28 70 -28c28 0 54 15 54 42c0 21 -12 35 -33 35c-14 0 -25 -7 -33 -16l-32 18l22 62c-64 5 -113 30 -150 70l38 56c30 -35 79 -62 135 -62c66 0 101 38 101 88c0 131 -256 95 -256 275c0 85 70 146 166 146
c67 0 117 -21 157 -61l-36 -54c-33 35 -76 50 -120 50c-51 0 -90 -32 -90 -80c0 -114 256 -87 256 -274c0 -83 -55 -147 -158 -154l-17 -44c9 7 20 10 33 10c34 0 60 -26 60 -66c0 -48 -42 -80 -96 -80z" />
    <glyph glyph-name="Scircumflex.smcp" unicode="&#xf69a;" horiz-adv-x="408" 
d="M200 -12c-75 0 -132 26 -174 71l38 56c30 -35 79 -62 135 -62c66 0 101 38 101 88c0 131 -256 95 -256 275c0 85 70 146 166 146c67 0 117 -21 157 -61l-36 -54c-33 35 -76 50 -120 50c-51 0 -90 -32 -90 -80c0 -114 256 -87 256 -274c0 -88 -62 -155 -177 -155zM324 606
h-46l-72 105l-69 -105h-46l80 144h70z" />
    <glyph glyph-name="Scommaaccent.smcp" unicode="&#xf69b;" horiz-adv-x="408" 
d="M200 -12c-75 0 -132 26 -174 71l38 56c30 -35 79 -62 135 -62c66 0 101 38 101 88c0 131 -256 95 -256 275c0 85 70 146 166 146c67 0 117 -21 157 -61l-36 -54c-33 35 -76 50 -120 50c-51 0 -90 -32 -90 -80c0 -114 256 -87 256 -274c0 -88 -62 -155 -177 -155z
M258 -138c0 -54 -32 -105 -71 -133l-31 25c30 21 55 57 57 87c-1 0 -7 -1 -11 -1c-23 0 -41 18 -41 43c0 24 20 45 45 45c28 0 52 -24 52 -66z" />
    <glyph glyph-name="Tbar.smcp" unicode="&#xf69c;" horiz-adv-x="373" 
d="M224 0h-75v243h-85v46h85v195h-128v66h331v-66h-128v-195h80v-46h-80v-243z" />
    <glyph glyph-name="Tcaron.smcp" unicode="&#xf69d;" horiz-adv-x="373" 
d="M224 0h-75v484h-128v66h331v-66h-128v-484zM224 606h-70l-83 144h46l72 -105l69 105h46z" />
    <glyph glyph-name="Tcommaaccent.smcp" unicode="&#xf69e;" horiz-adv-x="373" 
d="M224 0h-75v484h-128v66h331v-66h-128v-484zM238 -138c0 -54 -32 -105 -71 -133l-31 25c30 21 55 57 57 87c-1 0 -7 -1 -11 -1c-23 0 -41 18 -41 43c0 24 20 45 45 45c28 0 52 -24 52 -66z" />
    <glyph glyph-name="Ubreve.smcp" unicode="&#xf69f;" horiz-adv-x="507" 
d="M253 -12c-127 0 -187 77 -187 220v342h75v-363c0 -86 38 -133 112 -133s113 48 113 133v363h75v-342c0 -144 -61 -220 -188 -220zM401 678c-33 -46 -87 -75 -147 -75s-114 29 -148 75l37 30c24 -36 66 -58 111 -58s86 22 111 58z" />
    <glyph glyph-name="Uhungarumlaut.smcp" unicode="&#xf6a0;" horiz-adv-x="507" 
d="M253 -12c-127 0 -187 77 -187 220v342h75v-363c0 -86 38 -133 112 -133s113 48 113 133v363h75v-342c0 -144 -61 -220 -188 -220zM294 750l-96 -144h-43l75 144h64zM424 750l-97 -144h-43l75 144h65z" />
    <glyph glyph-name="Umacron.smcp" unicode="&#xf6a1;" horiz-adv-x="507" 
d="M253 -12c-127 0 -187 77 -187 220v342h75v-363c0 -86 38 -133 112 -133s113 48 113 133v363h75v-342c0 -144 -61 -220 -188 -220zM407 628h-306v46h306v-46z" />
    <glyph glyph-name="Uogonek.smcp" unicode="&#xf6a2;" horiz-adv-x="507" 
d="M253 -12c-127 0 -187 77 -187 220v342h75v-363c0 -86 38 -133 112 -133s113 48 113 133v363h75v-342c0 -111 -36 -182 -111 -208c-43 -25 -71 -58 -71 -102c0 -32 16 -46 37 -46c23 0 35 14 42 38l36 -19c-11 -31 -35 -57 -78 -57c-44 0 -80 25 -80 82c0 34 15 66 39 92
h-2z" />
    <glyph glyph-name="Uring.smcp" unicode="&#xf6a3;" horiz-adv-x="507" 
d="M253 -12c-127 0 -187 77 -187 220v342h75v-363c0 -86 38 -133 112 -133s113 48 113 133v363h75v-342c0 -144 -61 -220 -188 -220zM256 605c-50 0 -91 41 -91 91s41 90 91 90s90 -40 90 -90s-40 -91 -90 -91zM256 643c29 0 52 23 52 53c0 29 -23 53 -52 53
s-53 -24 -53 -53c0 -30 24 -53 53 -53z" />
    <glyph glyph-name="Utilde.smcp" unicode="&#xf6a4;" horiz-adv-x="507" 
d="M253 -12c-127 0 -187 77 -187 220v342h75v-363c0 -86 38 -133 112 -133s113 48 113 133v363h75v-342c0 -144 -61 -220 -188 -220zM303 604c-64 0 -60 94 -102 94c-23 0 -41 -27 -41 -88h-42c0 76 28 134 85 134c64 0 61 -94 102 -94c24 0 41 27 41 88h42
c0 -76 -28 -134 -85 -134z" />
    <glyph glyph-name="Wcircumflex.smcp" unicode="&#xf6a6;" horiz-adv-x="623" 
d="M428 606h-46l-72 105l-69 -105h-46l80 144h70zM483 0h-78l-94 417l-93 -417h-78l-131 550h80l93 -428l98 428h63l98 -428l93 428h80z" />
    <glyph glyph-name="Ycircumflex.smcp" unicode="&#xf6a9;" horiz-adv-x="439" 
d="M258 0h-75v233l-180 317h84l133 -246l133 246h82l-177 -317v-233zM338 606h-46l-72 105l-69 -105h-46l80 144h70z" />
    <glyph glyph-name="Zacute.smcp" unicode="&#xf6ab;" horiz-adv-x="405" 
d="M372 0h-339v58l241 426h-241v66h333v-57l-241 -427h247v-66zM328 750l-135 -144h-51l114 144h72z" />
    <glyph glyph-name="Zdotaccent.smcp" unicode="&#xf6ac;" horiz-adv-x="405" 
d="M372 0h-339v58l241 426h-241v66h333v-57l-241 -427h247v-66zM207 630c-24 0 -46 21 -46 46s22 45 46 45c25 0 45 -20 45 -45s-20 -46 -45 -46z" />
    <glyph glyph-name="Idotaccent.smcp" unicode="&#xf6ad;" horiz-adv-x="187" 
d="M132 0h-75v550h75v-550zM94 630c-24 0 -46 21 -46 46s22 45 46 45c25 0 45 -20 45 -45s-20 -46 -45 -46z" />
    <glyph glyph-name="parenleft.case" unicode="&#xf6ae;" horiz-adv-x="229" 
d="M211 -81l-47 -28c-77 130 -118 281 -118 442s41 312 118 442l47 -27c-53 -127 -86 -247 -86 -415c0 -167 33 -288 86 -414z" />
    <glyph glyph-name="parenright.case" unicode="&#xf6af;" horiz-adv-x="229" 
d="M18 -81l47 -28c76 130 118 281 118 442s-42 312 -118 442l-47 -27c53 -127 86 -247 86 -415c0 -167 -33 -288 -86 -414z" />
    <glyph glyph-name="bracketleft.case" unicode="&#xf6b0;" horiz-adv-x="212" 
d="M195 -100h-158v868h158v-53h-102v-762h102v-53z" />
    <glyph glyph-name="bracketright.case" unicode="&#xf6b1;" horiz-adv-x="212" 
d="M175 -100h-158v53h102v762h-102v53h158v-868z" />
    <glyph glyph-name="braceleft.case" unicode="&#xf6b2;" horiz-adv-x="231" 
d="M214 -100h-46c-56 0 -110 47 -110 119v221c0 37 -17 70 -52 70v48c35 0 52 33 52 70v221c0 72 54 119 110 119h46v-53h-46c-29 0 -54 -27 -54 -66v-227c0 -42 -12 -74 -45 -88c33 -14 45 -46 45 -88v-227c0 -38 25 -66 54 -66h46v-53z" />
    <glyph glyph-name="braceright.case" unicode="&#xf6b3;" horiz-adv-x="231" 
d="M17 -100v53h46c29 0 54 28 54 66v227c0 42 12 74 45 88c-33 14 -45 46 -45 88v227c0 39 -25 66 -54 66h-46v53h46c56 0 111 -47 111 -119v-221c0 -37 17 -70 52 -70v-48c-35 0 -52 -33 -52 -70v-221c0 -72 -55 -119 -111 -119h-46z" />
    <glyph glyph-name="exclamdown.case" unicode="&#xf6b4;" horiz-adv-x="228" 
d="M69 0l15 482h60l15 -482h-90zM61 623c0 29 24 54 53 54s54 -25 54 -54c0 -28 -25 -53 -54 -53s-53 25 -53 53z" />
    <glyph glyph-name="questiondown.case" unicode="&#xf6b5;" horiz-adv-x="388" 
d="M219 481c23 -23 33 -51 33 -83c0 -123 -144 -141 -144 -250c0 -46 34 -90 97 -90c52 0 85 21 114 58l41 -52c-40 -49 -97 -77 -166 -77c-102 0 -166 66 -166 149c0 141 154 167 154 267c0 18 -9 39 -23 51zM196 677c29 0 54 -25 54 -54c0 -28 -25 -53 -54 -53
s-53 25 -53 53c0 29 24 54 53 54z" />
    <glyph glyph-name="guillemotleft.case" unicode="&#xf6b6;" horiz-adv-x="382" 
d="M352 162h-67l-125 180l125 177h67l-125 -177zM222 162h-67l-125 180l125 177h67l-125 -177z" />
    <glyph glyph-name="guillemotright.case" unicode="&#xf6b7;" horiz-adv-x="382" 
d="M222 342l-125 -180h-67l125 180l-125 177h67zM352 342l-125 -180h-67l125 180l-125 177h67z" />
    <glyph glyph-name="guilsinglleft.case" unicode="&#xf6b8;" horiz-adv-x="252" 
d="M222 162h-67l-125 180l125 177h67l-125 -177z" />
    <glyph glyph-name="guilsinglright.case" unicode="&#xf6b9;" horiz-adv-x="252" 
d="M222 342l-125 -180h-67l125 180l-125 177h67z" />
    <glyph glyph-name="hyphen.case" unicode="&#xf6ba;" horiz-adv-x="268" 
d="M238 309h-208v64h208v-64z" />
    <glyph glyph-name="endash.case" unicode="&#xf6bb;" horiz-adv-x="527" 
d="M497 309h-467v64h467v-64z" />
    <glyph glyph-name="emdash.case" unicode="&#xf6bc;" horiz-adv-x="737" 
d="M707 309h-677v64h677v-64z" />
    <glyph glyph-name="periodcentered.case" unicode="&#xf6bd;" horiz-adv-x="229" 
d="M168 343c0 -29 -25 -54 -54 -54s-53 25 -53 54c0 28 24 53 53 53s54 -25 54 -53z" />
    <glyph glyph-name="bullet.case" unicode="&#xf6be;" horiz-adv-x="358" 
d="M287 341c0 -58 -48 -106 -107 -106s-107 48 -107 106c0 59 48 107 107 107s107 -48 107 -107z" />
    <glyph glyph-name="cent.case" unicode="&#xf6bf;" horiz-adv-x="407" 
d="M204 -9v92c-102 20 -162 122 -162 250c0 127 60 229 162 249v74h57v-71c56 -4 93 -30 120 -63l-39 -49c-23 31 -50 45 -81 48v-378c31 3 58 19 81 49l39 -49c-27 -35 -64 -59 -120 -64v-88h-57zM117 333c0 -84 30 -156 87 -181v361c-57 -25 -87 -97 -87 -180z" />
    <glyph glyph-name="commaaccent" unicode="&#xf6c3;" horiz-adv-x="229" 
d="M165 -138c0 -54 -32 -105 -71 -133l-31 25c30 21 55 57 57 87c-1 0 -7 -1 -11 -1c-23 0 -41 18 -41 43c0 24 20 45 45 45c28 0 52 -24 52 -66z" />
    <glyph glyph-name="one.tnum" unicode="&#xf6dc;" horiz-adv-x="496" 
d="M344 0h-79v562l-103 -110l-48 50l160 165h70v-667z" />
    <glyph glyph-name="Lslash.smcp" unicode="&#xf6f9;" horiz-adv-x="398" 
d="M16 182v69l71 41v258h75v-215l78 46v-69l-78 -46v-200h208v-66h-283v223z" />
    <glyph glyph-name="OE.smcp" unicode="&#xf6fa;" horiz-adv-x="743" 
d="M698 0h-302v77c-32 -65 -86 -89 -144 -89c-136 0 -209 127 -209 287s73 287 209 287c58 0 112 -25 144 -89v77h302v-66h-227v-169h221v-66h-221v-183h227v-66zM396 175v201c-21 80 -71 120 -131 120c-97 0 -145 -98 -145 -221c0 -122 48 -221 145 -221
c62 0 110 41 131 121z" />
    <glyph glyph-name="Scaron.smcp" unicode="&#xf6fd;" horiz-adv-x="408" 
d="M200 -12c-75 0 -132 26 -174 71l38 56c30 -35 79 -62 135 -62c66 0 101 38 101 88c0 131 -256 95 -256 275c0 85 70 146 166 146c67 0 117 -21 157 -61l-36 -54c-33 35 -76 50 -120 50c-51 0 -90 -32 -90 -80c0 -114 256 -87 256 -274c0 -88 -62 -155 -177 -155zM244 606
h-70l-83 144h46l72 -105l69 105h46z" />
    <glyph glyph-name="Zcaron.smcp" unicode="&#xf6ff;" horiz-adv-x="405" 
d="M372 0h-339v58l241 426h-241v66h333v-57l-241 -427h247v-66zM236 606h-70l-83 144h46l72 -105l69 105h46z" />
    <glyph glyph-name="exclam.smcp" unicode="&#xf721;" horiz-adv-x="183" 
d="M133 550l-14 -387h-55l-15 387h84zM145 44c0 -29 -24 -54 -54 -54c-29 0 -53 25 -53 54c0 28 24 53 53 53c30 0 54 -25 54 -53z" />
    <glyph glyph-name="dollar.onum" unicode="&#xf724;" horiz-adv-x="408" 
d="M179 -74v63c-65 4 -115 29 -153 70l38 56c26 -31 67 -56 115 -61v202c-67 31 -135 66 -135 160c0 75 55 132 135 143v69h57v-67c54 -5 96 -26 131 -60l-36 -54c-27 28 -60 43 -95 48v-182c68 -32 141 -70 141 -170c0 -79 -49 -140 -141 -152v-65h-57zM300 141
c0 43 -27 68 -64 88v-171c42 11 64 43 64 83zM121 417c0 -35 24 -57 58 -76v151c-35 -10 -58 -38 -58 -75z" />
    <glyph glyph-name="ampersand.smcp" unicode="&#xf726;" horiz-adv-x="450" 
d="M441 0h-83c-16 18 -32 36 -47 54c-37 -41 -82 -65 -136 -65c-85 0 -148 57 -148 152c0 84 49 129 103 165c-24 45 -37 85 -37 122c0 81 53 134 122 134c59 0 111 -41 111 -111c0 -81 -59 -119 -117 -157c15 -23 31 -47 49 -70c19 -27 36 -50 53 -71c19 38 34 81 44 120
l56 -23c-17 -54 -37 -104 -62 -145c27 -32 56 -64 92 -105zM183 42c35 0 67 22 93 55c-24 30 -46 57 -63 82c-21 28 -39 55 -55 80c-35 -28 -62 -62 -62 -114c0 -63 39 -103 87 -103zM157 427c0 -27 9 -57 25 -88c46 29 84 59 84 110c0 41 -22 62 -50 62
c-34 0 -59 -29 -59 -84z" />
    <glyph glyph-name="zero.onum" unicode="&#xf730;" horiz-adv-x="514" 
d="M467 275c0 -134 -56 -287 -210 -287s-210 153 -210 287c0 135 56 287 210 287c153 0 210 -152 210 -287zM385 275c0 99 -29 216 -128 216s-128 -117 -128 -216c0 -98 28 -216 128 -216c99 0 128 118 128 216z" />
    <glyph glyph-name="one.onum" unicode="&#xf731;" horiz-adv-x="315" 
d="M245 0h-79v445l-103 -110l-48 50l160 165h70v-550z" />
    <glyph glyph-name="two.onum" unicode="&#xf732;" horiz-adv-x="483" 
d="M413 0h-357v66c210 134 286 232 286 314c0 65 -46 111 -106 111s-109 -29 -142 -82l-52 46c43 69 112 107 197 107c107 0 183 -69 183 -171c0 -96 -79 -206 -240 -320h231v-71z" />
    <glyph glyph-name="three.onum" unicode="&#xf733;" horiz-adv-x="473" 
d="M225 -129c-94 0 -164 50 -198 111l53 47c30 -51 79 -87 143 -87c81 0 122 50 122 127c0 91 -61 121 -129 121c-20 0 -43 0 -52 -1v73c9 -1 33 -1 51 -1c67 0 121 35 121 111c0 78 -49 117 -115 117c-59 0 -101 -30 -136 -79l-50 45c40 64 108 105 191 105
c108 0 189 -59 189 -177c0 -83 -59 -141 -119 -155c58 -9 128 -69 128 -165c0 -111 -71 -192 -199 -192z" />
    <glyph glyph-name="four.onum" unicode="&#xf734;" horiz-adv-x="463" 
d="M440 56h-74v-173h-79v173h-264v70l242 424h101v-423h74v-71zM287 127v336l-191 -336h191z" />
    <glyph glyph-name="five.onum" unicode="&#xf735;" horiz-adv-x="493" 
d="M249 -129c-98 0 -156 42 -197 109l53 48c33 -55 76 -86 141 -86c74 0 121 67 121 146c0 94 -46 146 -116 146c-47 0 -83 -17 -121 -63l-59 21v358h341v-71h-262v-233c26 32 71 58 124 58c96 0 174 -76 174 -215c0 -126 -83 -218 -199 -218z" />
    <glyph glyph-name="six.onum" unicode="&#xf736;" horiz-adv-x="493" 
d="M259 -12c-160 0 -212 167 -212 345c0 179 65 344 226 344c70 0 123 -33 156 -83l-44 -56c-26 42 -57 68 -111 68c-107 0 -146 -140 -146 -266v-21c23 48 79 99 148 99c97 0 175 -71 175 -213c0 -113 -69 -217 -192 -217zM255 59c80 0 115 75 115 144
c0 105 -51 146 -115 146c-55 0 -100 -48 -126 -102c5 -75 32 -188 126 -188z" />
    <glyph glyph-name="seven.onum" unicode="&#xf737;" horiz-adv-x="424" 
d="M184 -117h-85l210 596h-283v71h373v-55z" />
    <glyph glyph-name="eight.onum" unicode="&#xf738;" horiz-adv-x="487" 
d="M244 -12c-118 0 -199 67 -199 177c0 88 68 154 133 179c-60 22 -123 78 -123 163c0 116 93 170 189 170c95 0 189 -54 189 -170c0 -85 -63 -141 -124 -163c66 -25 133 -91 133 -179c0 -110 -81 -177 -198 -177zM244 374c26 6 109 40 109 122c0 68 -45 110 -109 110
c-65 0 -109 -42 -109 -110c0 -82 83 -116 109 -122zM244 59c63 0 118 42 118 115c0 89 -91 133 -118 137c-28 -4 -118 -48 -118 -137c0 -73 53 -115 118 -115z" />
    <glyph glyph-name="nine.onum" unicode="&#xf739;" horiz-adv-x="493" 
d="M220 -128c-70 0 -122 33 -155 83l44 56c25 -42 56 -68 111 -68c108 0 146 141 146 266c0 9 0 12 -1 21c-23 -48 -78 -99 -147 -99c-97 0 -176 71 -176 213c0 113 69 217 193 217c159 0 211 -167 211 -345c0 -179 -64 -344 -226 -344zM238 200c55 0 101 48 126 102
c-5 75 -31 188 -125 188c-81 0 -116 -75 -116 -144c0 -105 52 -146 115 -146z" />
    <glyph glyph-name="question.smcp" unicode="&#xf73f;" horiz-adv-x="335" 
d="M315 438c0 -117 -136 -134 -136 -212c0 -14 6 -29 22 -42l-56 -25c-21 21 -29 44 -29 67c0 98 125 113 125 199c0 38 -28 74 -81 74c-45 0 -76 -20 -100 -50l-38 45c35 43 87 68 149 68c89 0 144 -55 144 -124zM219 44c0 -29 -25 -54 -54 -54s-53 25 -53 54
c0 28 24 53 53 53s54 -25 54 -53z" />
    <glyph glyph-name="A.smcp" unicode="&#xf761;" horiz-adv-x="445" 
d="M179 550h87l172 -550h-80l-36 122h-199l-36 -122h-81zM305 188l-82 277l-84 -277h166z" />
    <glyph glyph-name="B.smcp" unicode="&#xf762;" horiz-adv-x="449" 
d="M261 0h-195v550h189c93 0 146 -57 146 -141c0 -66 -36 -109 -83 -125c54 -14 93 -72 93 -135c0 -89 -52 -149 -150 -149zM249 66c55 0 84 34 84 91c0 48 -27 92 -84 92h-108v-183h108zM245 315c55 0 79 37 79 84s-24 85 -79 85h-104v-169h104z" />
    <glyph glyph-name="C.smcp" unicode="&#xf763;" horiz-adv-x="468" 
d="M269 -12c-140 0 -226 123 -226 287c0 165 86 287 226 287c86 0 139 -49 173 -112l-61 -28c-24 47 -63 74 -112 74c-92 0 -149 -94 -149 -221c0 -125 57 -221 149 -221c50 0 90 29 112 76l62 -27c-35 -65 -87 -115 -174 -115z" />
    <glyph glyph-name="D.smcp" unicode="&#xf764;" horiz-adv-x="502" 
d="M224 0h-158v550h158c151 0 235 -119 235 -276s-83 -274 -235 -274zM224 66c104 0 158 89 158 208c0 120 -53 210 -158 210h-83v-418h83z" />
    <glyph glyph-name="E.smcp" unicode="&#xf765;" horiz-adv-x="411" 
d="M367 0h-301v550h301v-66h-226v-169h220v-66h-220v-183h226v-66z" />
    <glyph glyph-name="F.smcp" unicode="&#xf766;" horiz-adv-x="401" 
d="M141 0h-75v550h301v-66h-226v-169h220v-66h-220v-249z" />
    <glyph glyph-name="G.smcp" unicode="&#xf767;" horiz-adv-x="500" 
d="M270 -12c-139 0 -227 118 -227 287c0 170 88 287 227 287c83 0 137 -46 173 -107l-59 -30c-26 41 -63 71 -114 71c-92 0 -150 -91 -150 -221c0 -129 58 -221 150 -221c48 0 85 22 105 45v123h-120v63h192v-215c-45 -53 -104 -82 -177 -82z" />
    <glyph glyph-name="H.smcp" unicode="&#xf768;" horiz-adv-x="513" 
d="M448 0h-75v250h-232v-250h-75v550h75v-234h232v234h75v-550z" />
    <glyph glyph-name="I.smcp" unicode="&#xf769;" horiz-adv-x="206" 
d="M141 0h-75v550h75v-550z" />
    <glyph glyph-name="J.smcp" unicode="&#xf76a;" horiz-adv-x="353" 
d="M128 -12c-48 0 -89 17 -121 54l31 57c21 -27 49 -45 84 -45c56 0 90 34 90 93v403h75v-409c0 -105 -67 -153 -159 -153z" />
    <glyph glyph-name="K.smcp" unicode="&#xf76b;" horiz-adv-x="453" 
d="M441 0h-90l-166 237l-44 -61v-176h-75v550h75v-273l195 273h89l-194 -261z" />
    <glyph glyph-name="L.smcp" unicode="&#xf76c;" horiz-adv-x="378" 
d="M349 0h-283v550h75v-484h208v-66z" />
    <glyph glyph-name="M.smcp" unicode="&#xf76d;" horiz-adv-x="605" 
d="M540 0h-74v428l-147 -428h-32l-146 428v-428h-75v550h99l138 -402l137 402h100v-550z" />
    <glyph glyph-name="N.smcp" unicode="&#xf76e;" horiz-adv-x="510" 
d="M444 0h-75l-229 413v-413h-74v550h78l225 -404v404h75v-550z" />
    <glyph glyph-name="O.smcp" unicode="&#xf76f;" horiz-adv-x="529" 
d="M265 -12c-145 0 -222 127 -222 287s77 287 222 287c143 0 221 -127 221 -287s-78 -287 -221 -287zM265 54c94 0 144 100 144 221c0 123 -50 221 -144 221c-96 0 -145 -98 -145 -221c0 -121 49 -221 145 -221z" />
    <glyph glyph-name="P.smcp" unicode="&#xf770;" horiz-adv-x="429" 
d="M141 0h-75v550h176c108 0 160 -77 160 -167s-51 -168 -160 -168h-101v-215zM235 281c61 0 90 44 90 102s-30 101 -90 101h-94v-203h94z" />
    <glyph glyph-name="Q.smcp" unicode="&#xf771;" horiz-adv-x="529" 
d="M265 -12c-145 0 -222 127 -222 287s77 287 222 287c143 0 221 -127 221 -287c0 -96 -28 -180 -82 -232l29 -44l-51 -30l-25 40c-27 -13 -58 -21 -92 -21zM265 54c20 0 38 5 54 13l-63 100l51 30l57 -90c29 40 45 101 45 168c0 123 -50 221 -144 221
c-96 0 -145 -98 -145 -221c0 -121 49 -221 145 -221z" />
    <glyph glyph-name="R.smcp" unicode="&#xf772;" horiz-adv-x="449" 
d="M410 0h-85l-108 215h-76v-215h-75v550h176c103 0 160 -73 160 -167c0 -91 -50 -147 -113 -157zM235 281c61 0 90 43 90 102s-31 101 -90 101h-94v-203h94z" />
    <glyph glyph-name="S.smcp" unicode="&#xf773;" horiz-adv-x="408" 
d="M200 -12c-75 0 -132 26 -174 71l38 56c30 -35 79 -62 135 -62c66 0 101 38 101 88c0 131 -256 95 -256 275c0 85 70 146 166 146c67 0 117 -21 157 -61l-36 -54c-33 35 -76 50 -120 50c-51 0 -90 -32 -90 -80c0 -114 256 -87 256 -274c0 -88 -62 -155 -177 -155z" />
    <glyph glyph-name="T.smcp" unicode="&#xf774;" horiz-adv-x="373" 
d="M224 0h-75v484h-128v66h331v-66h-128v-484z" />
    <glyph glyph-name="U.smcp" unicode="&#xf775;" horiz-adv-x="507" 
d="M253 -12c-127 0 -187 77 -187 220v342h75v-363c0 -86 38 -133 112 -133s113 48 113 133v363h75v-342c0 -144 -61 -220 -188 -220z" />
    <glyph glyph-name="V.smcp" unicode="&#xf776;" horiz-adv-x="445" 
d="M266 0h-87l-173 550h81l136 -455l135 455h80z" />
    <glyph glyph-name="W.smcp" unicode="&#xf777;" horiz-adv-x="623" 
d="M483 0h-78l-94 417l-93 -417h-78l-131 550h80l93 -428l98 428h63l98 -428l93 428h80z" />
    <glyph glyph-name="X.smcp" unicode="&#xf778;" horiz-adv-x="448" 
d="M442 0h-87l-131 222l-132 -222h-86l171 281l-162 269h87l122 -210l121 210h87l-162 -268z" />
    <glyph glyph-name="Y.smcp" unicode="&#xf779;" horiz-adv-x="439" 
d="M258 0h-75v233l-180 317h84l133 -246l133 246h82l-177 -317v-233z" />
    <glyph glyph-name="Z.smcp" unicode="&#xf77a;" horiz-adv-x="405" 
d="M372 0h-339v58l241 426h-241v66h333v-57l-241 -427h247v-66z" />
    <glyph glyph-name="exclamdown.smcp" unicode="&#xf7a1;" horiz-adv-x="183" 
d="M50 0l14 387h55l15 -387h-84zM38 506c0 29 24 54 54 54c29 0 53 -25 53 -54c0 -28 -24 -53 -53 -53c-30 0 -54 25 -54 53z" />
    <glyph glyph-name="questiondown.smcp" unicode="&#xf7b8;" horiz-adv-x="335" 
d="M20 112c0 117 136 134 136 212c0 14 -6 29 -22 42l56 25c21 -21 29 -44 29 -67c0 -98 -125 -113 -125 -199c0 -38 28 -74 81 -74c45 0 76 20 100 50l38 -45c-35 -43 -87 -68 -149 -68c-89 0 -144 55 -144 124zM116 506c0 29 25 54 54 54s53 -25 53 -54
c0 -28 -24 -53 -53 -53s-54 25 -54 53z" />
    <glyph glyph-name="Agrave.smcp" unicode="&#xf7e0;" horiz-adv-x="445" 
d="M179 550h87l172 -550h-80l-36 122h-199l-36 -122h-81zM305 188l-82 277l-84 -277h166zM281 606h-51l-135 144h73z" />
    <glyph glyph-name="Aacute.smcp" unicode="&#xf7e1;" horiz-adv-x="445" 
d="M179 550h87l172 -550h-80l-36 122h-199l-36 -122h-81zM305 188l-82 277l-84 -277h166zM351 750l-135 -144h-51l114 144h72z" />
    <glyph glyph-name="Acircumflex.smcp" unicode="&#xf7e2;" horiz-adv-x="445" 
d="M179 550h87l172 -550h-80l-36 122h-199l-36 -122h-81zM305 188l-82 277l-84 -277h166zM340 606h-46l-72 105l-69 -105h-46l80 144h70z" />
    <glyph glyph-name="Atilde.smcp" unicode="&#xf7e3;" horiz-adv-x="445" 
d="M179 550h87l172 -550h-80l-36 122h-199l-36 -122h-81zM305 188l-82 277l-84 -277h166zM272 604c-64 0 -60 94 -102 94c-23 0 -41 -27 -41 -88h-42c0 76 28 134 85 134c64 0 61 -94 102 -94c24 0 41 27 41 88h42c0 -76 -28 -134 -85 -134z" />
    <glyph glyph-name="Adieresis.smcp" unicode="&#xf7e4;" horiz-adv-x="445" 
d="M179 550h87l172 -550h-80l-36 122h-199l-36 -122h-81zM305 188l-82 277l-84 -277h166zM354 660c0 -25 -20 -45 -45 -45s-45 20 -45 45c0 24 20 45 45 45s45 -21 45 -45zM180 660c0 -25 -21 -45 -45 -45c-25 0 -45 20 -45 45c0 24 20 45 45 45c24 0 45 -21 45 -45z" />
    <glyph glyph-name="Aring.smcp" unicode="&#xf7e5;" horiz-adv-x="445" 
d="M179 550h87l172 -550h-80l-36 122h-199l-36 -122h-81zM305 188l-82 277l-84 -277h166zM223 605c-50 0 -91 41 -91 91s41 90 91 90s90 -40 90 -90s-40 -91 -90 -91zM223 643c29 0 52 23 52 53c0 29 -23 53 -52 53s-53 -24 -53 -53c0 -30 24 -53 53 -53z" />
    <glyph glyph-name="AE.smcp" unicode="&#xf7e6;" horiz-adv-x="648" 
d="M603 0h-301v122h-160l-58 -122h-81l269 550h331v-66h-226v-169h220v-66h-220v-183h226v-66zM302 188v277l-133 -277h133z" />
    <glyph glyph-name="Ccedilla.smcp" unicode="&#xf7e7;" horiz-adv-x="468" 
d="M264 -191c-37 0 -69 14 -89 30l18 37c22 -19 45 -28 70 -28c28 0 54 15 54 42c0 21 -12 35 -33 35c-14 0 -25 -7 -33 -16l-32 18l22 63c-123 14 -198 132 -198 285c0 165 86 287 226 287c86 0 139 -49 173 -112l-61 -28c-24 47 -63 74 -112 74c-92 0 -149 -94 -149 -221
c0 -125 57 -221 149 -221c50 0 90 29 112 76l62 -27c-33 -61 -81 -109 -159 -114l-17 -44c9 7 20 10 33 10c34 0 60 -26 60 -66c0 -48 -42 -80 -96 -80z" />
    <glyph glyph-name="Egrave.smcp" unicode="&#xf7e8;" horiz-adv-x="411" 
d="M367 0h-301v550h301v-66h-226v-169h220v-66h-220v-183h226v-66zM277 606h-51l-135 144h73z" />
    <glyph glyph-name="Eacute.smcp" unicode="&#xf7e9;" horiz-adv-x="411" 
d="M367 0h-301v550h301v-66h-226v-169h220v-66h-220v-183h226v-66zM347 750l-135 -144h-51l114 144h72z" />
    <glyph glyph-name="Ecircumflex.smcp" unicode="&#xf7ea;" horiz-adv-x="411" 
d="M367 0h-301v550h301v-66h-226v-169h220v-66h-220v-183h226v-66zM335 606h-46l-72 105l-69 -105h-46l80 144h70z" />
    <glyph glyph-name="Edieresis.smcp" unicode="&#xf7eb;" horiz-adv-x="411" 
d="M367 0h-301v550h301v-66h-226v-169h220v-66h-220v-183h226v-66zM349 660c0 -25 -20 -45 -45 -45s-45 20 -45 45c0 24 20 45 45 45s45 -21 45 -45zM175 660c0 -25 -21 -45 -45 -45c-25 0 -45 20 -45 45c0 24 20 45 45 45c24 0 45 -21 45 -45z" />
    <glyph glyph-name="Igrave.smcp" unicode="&#xf7ec;" horiz-adv-x="204" 
d="M141 0h-75v550h75v-550zM161 606h-51l-135 144h73z" />
    <glyph glyph-name="Iacute.smcp" unicode="&#xf7ed;" horiz-adv-x="204" 
d="M141 0h-75v550h75v-550zM231 750l-135 -144h-51l114 144h72z" />
    <glyph glyph-name="Icircumflex.smcp" unicode="&#xf7ee;" horiz-adv-x="204" 
d="M141 0h-75v550h75v-550zM219 606h-46l-72 105l-69 -105h-46l80 144h70z" />
    <glyph glyph-name="Idieresis.smcp" unicode="&#xf7ef;" horiz-adv-x="204" 
d="M141 0h-75v550h75v-550zM235 660c0 -25 -20 -45 -45 -45s-45 20 -45 45c0 24 20 45 45 45s45 -21 45 -45zM61 660c0 -25 -21 -45 -45 -45c-25 0 -45 20 -45 45c0 24 20 45 45 45c24 0 45 -21 45 -45z" />
    <glyph glyph-name="Eth.smcp" unicode="&#xf7f0;" horiz-adv-x="521" 
d="M234 0h-158v252h-60v50h60v248h158c151 0 235 -119 235 -276s-83 -274 -235 -274zM253 252h-102v-186h83c104 0 158 89 158 208c0 120 -53 210 -158 210h-83v-182h102v-50z" />
    <glyph glyph-name="Ntilde.smcp" unicode="&#xf7f1;" horiz-adv-x="510" 
d="M444 0h-75l-229 413v-413h-74v550h78l225 -404v404h75v-550zM303 604c-64 0 -60 94 -102 94c-23 0 -41 -27 -41 -88h-42c0 76 28 134 85 134c64 0 61 -94 102 -94c24 0 41 27 41 88h42c0 -76 -28 -134 -85 -134z" />
    <glyph glyph-name="Ograve.smcp" unicode="&#xf7f2;" horiz-adv-x="529" 
d="M265 -12c-145 0 -222 127 -222 287s77 287 222 287c143 0 221 -127 221 -287s-78 -287 -221 -287zM265 54c94 0 144 100 144 221c0 123 -50 221 -144 221c-96 0 -145 -98 -145 -221c0 -121 49 -221 145 -221zM322 606h-51l-135 144h73z" />
    <glyph glyph-name="Oacute.smcp" unicode="&#xf7f3;" horiz-adv-x="529" 
d="M265 -12c-145 0 -222 127 -222 287s77 287 222 287c143 0 221 -127 221 -287s-78 -287 -221 -287zM265 54c94 0 144 100 144 221c0 123 -50 221 -144 221c-96 0 -145 -98 -145 -221c0 -121 49 -221 145 -221zM394 750l-135 -144h-51l114 144h72z" />
    <glyph glyph-name="Ocircumflex.smcp" unicode="&#xf7f4;" horiz-adv-x="529" 
d="M265 -12c-145 0 -222 127 -222 287s77 287 222 287c143 0 221 -127 221 -287s-78 -287 -221 -287zM265 54c94 0 144 100 144 221c0 123 -50 221 -144 221c-96 0 -145 -98 -145 -221c0 -121 49 -221 145 -221zM382 606h-46l-72 105l-69 -105h-46l80 144h70z" />
    <glyph glyph-name="Otilde.smcp" unicode="&#xf7f5;" horiz-adv-x="529" 
d="M265 -12c-145 0 -222 127 -222 287s77 287 222 287c143 0 221 -127 221 -287s-78 -287 -221 -287zM265 54c94 0 144 100 144 221c0 123 -50 221 -144 221c-96 0 -145 -98 -145 -221c0 -121 49 -221 145 -221zM315 604c-64 0 -60 94 -102 94c-23 0 -41 -27 -41 -88h-42
c0 76 28 134 85 134c64 0 61 -94 102 -94c24 0 41 27 41 88h42c0 -76 -28 -134 -85 -134z" />
    <glyph glyph-name="Odieresis.smcp" unicode="&#xf7f6;" horiz-adv-x="529" 
d="M265 -12c-145 0 -222 127 -222 287s77 287 222 287c143 0 221 -127 221 -287s-78 -287 -221 -287zM265 54c94 0 144 100 144 221c0 123 -50 221 -144 221c-96 0 -145 -98 -145 -221c0 -121 49 -221 145 -221zM397 660c0 -25 -20 -45 -45 -45s-45 20 -45 45
c0 24 20 45 45 45s45 -21 45 -45zM223 660c0 -25 -21 -45 -45 -45c-25 0 -45 20 -45 45c0 24 20 45 45 45c24 0 45 -21 45 -45z" />
    <glyph glyph-name="Oslash.smcp" unicode="&#xf7f8;" horiz-adv-x="529" 
d="M265 -12c-49 0 -90 14 -123 39l-16 -27h-56l37 62c-42 52 -64 128 -64 213c0 160 77 287 222 287c48 0 88 -14 121 -39l16 27h56l-37 -61c42 -53 65 -129 65 -214c0 -160 -78 -287 -221 -287zM265 54c94 0 144 100 144 221c0 55 -11 105 -30 144l-199 -330
c22 -22 50 -35 85 -35zM120 275c0 -55 10 -105 29 -144l200 330c-22 22 -51 35 -84 35c-96 0 -145 -98 -145 -221z" />
    <glyph glyph-name="Ugrave.smcp" unicode="&#xf7f9;" horiz-adv-x="507" 
d="M253 -12c-127 0 -187 77 -187 220v342h75v-363c0 -86 38 -133 112 -133s113 48 113 133v363h75v-342c0 -144 -61 -220 -188 -220zM311 606h-51l-135 144h73z" />
    <glyph glyph-name="Uacute.smcp" unicode="&#xf7fa;" horiz-adv-x="507" 
d="M253 -12c-127 0 -187 77 -187 220v342h75v-363c0 -86 38 -133 112 -133s113 48 113 133v363h75v-342c0 -144 -61 -220 -188 -220zM383 750l-135 -144h-51l114 144h72z" />
    <glyph glyph-name="Ucircumflex.smcp" unicode="&#xf7fb;" horiz-adv-x="507" 
d="M253 -12c-127 0 -187 77 -187 220v342h75v-363c0 -86 38 -133 112 -133s113 48 113 133v363h75v-342c0 -144 -61 -220 -188 -220zM370 606h-46l-72 105l-69 -105h-46l80 144h70z" />
    <glyph glyph-name="Udieresis.smcp" unicode="&#xf7fc;" horiz-adv-x="507" 
d="M253 -12c-127 0 -187 77 -187 220v342h75v-363c0 -86 38 -133 112 -133s113 48 113 133v363h75v-342c0 -144 -61 -220 -188 -220zM385 660c0 -25 -20 -45 -45 -45s-45 20 -45 45c0 24 20 45 45 45s45 -21 45 -45zM211 660c0 -25 -21 -45 -45 -45c-25 0 -45 20 -45 45
c0 24 20 45 45 45c24 0 45 -21 45 -45z" />
    <glyph glyph-name="Yacute.smcp" unicode="&#xf7fd;" horiz-adv-x="439" 
d="M258 0h-75v233l-180 317h84l133 -246l133 246h82l-177 -317v-233zM349 750l-135 -144h-51l114 144h72z" />
    <glyph glyph-name="Thorn.smcp" unicode="&#xf7fe;" horiz-adv-x="429" 
d="M141 0h-75v550h75v-93h101c108 0 160 -78 160 -167c0 -91 -51 -168 -160 -168h-101v-122zM235 188c61 0 90 43 90 101s-29 102 -90 102h-94v-203h94z" />
    <glyph glyph-name="Ydieresis.smcp" unicode="&#xf7ff;" horiz-adv-x="439" 
d="M258 0h-75v233l-180 317h84l133 -246l133 246h82l-177 -317v-233zM353 660c0 -25 -20 -45 -45 -45s-45 20 -45 45c0 24 20 45 45 45s45 -21 45 -45zM179 660c0 -25 -21 -45 -45 -45c-25 0 -45 20 -45 45c0 24 20 45 45 45c24 0 45 -21 45 -45z" />
    </font>
</defs>
</svg>
